<svg xmlns="http://www.w3.org/2000/svg" viewBox="0 0 3532.53 128.26"><defs><style>.cls-1{fill:#b92900;}.cls-2{opacity:0.85;}.cls-3{fill:#c0401b;}.cls-4{opacity:0.8;}.cls-5{fill:#fff;}</style></defs><g id="レイヤー_2" data-name="レイヤー 2"><g id="footer"><path class="cls-1" d="M2559.37,41.55c63.38,1.06,115.39.7,174.88,1C2675.52,42.21,2610,41.6,2559.37,41.55Zm427.54,4.92c16.27.08,45.17.7,61.55,1.07C3027.17,47.55,3006.54,46.78,2986.91,46.47ZM829.3,43.68c2.89-.06,5.81-.13,6.5-.06,8.81-.31,6.53-.38,13-.47-3.49.42-9.85.37-19.45.88Zm2225.62,4.1c4.54-.18,16.77.24,22.69.32C3072.59,48.29,3058.16,47.91,3054.92,47.78ZM2854.1,45.72c-8.52.12-21.73.07-35.62,0C2830.42,45.52,2837.21,45.61,2854.1,45.72ZM1179.29,35.11c-.11.09-4,.11-6.49.16,8.08.15,14.54,0,22.66-.26,3.73.23-5.08.27-6.45.43l-15.18.1c-4.46,0-7.64,0-7.5-.19C1169.18,35.25,1173.62,35.17,1179.29,35.11Zm1153.33,5.6c9.46.44,24.94.22,42.15.44-9.5.14-27.28,0-45.36-.21a15.59,15.59,0,0,1,3.21,0Zm-1289.44-2.6c-3.39.4-13.18.33-25.92.76a27.23,27.23,0,0,1,3.49-.23l7.79-.26C1034.39,38.23,1040.81,38.07,1043.18,38.11Zm1182.57,1.94c9.64.11,8.65.62-3.29.41C2226.15,40.22,2221.56,40.22,2225.75,40.05ZM2365,41.48c6.5.22,15.08.39,16.2.7C2364.47,42.07,2360.33,41.71,2365,41.48Zm-29.15,0c2.38.26-6.39.11-6.43.28-10.21-.06-12.7-.25-19.44-.37C2314.68,41.24,2326.84,41.14,2335.83,41.45Zm664,6.73c10.14.12,23.81.19,29.15.39,1.51.32-17.54-.13-19.42.06C3005.47,48.31,2998.62,48.59,2999.85,48.18Zm174.9,2.5,18.87.25c5.76.1,10.09.21,10.28.4C3189.69,51,3178.5,51.13,3174.75,50.68Zm-842.14-8.39a20.47,20.47,0,0,0-3.22.58c-7.65-.08-9.56.05-19.45-.11,1.59-.3,12.27-.19,6.5-.55C2325.57,42.38,2324.82,42.18,2332.61,42.29Zm660.77,6.79c8.15.12,14.86.45,9.7.54-4.69-.19-16.56-.25-25.9-.36-3.25.23,7.21.23,13,.31.53.2-11.48-.08-16.2-.08-3.25-.15-3-.35-9.71-.45C2970.11,48.91,2989.48,49.28,2993.38,49.08Zm-748.23-7.42c3.61-.14,25,.15,29.15.29C2268.2,42.31,2256.3,41.74,2245.15,41.66Zm-900.55-5.9c18,0-9.75.46-3.28.45-2.1.16-7.44.1-6.5-.05l-9.71.05C1329.3,36,1343.3,36,1344.6,35.76Zm29.17,0,16.1-.13h18.54c11.47,0,19.5.13,13.9.41C1413.11,35.45,1382.75,36,1373.77,35.77Zm434.11,1.82c3.43-.17,20.35.15,29.16.17C1827.9,37.94,1820.47,37.75,1807.88,37.59Zm-1053,12.16c-1,.25-14.14.74-16.19,1C728,51.08,752,49.72,754.93,49.75Zm797-13.36c-14.8.07-13.71-.13-29.2-.2C1528.49,35.8,1550.58,35.86,1552,36.39Zm100.4.14c4.51-.05,24.32.15,29.16.2C1677.93,36.88,1656.46,36.66,1652.35,36.53ZM622.24,56.9c11.5-.8,2,.19,9.72-.29-6.16.57-14.07.7-22.64,1.39C607.69,57.82,625.4,57,622.24,56.9Zm994.49-20.44c9.35.06,21.22.1,25.91.26C1641.05,36.84,1613.44,36.73,1616.73,36.46Zm492.39,4.59c16.41.16,37.56.27,55.06.56C2146.31,41.61,2128.45,41.45,2109.12,41.05Zm-55.06-.48c1-.11,8.12,0,13,0-3.32.09-3.18.3-6.5.38-4.07-.07-3.28-.21,0-.18C2059.07,40.72,2057.67,40.62,2054.06,40.57Zm132.81,1.28c3.42.36-8.09.16-6.5.45l-38.86-.39Zm3.21.12c1.41-.18,16,.13,22.66.14-4.08.06-2.57.34,6.49.42C2200.72,42.66,2201.05,42.12,2190.08,42Zm84.21.77c17.9.14,30.52.37,45.32.56-2.71.07-4.23.19-3.18.4-17.36-.07-24.21-.27-45.35-.46C2270.61,43,2270.58,42.81,2274.29,42.74ZM3352.9,54.26c-16.53,0-41-.53-58.3-.77C3311.31,53.26,3338.72,53.92,3352.9,54.26ZM916.9,44.11c-9.12.59-14.55,1.38-35.6,1.81,13.46-.6,12.55-.61,9.65-1C903.1,44.33,900.77,44.77,916.9,44.11Zm592.93-7.54c10,0,6.21.27,16.17.24.65.26.4.48-9.71.4.54-.1-.72-.16-3.25-.19C1527.73,36.83,1506,37,1509.83,36.57Zm-51.86.69c12.49,0-2.49-.34,6.5-.53,17.36.29,36.12.36,45.36,1.07-6.86-.15-9.6,0-19.45-.11,10.79-.36-7.76-.5-16.2-.61-11.16.05-7.91.49-22.67.45,4-.49-6.89-.58-13-.79,4.73-.26,12.66.11,22.7,0C1457.28,36.87,1450.9,37.08,1458,37.26Zm-158.73.23c-1,.18-8.77.22-9.78.4-3.46,0-2.17-.16-6.42-.14C1283.5,37.56,1291.15,37.52,1299.24,37.49ZM179.92,96c12.22-1.52.65.32,12.87-1.2-6.22.93-21.6,2.41-29,3.21C162.33,98,181.38,96.1,179.92,96Zm25.76-2.93c4.78-.44,14.39-1.56,12.91-1.12-7.59,1-6,.67-16.09,1.92C201.18,93.83,208.36,93,205.68,93.09ZM1477.39,37.43c10.43.2-13.61.56-12.92.09C1472.55,37.53,1474.61,37.69,1477.39,37.43ZM376.68,76.63c7.59-.61,12.13-.88,22.6-1.81-3.61.58-13.81,1.18-25.78,2.34A15.15,15.15,0,0,0,376.68,76.63ZM551.21,63.55c-5.5.42-6.08.36-6.49.28-9.15.57-8.34.71-16.16,1.22C527.31,64.79,553.53,63,551.21,63.55ZM1862.88,40.82c7,.12,3.06.57,0,.61C1850.47,41.23,1863.49,41.08,1862.88,40.82Zm-1599,47.53c1.34-.32,17.09-1.74,19.33-1.89C278.94,87.24,272.61,87.49,263.85,88.35Zm29-2.76c5.61-.47,17.28-1.7,16.12-1.32l-19.33,1.9A14.86,14.86,0,0,0,292.89,85.59Zm1583-44.12c14.21.22,2.37.37,9.73.63-2.92.15-18.11-.21-16.19-.43C1876.3,41.78,1875.58,41.61,1875.87,41.47Zm-528.08-2.22c4.66.08,7.4.29,3.29.42-7.8.07-7.08-.13-16.24,0C1337.8,39.5,1346.82,39.46,1347.79,39.25Zm-1129,54.47c7.13-.62,17.73-2.24,19.32-2-2.83.15-7.4.76-11.39,1.27S219.3,93.93,218.78,93.72Zm3241-35c-3,.13-6,.25-16.17.1a14.2,14.2,0,0,1-3.24-.3C3444.48,58.42,3455.59,58.53,3459.74,58.69ZM1888.79,44.85c6,0,10.82.37,13,.13,4.33.1,6,.25,6.49.41C1903,45.19,1887.88,45.15,1888.79,44.85ZM3427.35,60.64c1,.33-9,.47-6.51,1.16-10.31-.72-12.52.14-38.86-.22,3.75-.1,11.37-.26,0-.44.36-.22,10.82-.06,19.41,0-5.23-.26-20.75-.35-16.16-.78C3400.9,60.86,3409.09,60.33,3427.35,60.64ZM428.77,77.55c3.57-.56,10.51-.77,9.69-.55-5.75.47-6.78.67-12.9,1.17-1.81,0,6.18-.65,6.45-.81A17.56,17.56,0,0,0,428.77,77.55Zm-32.26,3c-7.46.79-8.61.89-16.14,1.35,2.39-.36,5.89-.51,9.7-.81,1-.32-12.55,1-9.73.46C390.87,80.69,395.92,80.4,396.51,80.6Zm-41.93,3.77c4.73-.31,2.06,0-2.88.45l-16.46,1.63C340,85.75,352.49,84.57,354.58,84.37Zm54.86-4.59c11.41-.83,26.15-2,35.55-2.62C430.69,78.41,415.52,79.73,409.44,79.78ZM545.1,69.52c6.77-.52,8.58-.54,12.93-.82-2.9.36-6,.72-16.14,1.39C541.48,70,545.84,69.63,545.1,69.52Zm2866-7.29c-.54-.2,11.48.07,16.2.08.9.23-1.19.36-9.74.25a15.76,15.76,0,0,0,3.25-.23C3416.58,62.39,3415.75,62.31,3411.13,62.23ZM1370.51,44.3c7.72-.35,9.6.18,22.66,0C1385.48,44.51,1375.78,44.51,1370.51,44.3ZM235.39,96.61c8-.91,32.28-3.12,38.69-3.54C262.57,94.29,244.73,95.79,235.39,96.61Zm261.3-22.82c-.32.11-6.1.53-14.15,1.08s-18.37,1.17-27.74,2c-18.74,1.46-33.75,2.57-19.46,1.4L459,76.37c6.27-.54,13.14-.91,19.72-1.37ZM312.76,89.45c4.09-.46,12.93-1.34,20.77-2,3.92-.36,7.58-.67,10.28-.88a31.17,31.17,0,0,1,4.46-.2c-5.94.45-10.94.84-16.12,1.58-6.72.61-6.83.53-3.26.06-7.75.72-7,.84-16.11,1.67.1-.1,4-.46,6.46-.72C319.12,88.83,315.28,89.23,312.76,89.45Zm41.93-3.86c10.67-.86,24.65-2.09,22.64-1.54C365.07,85.09,358.23,85.52,354.69,85.59Zm999.66-40.42c-1.69.42-24.5,0-32.4.35C1313.29,45.19,1346.2,45.17,1354.35,45.17Zm-106.86,1,16.16-.19c-.9.25-1.08.45,9.71.25-2.74.15-8.15.28-16.19.36C1262.71,45.92,1244.75,46.71,1247.49,46.16Zm87.38-.45c2.78-.27,10.46,0,16.23-.08-4.25.29.87.24,0,.61C1335.34,46.35,1338.44,45.76,1334.87,45.71Zm-867.19,31C488,75.48,506.37,74,525.85,73c-1.51.59-25.1,1.49-29.06,2.21-3.78.14-13.42.84-12.94.56-9.83.67-12.54,1.16-19.35,1.45A13.68,13.68,0,0,0,467.68,76.71Zm90.49-5.91c-3.26.43-16.95,1.58-25.82,2C535.39,72.36,551.14,71.12,558.17,70.8Zm708.7-23.46c2.39.18,9.78-.38,16.24-.12-3,.18-10.14.22-19.45.33.51-.11-.72-.15-3.24-.14,1.37-.15,10.17-.19,6.45-.42C1272.5,47,1275.86,47.21,1266.87,47.34ZM648.77,66.79c6.45-.26.43.55,16.19-.5-4.41.48-19.8,1.16-25.85,1.49C639.1,67.55,649.29,67,648.77,66.79ZM120,113.43c13.09-1.67,39.62-4.48,48.32-5.23C151.71,110,133.86,112,120,113.43ZM380.77,86.58c5.69-.4,16.1-1.32,19.38-1.45C397.78,85.78,381.16,86.87,380.77,86.58ZM1192.4,49.69c.41.33-6.3.54-16.15.71-1.44-.15,4.4-.58-6.49-.36C1176.75,49.8,1184.61,49.71,1192.4,49.69Zm38.93-.19c.32.12-4.57.22-9.54.25-2.48,0-5,0-6.85,0a22.13,22.13,0,0,1-3.09-.12C1219.75,49.33,1218.78,49.75,1231.33,49.5ZM661.77,67.35c-9.25.55-17.64,1-16.18.67C650.7,67.59,660.43,67.21,661.77,67.35ZM697.32,65c2.6-.06,8.84-.27,9.69-.45,8.79-.47-2.28.52,6.47,0-10.23.46-16.5.78-29.08,1.83-10.37.67-6.71.15-12.94.48C677,66.31,703.54,65.15,697.32,65ZM471.16,79.63c11.71-1,22.33-1.61,32.31-2.18C500,78,484.07,78.68,471.16,79.63Zm122.76-8.27c5.65-.3,7.35-.27,6.46,0l-22.61,1.33C580.31,72.28,593,71.67,593.92,71.36ZM1811,50.68c-3,.13-10.14.1-19.45,0C1788.46,50.33,1804.3,50.67,1811,50.68Zm-680.09.6c5.47.12,16-.1,25.52-.29s18.16-.22,19.82,0c-17.27.13-37,.37-55,.81C1122.53,51.62,1133.78,51.51,1130.92,51.28Zm58.28-.76c11.8.07,20.06-.1,32.36-.38,2.35.24-5.52.32-3.21.57-6.81.06-20.16,0-22.68.43C1183.44,51.11,1182.14,50.9,1189.2,50.52Zm64.78-.58c20.13.08,12.09,0,29.15.17-9.45.16-35.6.37-22.68.72C1238.74,50.82,1251.28,50.46,1254,49.94Zm411.27.09c13.57.14-60.1-.51-3.25,0Zm42.1.21,9.71.07c.79.26-6.07.26-9.71.37C1698.48,50.43,1716.05,50.58,1707.35,50.24ZM564.89,74c5.6-.51,12.21-1,19.37-1.37s14.85-.75,22.63-1.25c-9.34.91-30,1.57-35.55,2.43C566.7,74.13,570.21,73.64,564.89,74Zm132.49-7.91,9.69-.45c-.31.34-3.62.42,0,.53C700.14,66.43,695.63,66.5,697.38,66.11Zm61.42-2.77v.18c-6.42.15-4.11.2-12.93.6C742.45,64.06,756.78,63.22,758.8,63.34Zm25.86-1.29,16.18-.75c-2.52.2-3.45.36-3.23.5l-16.14.75C784,62.36,784.92,62.19,784.66,62.05Zm38.8-1.66L839.69,60c1.38.2-12.07.52-13,.74,4.9,0,13.95-.3,19.43-.36-9.15.45-20.54.73-29.1,1.32C801.75,61.73,832.31,60.41,823.46,60.39Zm359.26-9.27c.06.17-4,.22-8.08.24l-5.58,0-1.83,0a2.61,2.61,0,0,0-.67,0C1154.7,51.42,1175.94,51.17,1182.72,51.12Zm534.34-.38c3.13-.19,12.44.2,22.65.17C1735.34,51.25,1725.13,51,1717.06,50.74Zm-174.9-.54c1-.2,10-.16,12.95-.3C1570,50.1,1553,50.5,1542.16,50.2Zm330.35,2.46c-1.41.18-16-.12-22.66-.14-3.93-.21,16.88.17,3.21-.32,12.7.09,62.67.72,19.45.37C1868.83,52.54,1870.74,52.65,1872.51,52.66Zm97.16.81c2.92.4-18.29-.1-16.17.27-9.77-.33-14.76-.21-32.4-.41a89.76,89.76,0,0,0-9.74-.36C1932.36,53.34,1943.44,52.86,1969.67,53.47ZM3103.34,65.11c-7.76.14-9.56.16-22.66,0C3085.41,64.77,3089.27,65,3103.34,65.11Zm22.7.24,19.17.2c2.88,0,5.37.09,7.14.14a12,12,0,0,1,2.8.22C3146.49,65.69,3130.94,65.78,3126,65.35ZM636,70.51c-.35.24-10.82.8-19.39,1.3C613.55,71.67,629.36,71,636,70.51ZM965.9,56.57c-1.15.32,8.26.07,25.89-.43-10.92.56-43.29,1.5-51.77,1.39C946.84,57.49,964.78,56.89,965.9,56.57ZM3132.49,66c-8,.18-19.66-.31-32.37-.34C3104.49,65.48,3122.39,65.85,3132.49,66ZM749.16,64.84c9,0,27.5-.91,42.06-1.25l-90.55,4C713.73,66.65,745.17,65.84,749.16,64.84Zm84.09-3.32c-1.29.26,14.74-.58,9.74-.09L826.78,62C828.21,61.81,832.94,61,833.25,61.52ZM2060.37,55.1c4.83.15,14.46.22,13,.48C2062.46,55.53,2061.48,55.32,2060.37,55.1ZM632.81,71.22c-1.27.5-15.84.9-25.84,1.58C606.06,72.62,629.7,71.24,632.81,71.22Zm954.69-20c2,.35-14.36.4-19.44.27a37.2,37.2,0,0,1,6-.25C1577.57,51.15,1582.4,51.15,1587.5,51.17ZM888.25,59.71c-1.65.36-21.15.89-32.35,1.34C864,60.44,873.29,60.16,888.25,59.71Zm64.68-2.18c-7.54.37-15.44.67-24,.93l-27.73.95c5.32-.32,12.84-.67,21.73-1S942.12,57.82,952.93,57.53Zm922.82-4c8.44.06,16.23.14,13,.39C1880.22,53.9,1874.77,53.79,1875.75,53.57ZM794.42,63.27c8-.37,15.6-.78,19.46-.78-.4.15-10.73.51-9.72.68C801.67,63.14,793.89,63.51,794.42,63.27Zm517.83-11.38c2.45-.11,23.74-.08,25.93.12-9-.15-16,.17-25.93.05C1314.24,52,1316.18,51.88,1312.25,51.89Zm586.18,2.35c-.57-.2,11.48.07,16.17.07-2.67.22,4.58.28,3.24.47C1904.49,54.72,1911.79,54.3,1898.43,54.24Zm353,3.7c-3-.35,12.77,0,19.49,0C2270.56,58.19,2260.06,58,2251.44,57.94Zm822.74,8.28c-11.37.21-39.95,0-35.63.51l-13-.14c5.74-.08,8.35-.57,0-.26-13.53-.43,11.11-.16,9.75-.42C3051.08,66.24,3056.6,66.09,3074.18,66.22Zm-68-.26A9.18,9.18,0,0,1,3005,66l-3,0h-8.68c-6.12,0-11.75-.11-9.84-.23C2987.65,65.73,2997.53,65.87,3006.16,66Zm-706.09-7.08c5.67-.12,21.32.34,32.36.42C2325.72,59.43,2308.33,59,2300.07,58.88Zm64.73.84c7.25.24,28.86.05,29.18.56C2382.51,59.93,2367,60.19,2364.8,59.72Zm404.89,4.33c-1.85.2-12.2.07-19.42.07C2750,63.84,2760.05,64,2769.69,64.05Zm-343.33-1.59c8.26.34,22.84.12,29.12.38C2453.06,62.93,2423.83,62.74,2426.36,62.46ZM894.11,41.16c11-.29,21.95-.57,25.93-.41-15.52.56-12.35.27-29.2,1C898.41,41.07,906,41.13,894.11,41.16Zm171.75-4.62c6,.09-14.58.7-22.7,1-1.77-.09,3.78-.53-3.22-.37C1048.34,36.59,1061.79,37.1,1065.86,36.54Zm1535.6,6.32c8.37.28-27.93.34-42.11.36,3.75-.09,3.76-.18,0-.35-14,0-24.89-.28-29.15-.3.21-.18,3.63-.24,8.94-.23s12.48.1,20.2.2C2574.78,42.74,2592.39,43,2601.46,42.86ZM2993.4,47c-9.42,0-3.65.09-3.25.31-5.81,0-6.82-.17-13-.22,1.88-.2,11.69-.34,19.41-.06a15.69,15.69,0,0,1-1.83,0l-1,0A2.52,2.52,0,0,1,2993.4,47Zm35.61.54c1.3.22-14.72-.2-9.71.16-7.83-.28-15.73-.07-25.9-.18,5.15,0-.76-.44,9.71-.25a16.35,16.35,0,0,0-3.25-.12C3007.43,47.06,3013.89,47.62,3029,47.52Zm48.6.41c-5-.1-.22-.1,3.25-.06,7.07.54,105.3,2.72,35.6,1.25-.54.21,5,.32,9.74.45-4.87.14-7.94-.15-16.2-.08C3108.59,49,3085.26,48.39,3077.61,47.93Zm-391.94-3.68c2.6-.16,11.33-.1,16.2-.18,9.49.07,11.15.28,16.2.43C2712.8,44.48,2695.38,44.07,2685.67,44.25ZM1143.62,35.53c9.39-.32-6.31.32-3.2.49-5.85.13-6.83,0-13,.16C1131.1,36,1140,35.76,1143.62,35.53ZM2342.3,43.88c-9.34-.3-11.29-.6,0-.7-1.49.31,2.41.53,0,1,11.76.05,5.92-.9,22.66-.38,4.26-.33-15.41-.27-12.91-.57,11.79.33,18.8-.14,25.91-.26-6.67-.33-6.28.34-19.42.06,6-.37-1.4-.34-6.48-.68a18.71,18.71,0,0,1,3.24.12c11.66-.06,34.17.29,35.62-.16,8.08.47,28.21.24,38.86.58-.4,0-2,0-3.53,0h-2a3.77,3.77,0,0,0-.89.06c16.09.17,2.13-.24,9.71-.34-10.58-.29-22-.42-29.19-.56,6.6-.34,37.34.22,35.69-.43,6.82.23,9.56.3,19.41.29-.76-.16-5.55-.26-13-.31,56.47.3,98.74,1.58,139.26,2,3.22-.59,35.1.76,51.85.35,4.33.09-3.86.34,6.45.51,6.86-.07,18,0,19.46-.24,10.13.41-14.19.29-13,.66,3.42.2,18.65.21,19.41.46,9.41,0,3.68-.09,3.25-.32l29.14.48c4.19-.11,10.65-.13,19.46-.07-10.86-.3-22.8-.46-29.16-.21-9.74-.16-9.12-.49-19.44-.64,6.71-.21,41.38.61,38.86.05,27.82.39,53.43.59,61.59.55,8.88.17-7.58.27,9.67.36-2.6.28,6.06.43,0,.53l13,.13c-6.6-.32,7.11,0,0-.44l16.2.17c-2.13-.11-7.44-.17-6.5-.33-5.55-.06-8.4,0-9.7.07-10.14-.07,8.23-.17-3.29-.29.44-.19,13.79.1,19.49.11a14.37,14.37,0,0,0-3.25.23c17.47-.22,52.6.72,58.31.25,17.61,0,33.48.85,38.86.48,2.66.66,28.75.92,55,1.18.94-.36-15.26-.44-16.2-.78,6.46.21,4.15,0,13,.14-1.56.29,17.24.69,22.69.58,6.24.07-5.63.28,6.45.42-1.4.11-4.14-.08-9.7-.1-3,0-4.91.11-6.5.19,16.31.39,28,.36,38.89.58-2.81,0-8.43,0-13.38,0s-9.21,0-9.31.14c-2.49-.25,6.49-.25-16.2-.43,5,.34-6.71.21-19.42.15,13.43.12,4.55.55,9.7.45,5,.25-7.76.07-16.2-.08,2.42.39,58.12,1.33,48.6.59,18.12.12-2,.34,13,.48,9.06,0-4.69-.28,3.25-.32,6.72,0,21.29.33,22.66.15-.43.09-1.56.56,9.74.89-4,.2-9.45-.48-16.24-.26,11.65.62,52.82,1.13,74.54,1.12,21.07.43,42.28.84,55,.56-16.05-.24-38.06-.76-48.56-.58,5.05-.26-11-.17-9.71-.37,10.9.09,68.42.41,77.72,1.07,13,.14,8.59-.14,6.5-.38,6.29.2,12.71.24,17.58.19s8.2-.18,8.33-.36c7.76.13,23.49.13,25.9.36,7,.08,1.48-.3,3.26-.41,16.16.31,11.35,1,32.38,1.21-20.53-.1-30.81-.2-32.4.28,11.33.2,30.45.38,32.39.95,29.41.29,50.29.73,68,1.22,1.33.2-2.2.21-3.25.32,4.14.25,26.95.19,19.44.64l42.11.25c-13.07.15-4,.92-22.71,1-4.8-.09,1.3-.1,0-.26-10-.17-6.21.17-16.16,0-.76.36,5.26.47,0,.71,5.84.22,11.87.44,25.9.53-5.49.23-24,0-32.4.1,2.74.29,8.15,0,16.2.17-10.87.29-27.72.37-35.63.77,15.55.59,10.63,1.52,42.06,1.84-1.66.2-5.52.28,6.49.41-4,.09-12.34,0-16.2.1,31.75.56,74.32.66,84.2,2.09,17,.14,21.71,1,51.8,1.15-16.49.29-49.32-.62-68-.88-12.16.23-17.21.08-35.61,0-4,.24,10.46.17,6.45.42-22,.06-74-1.1-87.42-.55,1.91.26,16.59.3,16.19.6,11.22,0,17.93.26,25.91.18,8.37.24-5.06.39-16.21.19,10.28.41,33.63.6,51.81.88-2,.06-3.93.12,0,.17-4,.09-12.34,0-16.2.1-10.25-.24-25.51-.37-29.16-.12-40.19-.82-98-.73-126.31-1.3-4,.14-7.91.29-13,.39-10.71-.24,6.71-.14,3.25-.4-54.76-.82-98.62-.22-126.36-.34-7.86-.23-14.54-.43-35.61-.63,6.93.27,9.19.61,22.69.76-.42,0-2,.06-3.55,0l-2,0a6.11,6.11,0,0,1-.91-.06c-3.83.09-8.13.16-13,.21,3.68-.23-26-.61-38.86-.57-6.81-.43-34.09-.63-51.84-.8,15.43.76,51.66.94,81,1.19-14,.08,28.79,1,35.61.71-1.48.35,8.12,0,13,.31-31.36.43-62.7-.64-94-.61-18.65-.91-72.34-.78-87.42-1.08,2.66.35,11.36.08,16.19.43,3,0,4.88-.11,6.46-.19l35.61.71c-1.77.21-15.38.16-28.63,0l-18.06-.24c-4.92-.09-8.21-.19-8.37-.25-29.7.22-59.36.1-97.17-.13,17.39.56,26.76,1.25,42.13,1.84-13.28-.28-35.43-1.16-45.34-1.78-6.75,0-21.29-.33-22.7-.15-8.87-.2,6.86-.2,9.71-.25-8.73-.22-17.17-.24-25.87-.18-4.36-.1,1.55-.21-3.28-.47-6.57.09-6.31-.13-13,0,.5.1,5.91.13,9.74.18-1.2.49-35.07-.25-32.44.37-31.83,0-58.13-.69-81-.22-12.31-.31-21.29-.21-32.37-.24,1.41.12,4.15.22,9.74.28-11.62.22-28.32-.29-42.14-.18,4.33.31-.22.35-9.71.34,2.81,0,1.91-.22,6.46-.19-12.19-.48-31.21,0-45.32,0-5.38-.15,8.26-.18,0-.53-7.79.14-8.62,0-22.69-.14,6.49-.11-1.44-.19-3.25-.39-13.42.27-6.56-.08-25.9-.17,4.11-.08,9.74-.08,3.25-.32-13.18.2-17.07-.31-29.16-.13,7.55-.4-4-.13-3.24-.56-6.35.12-30.16-.33-25.9-.61-8.23-.18-18.47,0-9.71.16-8.8.1-16-.59-19.48-.46-9.67-.16,3.14-.16,0-.35,7.83,0,7.07.23,16.24.25a15.81,15.81,0,0,1-3.24-.29c-9.79,0-25.19-.39-25.91-.27-10.17-.33,9.06-.3,9.71-.52-2.38-.1-5.88-.19-9.7-.27-9.06,0-4.12.61-19.45.41-4.44-.64-17.87.37-35.66.08-3.24-.3,7.26-.08,13,0,2.46-.3-8.47-.38-13-.57-3,.07-11.91-.09-9.67.17-14.54-.34-35.87-.42-45.35-.65,2.34-.13,5.88.05,9.67.1-26.12-.64,25.65-.07,9.78-.95,18.23.19,14.15-.07,32.37.25,6.75,0,.87-.38,6.5-.37,8.87.07,16.7.15,9.7.27a96.55,96.55,0,0,0,9.74-.16c-4.14-.44-37.23-.41-42.1-.61.51.11-.76.15-3.28.14,18.94.43-15.81-.06-3.22.32-11,0-32.79-.62-48.59-.85,9.92-.27-13.14-.2-3.25-.38-22.29-.28-30.7-.29-38.85-.84-3.32.07-24.33.2-3.22.4-10.79.22-16.7-.39-25.94-.26-1.37-.26,12.09,0,13-.13-17-.41-33.41-.06-29.16.4-8.12-.26-10.83.11-22.66-.23-1.19,0,.42.67-13,.21-.29.13-.54.25,3.25.3-4.88.24-7.94-.26-16.24-.25a95,95,0,0,1,9.74,0c-3.78-.17-3.78-.26,0-.35-7.61-.08-9.53,0-19.45-.11.5-.1-.68-.17-3.21-.21-4.29-.27,15.09-.06,3.22-.32,6.74-.14,18,.39,29.14.47,8.85.16,6.54-.1,13,0-7-.23-14.9-.3-22.7-.32a15.31,15.31,0,0,1,2.47-.11l5.71,0c4.34,0,9.18.12,11.23.2,3.15-.28-14.53-.22-12.91-.48-3.1.24-20.21-.05-32.4-.16,16.7.48-17.86,0-25.91-.18-4,.25,10.47.18,6.46.42-4.3,0-12.05,0-13,.13-8.33-.09-4.61-.39-13-.48.51-.1,5.89,0,9.75,0,.39-.15-4-.23-3.28-.38-7.69.42-21.51-.25-42.11-.35,12.59,0,1.66-.42-9.7-.54-2.63,0,11.72.73-13,.31v.17c2,.23,19.92.19,22.66.41,4.8,0-1.26-.12,0-.26,6.31.18,10,.42,19.45.55-2.39.06-5.89.07-9.71.07.79.17,5.55.26,13,.31,11.86.31-18.12-.22-16.2,0-4.91-.37-14.4-.15-29.16-.39-1.48.26,6.93.36,16.2.43-.43.37-9.17.54-3.26,1.11-10.35-.12-9.59-.42-19.44-.55-1.91.13,2,.36,6.49.68-4.34.17-9.78-.26-13-.05-9.81-.18-5.69-.6-22.69-.67-5-.36,11,.06,9.75-.16-12.84-.33-43.22-1.27-38.89-.66,2.3.26-15.26-.21-12.92,0-10.17-.22-1.7-.2-6.49-.51-10.32.17-13.57-.28-25.91-.35,11.69,0,28.29.12,38.87,0,18.53.61,37.59.41,55,.64,1.52-.17-4.62-.21-9.7-.27,3.71-.07,17.61-.12,0-.27,4.44-.12,19.84.16,25.91.1-.13-.19-2.75-.34-6.86-.46s-9.72-.22-15.8-.3c2.35.1,5.88.19,9.71.27-3.28.11-13.78,0-19.45,0,2.09-.07,7.47,0,6.5-.2-9-.29-17.36-.32-29.15-.38,4.54-.1,11.15-.12,19.41-.07-4-.27-30.52-.52-35.61-.18l-29.16-.3c-1-.21,9.35,0,9.71-.16-.35-.17-10.67-.17-9.7-.36-3.83.12-24.18.09-22.69-.32-12-.08-7.91.44-22.66,0-2,.27,11.65.24,3.2.39-9.7-.51-26.62-.89-45.31-.78-1.08-.53,40.48.4,42.11-.22,34,1.12,89.44.88,126.31,1.54,11.44.09-11.4-.35,0-.26,7.93.16,11.9.38,25.94.44-20-.6-42.79-.77-58.31-.77-10.42-.3-40.55-.87-48.59-.67-8.77-.2-8-.42-19.41-.37,8.55-.4,22.91.29,35.61.19-2.81-.29-4.87-.15-13-.22-.29-.15,5.41-.33,0-.18-3.79-.18,8.66-.23,6.46-.46-2.92-.21-9.56-.36-19.41-.46-3.78,0-2.74.13-3.25.23-8.08-.12-13.31-.3-19.44-.46-7.47-.1-3.61.22-9.74.17,2.85.28,4.87-.16,13,0-3.51.45-29.88.38-19.46.86-7.9,0-19.16-.65-38.86-.71.51.16,11,.15,13,.29-15.59-.09-18.41.38-22.66-.2-1.7.18-2.31.12-13-.12a22.06,22.06,0,0,1,2.31,0l4.15,0c-7.22-.28-14.94-.28-22.66-.21,9.27.39-.26.53,6.45.94-52,.34-104.27-.66-178.11-1,3.42.24,13.13.33,25.9.41-10.54.27-33.3-.2-42.14,0-8.73-.12,7.43-.17,6.49-.33,2.35-.13-15.26-.2-13,0,7.94.27-4.83.17-3.24-.1-14.54,0-23.74,0-22.66.26l-12.95,0c11.26-.39-25.54-.31-22.69-.79l19.45-.18c-8.81-.15-44.52-.3-64.79-.32.36,0,14.43-.37,16.23-.62-4.76-.15-6.85.12-3.24-.26h-6.5c-13.56.46-10.32.87-32.36,1.15,1.8.12,5,.21,9.7.26,5.42-.12,20.6,0,19.45-.27,8.58.35-18.18.5-32.43.53,12.19.34-11.29.22-16.16.36,4.83.22,14.54.3,22.65.43l-42.06.54c-6.31,0-4.76-.4,3.21-.27-6.2-.24-16.84.13-25.9.1-3.5-.23-11.72-.27-13-.56,9.89.07,12.63-.09,19.45,0-1,.13-8.08.06-12.92.11,5.09.14,22.62,0,29.15.15,9.09,0-7.72-.24,6.46-.18.43-.16-4-.18-3.25-.35-35.39.06-53.46.33-81,.29-4.36,0-2.67.24-3.21.37-3.75-.11-9.34-.16-9.7-.39-15.62.18-22.12.09-32.43.44,12.88.34,22,.24,48.62.09-3.64.21-12.83.31-16.19.53-9.84-.15-21.57-.1-29.14-.11,5.48-.48-23-.45-6.5-.75-1-.12-8.12,0-12.95,0,5.12-.1,4.83-.31,12.95-.34-2.75-.11-8.16-.15-16.17-.07,1.37-.2,9.24-.22,6.46-.49l16.19-.08c-1.83.18-9.73.22-3.28.36,9.2,0,8.44-.16,16.2-.17-.51-.1-5.88,0-9.7,0,6.49-.22,27.08-.46,35.64-.36-6.54-.29,3.31-.29,13-.42-1.15.12-5.74.17-6.49.29,7.25.16,26-.18,29.14-.41-19.59,0-19.87.12-45.34.24-15.77-.21-14.83-.85-32.44-.79-3.93-.33,11.36-.53,13-.25,8.66,0,7-.31,16.16-.35-7.54-.27-37,.14-48.53,0,2.17-.24,17-.16,12.95-.52-16.49,0-.1.3-12.95.35-5.7-.41,33.73-.7,22.65-1l22.7-.12c-2.78.19,2.77.53,6.46.22,7.57,0-1.2.25-6.46.21,9.16.21,18.65.4,19.38.69.5.16,11,0,12.95.11,3.32-.08,3.39-.22,9.74-.23-.51-.1-5.92,0-9.74,0-.69-.2,22.94-.31,9.73-.49,9.46-.17,28.25-.53,35.61-.43V45l-19.37.08c.1-.35,1.83-.52-9.78-.3-2.1-.2,21.21-.28,16.2.09l9.74,0c5-.22,8.15-.43,19.41-.27,3.82.23-10,.38,3.28.35-2.16.26-7-.08-13,0,.4,0,2-.06,3.54-.08a27.64,27.64,0,0,0,3-.1c-2.38-.15-5.92,0-9.74,0-1.88.44,30.3.29,16.23.78,11.77.11,12.7-.43,12.92.09,12.66,0,10.1-.43,22.66-.45l-9.71-.26c.33-.17,12.67.15,13-.18-1.41-.13-4.15,0-9.71,0v-.35c20.32.08,29.41,0,48.57-.1-2.74-.13-8.16-.19-16.2-.17-14.79.22-43.59,0-71.26,0-.9-.23,1.19-.38,9.74-.35-4.4.56,14.9-.06,19.41.26,5-.28,18.08-.51,16.17-.71-2.64-.27-12.88.4-16.17-.08-8.19.17,3,.31-3.25.53-6.74-.11-8.87-.35-16.16-.44-7.11.34-13.57.16-32.44.31.42-.05,2-.07,3.55-.1a26.1,26.1,0,0,0,3-.11c-.4-.19-13.71,0-19.41,0,1.33.16,1.15.37,9.67.3-4.84.23-7.91.17-16.17.17-1-.2.54-.34,3.21-.45-12.3.26-36.66-.05-45.35.41.07.14,8.88.24,6.5,0,8.76,0-1.48.36-9.67.31V43.8l-22.7.12c12,.38-4.08.21-13,.42-10.39,0,3.14-.26,9.71-.22-4.1-.18-9.69-.19-15.91-.15s-13.07.24-19.67.36c.47.16,10.93-.07,12.92,0,1.59.67-26.91.87-29.14,1.47-2.6,0-5.23,0-9.71,0,1-.25,18.87-.58,0-.44,8-.36,13.2-.22,25.94-.47-.54-.1.68-.17,3.21-.22-.31,0-1.12,0-1.85,0a11,11,0,0,0-1.37.07c-6.81-.22-6.79-.81-29.18.07-7.08,0-13.21-.07-25.91.13l10.85.2,3.84.11a11.74,11.74,0,0,1,1.55.11c-3,.25-13,.39-22.72.53,7.93-.31-7-.43,6.48-.6-9.3,0-12.74-.15-25.9,0,4.62.12,12.3.11,13,.38-8.33.29-22.22.45-32.43.75,3.86-.06,11.12,0,19.45,0-.93.19-8.76.28-9.73.47-3.29,0-3.33-.19-9.71,0,2.64.51,19.88,0,32.44.12,12.19-.3,18.54-.7,19.4-1.18,2.59,0,3.24,0,6.45,0a16.94,16.94,0,0,0,3.29.05c-2.42.11-5.92.2-9.74.29,1.37.15,7,.14,6.46.36,30.56-.06-.17.76,38.86.08-3.61.18-10.5.3-9.7.55-20.42.08-11.21.51-19.44.22-5.7.09-7.36.24-6.42.43a20.65,20.65,0,0,0,2.3,0l4.12,0c-.65-.07-26.76.87-6.41.87,1.34.23-12.12-.08-12.95.23-5.92-.36-33,.11-38.93-.25-9.41.2-20.87.78-12.9.63-2.74.31-10.43.14-16.2.3,0-.17,8.84-.27,6.49-.47-.8-.21-5.59.23-13,.25-1.51-.16,4.62-.26,9.74-.36-1.63-.22-16.92.19-13-.28-5.81.09-6.82.23-12.91.32.36.22,4.69.26,12.91.11-7.39.23-9,.51-16.15.74-.57.21,11.48-.17,16.16-.21-5.08.22-3.59.46,6.5.23-5.91.34,1.41.24-3.24.59l-16.15.3c3.25,0,3.07.27,9.7.17l-35.62.93c6,0,15.8,0,0,.35,1.41.08,4.15.1,9.7,0-4.36.34-27.55.53-25.88.92-6-.08-13.32,0-22.65.25,1.69-.33,15.21-.57,19.43-.89-10.51-.06-17.24.58-29.14.84-.44-.33,16.37-.48,16.18-.77-4,0-11.14,0-19.44.25-13.72.81-20,1.63-55,2.44-6.45.24-7.42.47-12.93.7,4.62,0,33-.69,29.13-1,4.32-.06,6,0,6.46.18-23,.63-24.37.93-48.56,1.4-5-.18,11-.35,9.73-.53.53-.26-20,.61-19.44.35-1-.33,6.74-.23,13-.44-4.58,0-10.35.09,3.21-.26-5-.24-6.79-.2,3.23-.7-5.68-.24-11.19-.18-19.41.06l-14.72.46-20.9.78c2.91-.4,7.21-.27,12.94-.65-1.41-.11-7,0-6.5-.2,3.1,0,10.74-.22,13-.11,11.18-.31,13.51-.91,25.84-1,5.33-.5-22.55-.07-19.4.35-4.46.4-3.22-.22-3.22-.35-7.57.36-20.29.92-35.61,1.42-5.62.35-9.5.67-12.92,1l-16.18.58c2.08-.36,15-.69,6.46-.76-17.26.69-42.73,1.85-61.49,2.23-6.67.44-4.34.48-1.51.49s6.19,0,1.55.29c12.9-.51,9.73-.4,22.63-.82-1.38-.13-12.15.27-3.26-.4,2.59-.05,5.26-.1,9.73-.27-2.4.42,7,0,13,.06,5.65-.39,10-.44,12.93-.64,7.43-.3,3.58.12,9.71-.09,1.52.22-25,1.15-16.17,1-8.74.27-19.75.67-31.16,1.11l-17.18.7-16.37.87c-4.62.11-6.1,0-6.47-.22,6.88-.28,6.15-.41,6.43-.57l13-.6c-2.27-.1-2.5-.26-6.51-.4-19.81,1-25.76,1.29-45.28,2.2,5.75-.47,5.84-.82,19.39-1.43-2-.36-23,.89-32.36,1.41.77.12,5.6-.06,13-.42-13.86,1-19.34,1.89-38.75,3-.58-.21-18.72.34-25.87,1-7.32.36-7.08.08-16.19.59,4.78-.43,8.76-.66,12.79-.85s8.09-.34,13.07-.5c14.15-.84,10.6-1,16.15-1.27,0-.18-8.83.29-6.5-.05-9.62.45-4.09.6-9.67,1-3.53.15-2.2-.08-6.46.14,9.25-.78,2.09-.85-9.76-.23-.84-.31,15.51-1.11,16.15-1.4-2.44,0-13,.61-20.07,1.14s-10.71.9.68.36c-10.8.79-12.71.8-12.87,1.18-4.16.52-4.19,0,0-.26l-13,.75c7.1-.33,9.38-.17-3.22.54,4-.78-16.05.48-16.18.06,16.36-.82,23.24-1.7,29.1-1.69a16.4,16.4,0,0,1,3.23-.27c-12.26.46-20.57,1.06-38.83,2,2.79-.42,4.85-.38,12.92-.83-.31-.35-15.79.68-16.19.67-5.31.24-2.91.07.84-.18l5.82-.39,2.17-.16a7,7,0,0,0,.88-.1c-.51-.13-11,.58-12.94.58-13.34,1.14-11.7,1.21-16.11,1.89,2.14,0,6.93-.23,12.94-.57-10.47.71-46.94,3-48.51,2.73L588,69c4.69-.31,8.59-.56,12.19-.67,4.39-.28,2.69-.38,3.22-.54-10.19.55-11.41.82-22.61,1.4-.09-.2-8.82.49-6.5.08,4.32-.32,8.6-.56,12.92-.81-7.43.24-5.27,0,0-.52-7.9.18-15.43,1.28-22.58,1.84-13.9.8-10.74-.07-25.94.85-12.42.81-12.49,1.32-22.59,1.77-.94,0,15.19-1.06,6.47-.63,9.67-.81,22.7-1.73,33.25-2.48l13.24-1a41.05,41.05,0,0,0,5.16-.52c3.48-.24,5.48-.36,6.62-.39s1.42,0,1.42,0-1,.25,1.68.16c7.53-.41,12.42-.73,16.16-1-3.4,0-12.83.63-6.47-.07.53-.21-11.5.6-16.18.87,5.07-.48,3.69-.5.12-.35l-13.07.74c10.18-1.39-35.37,2.65-48.51,3-5.68.48-5.88.72-9.65,1.12-14.86,1.06-42.73,2.86-35.54,2.76-5.8.41-6.81.36-12.92.9,9.62-.93-8.49.25,6.43-1-6.73.38-13.18.8-22.59,1.71.95-.31-6.78.34-13,.82,5.38-.63-.3-.09,0-.35l12.94-1.08c-6.78.25-.16-.15,6.42-.8.24-.16-1.57-.21,3.17-.62-2.74.1-10.37.74-16.12,1.17-2.88.28-5.79.56-6.46.72.54.06,5.9-.42,9.68-.72-.32.49-14,1.14-6.4,1-19.52,1.76-51.72,3.8-74.31,5.69-8.77.81,8.61-.56,3.28.17L348,83.35c3.85-.52,3-.61-.87-.33s-10.6.91-18.54,1.71c.45-.28,13.42-1.51,22.58-2.36-1.48,0-2.89.08-6.48.42,3.72-.33,7.7-.61,11.81-.93l12.55-1c8.43-.67,16.81-1.33,24.07-1.85-2,.09-3.9.17,0-.17-.41-.16-13.7,1.11-19.32,1.53,2.33-.28,5.82-.62,9.63-1-8.88.58-22.84,1.69-35.68,2.74s-24.52,2.25-28.91,2.39c.45-.26,10.92-1.1,12.9-1.27,3.52-.36,2.18-.38,6.41-.8-2.13.09-6.91.51-12.91,1.09,5.37-.7-.3-.08,0-.35,9.89-.86,10.12-1.1,22.59-2.3,4.79-.33,5-.1,9.71-.39-2.72.37-8.08.82-16.12,1.63.82.1,5.31-.42,10.19-.84s10.11-.88,12.41-.89c10.23-1-.05-.58,22.57-2.42-1.88.34-6.19.82-12.84,1.43,4.6,0,19.92-1.75,25.81-1.9,15.08-1.63-24.55,1.78-3.27-.17-1.58-.14-14,.91-16.2.83,2.63-.2,3.25-.18,6.48-.45,4.78-.44-1.26,0,0-.26,9.6-.83,11.43-.65,6.48-.11,14.6-1.24,7.24-.82,22.62-2-9.83.71-11.35.72-3.24-.17-2.1,0-15.15,1.21-16.21,1.1-4.71.47-10.21,1-9.65,1.16-8.19.64-13,.91-18.61,1.27l-9.54.66c-3.73.3-8.18.59-13.86,1.2-2.9.47-8.92,1.16-12.86,1.7-6.43.64-4.12.17-12.92,1.1.67-.28,13.09-1.61,0-.44,7.85-.83,16-1.63,23.79-2.35s15.15-1.21,21.38-1.69c8.34-.72-4.44.22,0-.35,10.14-.89,8.58-.48,16.17-1.09,13.67-1.2,11.89-1.19,9.67-1.33-8.48.8-19.82,1.76-32.3,2.79,1-.3,15.28-1.33,12.89-1.43,18.48-1.59,28.83-2.15,51.67-4.15-.27-.21-13.82,1.06-9.68.37,12.46-.93,22.94-1.81,34.76-2.8,5.9-.48,12.14-1,19.14-1.55l23.65-1.53c-4.54.81-28.08,2.1-35.57,2.63-2.84.28-5.75.56-6.43.72l13.41-.89c4.45-.32,8.94-.52,13.6-.83,9.31-.59,19.32-1.31,31.19-2.32-2.53.1-3.51,0-3.27-.13,20.23-1.62,31.73-2.24,48.52-3.31,1.19-.53,25.48-2,25.8-2.69-1,0-8.11.49-12.94.82-3.81.28-2.72.35-3.22.49-11.46.66-11.88.45-22.68,1.24,7.09-.64,17-1.31,26.62-2L590,60c.92.21-13,1.08,0,.44-.36.08-2.77.23-5.1.37l-3.16.21a9.43,9.43,0,0,0-1.43.15c5.16-.15,12.07-.73,19.4-.94-1.39.21-2.84.15-6.45.37-5.58.35,4.24.06-9.71.83,1.42.08,7-.19,6.51.06l-11.27.67L566,63c-8.53.56-16.59,1.05-21.23,1.23-3.22.53-9.35.88-19.4,1.45,2.28.11,2.28,0,0,.44,15.34-1,3.59-.37,9.67-1,11.46-.66-.7.46,13-.38,3.62-.68,1.8-.24,16.17-1.14,4.11-.3,4.2-.55,0-.26l16-1.13c4.31-.28,7.74-.53,10.69-.78,5.92-.48,9.94-.93,15.33-1.49,4.76-.24-1.29.18,0,.26,6.74-.35,8.54-.55,12.93-.83-11.81.18,4.55-.14,16.18-1,2.79.2,27.2-1,25.87-1.5-8.78.61-12.67,1-12.94.58-11.75.83-26.64,1.54-25.91,1.06,11.79-.7,12.36-.84,22.64-1.31-2.37-.18-26.53,1.49-32.38,1.61,9-.78,29-1.89,35.58-2.59,6.72.08,49.29-2.43,74.47-3.37,8.15-.36,24.12-1.39,22.66-.88L712.8,53.65l-15.94.7L680.54,55c-1.56.62-26.93,1.45-29.1,2.12,9.37-.46,19.29-1,29.37-1.59L696,54.71,711.1,54c20-.91,38.94-1.7,53.69-1.92,7.57-.38,12.15-.7,22.64-1.13-2.38,0-5.88.14-9.74.27a16,16,0,0,0,3.27-.41c9-.2,16.74-.66,22.63-1.23-18,.63-29.06,1.29-48.58,2.08a16.59,16.59,0,0,1,3.25-.24,16.91,16.91,0,0,0-3.25.07c1.86-.27,12.22-.45,19.44-.82,8.76-.43,5.79-.64,12.92-1,9-.37,8.28,0,19.46-.55,13-1,39.55-1.16,48.55-2,5.77-.13,8.23,0,19.45-.52-2,.36-21.82.9-29.14,1.31,12.2-.26,41.27-1.42,48.58-1.93-4.45-.27-13.34.63-19.44.62,22.23-1.46,34.13-1,48.6-1.5.55.2-5,.46-9.73.7-25.26.69-60.43,2-87.44,3.17,9.08-.57-7.37,0-12.93.11-6.64.27-6.34.52-13,.84,9.24-.23,18.38-.26,32.41-.66-5.2-.15-5.19.08,0-.44,17.21-.44,39.09-1.72,42.1-1.26,4-.18,6.63-.35,6.49-.5,6.62-.06,14.5-.25,23.28-.51s18.43-.68,28.64-.93l64.69-2c-32.09.63-56.77,1.32-71.27,1.83-7.62.12,8.25-.52,12.94-.7,14.66-.15,27.36-.64,42.07-1.22-7.36.05-19,.33-32.37.7,11.68-.58,15-.41,19.44-1.05,4.66.07,15.16-.18,25.91-.43-8.19.07-4-.31-3.26-.62,10.17-.31,8.55,0,16.21-.17-3.18.33-8.67.11-13,.44,1.34.16,17.18-.46,19.42-.35,2.41-.34-8.92.07-6.47-.27,12-.07,8.77-.28,22.66-.52,3.83-.12,2.74-.23,3.25-.35-6.21,0-16.9.27-25.92.44-3,.14-4.91.29-6.49.43,3.24-.5-37.65.8-58.33,1.31,1.55-.32-4.62-.22-6.5-.35-9.47.1-36.74,1.33-19.41.78-12.73.69-5.35-.11-19.43.35-2.76.4-27,1-25.89,1.37-9.09.35,4.64-.61-3.29,0-4.73.13.32-.09,0-.18L797,47.35c.56.51-15.62.62-25.89,1.38-12,.2-25,.92-42.1,1.78,1.18-.2-2.53,0-6.47.13-4.23,0,9.47-.81,0-.44,3.35-.27,12.42-.22,29.15-1.18,2.59-.43-4.85-.11-3.27-.46l9.7-.45c6-.13-1.39.32-3.22.58,11-.19,37.7-1.64,48.59-2.08,7.29-.39-3.94,0,3.24-.41-9.17.35-8.37.51-16.2.84,2.41-.38-8.88.24-6.51-.14,12.36-.48,22.44-1,31.36-1.28l24.38-.9c15.41-.59,30.59-1.19,54.42-2-1.93.35,6.08,0,0,.44,15.84-.5,15.69-.85,22.65-1.26,5.38-.09,19-.52,29.16-.78.66.24.41.47-9.73.7-2.09.41,12.35-.08,22.71-.34-5.17-.22,2.39-.93,22.64-1.4-29.62,1.17,17.89.56,22.72.09,7.87-.17,6.9.15,19.46-.27v.53c7.73-.17-1.81-.35,9.7-.52-2-.13-6.25-.13-13,0-1.55-.24,5.88-.47,3.27-.71,18.52-.6,28.92-.57,45.34-.9-.9.22.8.32,6.5.23,16.93-.54,41.15-1.1,58.33-1.09,4.55-.11.25-.16-3.25-.11,6.75-.33,13.51.13,26-.4,2.38.22-11.23.32-6.49.56-7.12-.24-21.77.3-32.42.34-.43.17,4,.11,3.25.29,14.72-.52,37.19-.28,45.37-1,16.75,0,18.19.07,38.88-.1-2.64-.38,22.59-.23,19.42-.49,14-.53,18.23.33,0,.44l22.74.18c-.57.11-6,.14-9.78.2,7.44.22,11.51-.34,22.7-.35-4.52.22.27.23,7.85.16l24.57-.14c-4.26.35-24.26,0-32.41.51,1.38.17,16-.16,22.7-.11-7.25.32-32.48.49-35.62,1-9.2.17-8.44,0-16.2.09-1-.13,3-.18,3.21-.29-11.3.08-11.33.35-16.2.53-11.59.13-3.58-.5-19.46-.21,7.61-.62,23.68-.47,42.12-.66-9.93-.31-22.71,0-35.63-.12-3.79.06-2.74.19-3.21.3-11.44-.06-26.84.08-41.4.21s-28.3.44-36.43.4c-.21.2-4.72.31-11,.41s-14.24.18-21.4.37c-9.56.3-13.09.65-22.69,1,7.33-.2,44.69-.41,61.57-1.24,1.2.31,3.11.32,9.76.52-5.16.1-12.38.18-13,.33,12.31,0,25.66-.45,35.62-.45-6.82.36-21.58.49-32.37.74,23.7-.19,44.49-.37,65.57-.65s42.45-.59,67.28-.72c-14.69-.26-31,.13-64.82.4,7.45-.31,23.49-.49,40.18-.65s34-.36,44.09-.52c4.66,0,1.12.26,6.42.23-.82.18-14.29.1-12.91.33s17.18-.09,19.41.07c-6.73.18-19,.16-30.7.3s-22.94.26-27.61.49c8.12,0,22.69-.19,9.78.24-.61.15,21.15-.07,16.16-.28a16.86,16.86,0,0,1,3.22,0c-.62.09,1.3.07,3.28.06-.86.19-14.25.18-16.2.36-.61.2,2.64.25,9.71.15l-9.7.64c-1,.21,9.35,0,9.71.15,9.56-.39,13.09-.38,22.66-.18a4,4,0,0,1-1,.08l-2.66,0-7.75,0c-5.43,0-10.28.09-8,.25-12.85,0-8.41.12-25.91.3,6.79.09,15.49.11,25.91,0,2.39.25-5.55.33-3.2.57,10-.18,9.92-.48,19.44-.6-.61-.14-15.4.23-13-.18,10,0,12.12,0,3.21-.12,10.1-.26,16-.15,25.94-.31-2.42-.07-5.92-.1-9.78-.12,3.06-.49,37.35-.31,32.44-1-13.14,0-10.25.25-19.45.28-5.6-.12,4.76-.37-9.71-.3,1.41-.14,10.18-.13,6.49-.38,8,.11,20.9-.42,32.38-.26a40.79,40.79,0,0,1-6.5.73c8.23.66,63.77.18,58.36,1.18,11.76,0,1.44-.44,16.17-.29,6.27,0-5-.32,3.24-.44,12.23,0,17.43.17,19.42.44,8.77-.16-6.21-.44,6.49-.53-20.5-.09-10.72-.51-25.91-.78,5.52-.13,15.09,0,25.91-.1,2.42.27-11.19.11-6.49.44,5.34.23,28.11.31,25.9-.18,11.37.12-5.23.66,3.29.7-11.08.45-16.17.62-9.71,1.14,15.37,0,26.49,0,35.58-.18a14.41,14.41,0,0,1-3.21-.26c-7.79,0-7,.16-16.2.09-.47-.16-2.13-.29-6.46-.35,9.06-.2,27.32-.14,22.66-.71,11.91.3,13.46-.23,32.37-.08-3.17-.26-14.76-.25-9.7-.71,5.05.09,12.66.3,19.44.13-1.15-.11-5.7-.16-6.45-.28-4.8,0,1.26.11,0,.26-8.12-.44-21.76-.13-25.95-.55,4.51.12,13,.1,20.91.09s15.41,0,18,.07c-3.58-.28-13.24-.47-23.65-.5s-21.59,0-28.17.17a17.79,17.79,0,0,0,1.86.06l1,0a2.45,2.45,0,0,0,.41,0c6.57,0-10.57.8,0,.61,8,.08-4.18.35-9.7.36,7.21-.32-7.55-.76-6.5-1.05-10.86-.09-5,.27-6.46.44,8,0,5.48.1,0,.08-4.48-.11-3.21-.38-3.29-.61-21.65-.19-33.38.32-38.86-.17,5.85.15,19.88,0,22.7-.18,6.89.28,36.3.39,35.65-.18h13c-16.49.45,11.66.32,29.16.37,7.8-.27,5.16-.36,3.21-.69,14.73-.16,21.62-.28,19.46-.63,8.84,0,6.53.17,13,.05,2.28-.31-11.36-.26-16.2-.41,2.38-.15,5.92,0,9.71,0,9.63-.3,30.6.27,48.61-.08,7.72.09,5.3.41,19.45.34-15.84.36,5.48.6,16.16.86,3.65-.16,14.29-.09,22.7-.1,11.77.16-20,0-6.49.22-3.18.22-8.63-.19-13,0,7.58.35,3.72.29-3.25.51,5.66.31,21.69.32,35.65.34-2.31.3,11.37.29,16.2.46,6.78,0-4.69-.37-3.24-.55-13.54,0-21.94-.2-29.16-.38,3.94-.13,19.92.24,32.41.23,8.8,0-8.63-.23-3.25-.46,8.27.15,13.86.36,16.2.64,6.13-.12,21.4.08,32.41.13-2.42-.4-25.55-.19-29.16-.37a15.56,15.56,0,0,1,1.85,0l1,0a2,2,0,0,1,.42,0c5.7,0,7.36-.1,6.46-.31,17.86.49,43.92.42,61.56.75.54-.24-10.93-.27-6.49-.58-7.94,0-18.69,0-19.45-.35,11.84,0,17.28.21,22.69.38,14.12-.17-22.58-.51-3.24-.56-4.91-.17-14.18-.27-22.66-.38,4.15-.08,9.85-.09,0-.26,10.36-.13,35.08.24,38.87.52,5.84-.19,25.51.11,35.65.06-15.05.09,5.41.3,12.95.47,3.79-.1,13.46,0,13-.23,9.74.34,22.58.28,38.86.64-6,.1-5.92,0-3.22.31-2.92,0-7.36,0-13,0,10.82.38,31.89.55,55.06.64-1.37.13-10.18,0-6.46.29l-19.42-.2c.83.23,12.13.42,3.21.56,3.75,0,5.77.08,6.49.15,2.86-.29,13.79.2,13-.13,5.78.05,6.82.18,13,.22-2.09.16-15.15-.09-16.2.1,2.85.33,13,.11,22.69.4-16.13.06-15.52.63-32.4.29-8.84,0,8.58.25,3.24.47-23.27-.15-1.22-.85-25.94-.79,14.62,0,6.86-.38-9.73-.53-2.6,0-5.24,0-9.71,0,1.44.09,2.85.18,6.49.24-5.09.27-4.83-.26-13-.22-2.85.1-4.73.54,3.24.82.86.3-12.56.07-13,.32-.72-.34-8.94-1.28-19.44-1.22-10.43-.2,3.14-.23,9.71-.09-2.74-.16-10.39-.22-16.16-.32-4.26,0-5.13.1-9.75.08.43.17,2.17.32,6.49.41-3.5.18-20.85-.58-12.95.06-11-.2-12.26-.67-25.94-.58a15.12,15.12,0,0,0,2.48.15l5.71.09c4.34.06,9.18.1,11.26.2,1,.23-4.48.24-13,.14,6.53-.16-8.51-.49-19.45-.61,6.93.31,18.59.54,19.45,1,9.88.1,7.76-.24,19.45-.09-7.66.19,6.2.39,0,.44-4,.06-6.67,0-6.49-.14-3,0-4.91.11-6.46.2.47.17,10.93.15,13,.29-1.23.34-17.24-.29-16.2.21,8.62-.31,43.94.73,55.06.41-21.79-.41,24.72-.24,16.21-.73,6.24.22,2.56.18,12.91.22,2.85.3-8.37.09-9.71.25-3.75.26,18.11.59,13,.13,7.83.13-1.52.55,9.7.62-9.56.35-14.61-.11-29.15-.11,1.41-.1,4.15-.15,9.71-.08.14-.15-2.38-.26-6.46-.33-10.5-.2-2.49.26-13,.06,4.77.25,6.82.22,3.25.46-8.84-.08-6.57.09-13-.11,4.25.35,31.28.4,38.89.72,7.43.07,26.27-.18,13-.31,1.77-.29,20.24.05,22.66-.21-3.25-.25-14.33,0-13-.4,2.89.1,7.32.17,13,.22-.43-.16-2.12-.31-6.45-.41,5.49-.17,16.27.3,13,.57,17-.15-2.23-.51,6.46-1,1.89-.32,7.58.42,0,.26,19.45.54,39-.06,61.56.36-1.15-.12-5.7-.19-6.49-.33-3.29,0-3.32.17-9.71.08,3.07-.49,19.09,0,13-.48,6.34.45,13.27.35,22.69.76,3.35-.17,12.59-.12,16.2-.27-3.21-.16-8.65-.27-13-.4,16-.28,37.12.41,55.09.48,2.24-.22-6.74-.24-9.7-.37,12.88-.15,21.07.85,48.56.85,3.72-.41-15-.39-16.2-.51.62-.48,18.08.47,19.42,0,4.69.16,4.94.39,9.73.54,12.63,0,.51-.3,3.26-.58-11-.14-26.27-.2-32.4-.42,8.15-.06,25.22-.11,32.4.07-3.61-.15-2.85-.21,3.25-.14-1.44-.1-2.85-.19-6.49-.25,5.52-.07,11.76.16,22.69.15,3.72.17,3.71.26,0,.35,2.74.16,10.43.23,16.16.34,7.54-.39,34.35.59,38.86,0,21.39.53,56.28.91,71.3.91.12-.18-4.81-.23-9.74-.27l-6.76,0c-1.83,0-3,0-3-.08-3-.38,17.53.29,22.66.06-1-.13-8.08-.16-13-.22-12.23-.3,15.48.18,13,0,8,.2,5.7.36,3.24.56,9,.3,49.17,1,58.27.6,7.8,0-1.77.38,9.78.36,5.34.09-.32-.33-3.25-.39C2328.88,43.49,2336.56,43.87,2342.3,43.88ZM816.43,46.17l29.15-1.06c1.19-.07-35.44,1-38.87,1.26C810.54,46.22,814,46.18,816.43,46.17Zm100.42-3.64c.4.06,4.39,0,8.72-.13s9-.22,10.69-.38c-.38-.06-4.37,0-8.7,0S918.57,42.37,916.85,42.53Zm1535.63-.23c8.37.1,22.95,0,13-.31C2467.88,42.34,2448.23,41.87,2452.48,42.3Zm19.41.2c7.54.12,22.33.08,13-.14-2.09.25-6.88-.15-13-.13Zm77.75.79c-13.53.05-18.11-.29-29.15-.21C2529.29,43.21,2550.51,43.77,2549.64,43.29Zm369.23,5.11c-2.63-.29-9.09-.3-3.24-.56-26.05-.5-46.32-.66-68-1.31C2858.52,47.37,2906.72,47.58,2918.87,48.4ZM2812,46.6c-3.82,0-3.54.11-3.25.23,14.72.2,17.07-.06,25.91-.08-8.7-.18-19.19-.32-25.9-.53C2802.27,46.33,2807.9,46.44,2812,46.6Zm-81-.83c14.69.06,30,.7,35.65.37C2752.62,46.07,2735.09,45.47,2731,45.77Zm-93.92-1c-9.92,0-9.52-.25-19.44-.29C2617.29,44.77,2636.59,45.07,2637.09,44.81Zm-142.52-.42c3.6.37,51.95.75,42.1.35-16.74-.14-51.41-.35-58.3-1-3.17.29-16.63.2-22.7.38-5.7-.22-10,0-12.91-.31,1.3-.15,12.55.06,9.7-.25-.43-.23-4.72-.39-12.94-.48-3.72.24,5.08.26,6.45.42-14.29-.29-31.07.11-45.35-.21-4.26.18,12.8.41,3.2.39-10-.23-12.55-.12-19.37,0,21.43.24,36.62.43,38.86.14-.63.18,13.22.42,29.21.58S2486.65,44.56,2494.57,44.39Zm375.74,3.51-9.74-.1v-.26c-4.83,0-11.94-.15-13,0,2.53,0,3.79.12,3.22.21C2859.16,47.69,2866.3,48.13,2870.31,47.9Zm55.05.74,13,.14v-.44l-13-.13Zm-317.43-3c18.15.33,39.65.52,51.85.26C2638.92,45.89,2625.79,45.61,2607.93,45.65Zm38.86.57c15,.21,23.38.17,29.15,0C2664.11,46.17,2655.74,46.2,2646.79,46.22Zm42.1.43c9.13.32,18.55.11,25.91.09C2702.68,46.56,2694,46.41,2688.89,46.65ZM1095.05,38.89c9.92-.25,11.8-.13,19.45-.28,1.78-.2-3-.2-8.32-.11-2.65,0-5.41.11-7.52.18A29.63,29.63,0,0,0,1095.05,38.89Zm45.4-.67c11.73-.31,2.72.34,12.93.1,4.4-.29,24.36-.27,25.95-.58-13.75.19-16.5-.09-26,0C1158.57,38,1139.4,38,1140.45,38.22ZM981.66,41.94c9.63-.26,19.74-.53,19.45-.79C991.22,41.41,984.61,41.67,981.66,41.94Zm2005.21,8.21c12.59.18,25.29.57,29.15.21C3007.33,50.21,2994.92,50,2986.87,50.15ZM1827.28,38.55c3.33-.27-24.31-.43-25.9-.32C1809.14,38.35,1816.14,38.49,1827.28,38.55ZM3171.49,52.84c14.82.28,38.13.86,48.6.5C3212.7,52.7,3181.81,52.49,3171.49,52.84ZM1568.12,37.33c5.59.05,8.33-.1,9.74,0,.39.16-3.22.2-9.75.14v.35c14.58-.27,17,.11,29.16-.24-6.56-.09-13.2-.31-6.49-.46-11.73.06-25.55-.27-29.12-.11C1566.24,37.08,1565.34,37.24,1568.12,37.33Zm207.35,1.28c3.75.33,6.42.2,3.24.56,21,.6,10.9-.12,19.41.08,2-.26-11.65-.22-3.21-.38C1788.28,38.75,1782.07,38.48,1775.47,38.61ZM1040,41.42c8.88-.1-6.35.43,6.46.22,4.8-.17,15.88-.73,6.49-.73C1050.79,41.28,1042.23,41,1040,41.42Zm48.57-1c26.46-.23,29.12-.78,0,0Zm1056.1,2.32c-5.52-.09.65-.11,0-.26-8.27-.08-16.67-.16-16.17.09C2136.56,42.53,2144.24,42.92,2144.71,42.73Zm71.3,1c32.76.24,42.31.66,64.76.58-5.38-.06-1.84-.26-6.49-.33-10.07-.07-32.3-.06-45.36-.2-.35-.23-6-.37-9.7-.54C2215.51,43.3,2215.54,43.5,2216,43.72ZM1085.37,40.91c13.28-.34,25.49-.18,26-.66-7.55.17-12.45.22-16.24.22C1100.13,40.68,1084.11,40.73,1085.37,40.91Zm1237.51,3.74c.36.09-14,0-3.29.23,9.46-.13,28.61.54,29.19,0-15.87-.23-41.85-.68-64.76-.66-.26.15.68.28,3.24.38C2304.83,44.73,2308.84,44.39,2322.88,44.65Zm-1341.17-1c13.45-.62,34-.69,38.85-1.31C1006.3,42.58,987.87,43.23,981.71,43.69Zm55.09-1.84c-6.46.18-4.12-.12-13,.18a28.88,28.88,0,0,1-3,.17c-1.51.06-3.13.12-3.54.18C1019.59,42.39,1035.43,42.09,1036.8,41.85Zm554-3.38c-1.08-.21-2-.42-12.92-.41Q1578.45,38.41,1590.77,38.47Zm116.67.72c-4.3,0-3,.13-6.5.13-2-.31-22.84-.1-9.71.11,5.16-.21,14.58.22,25.91.18.19-.16-2.49-.2-6.49-.13V39c-5.78,0-13.42-.35-16.17-.11C1696.47,39.06,1706.93,39,1707.44,39.19Zm22.66.51c9.2-.07,16.45.26,19.45-.1-5.74-.07-16.24-.06-13-.29,4.73,0,16.78.25,16.24.06-3.86-.14-11.48-.21-19.45-.26C1733.49,39.37,1723.82,39.49,1730.1,39.7Zm-670.62,2.57c1.47-.3-6.93-.15-16.21,0C1041.8,42.62,1050.21,42.46,1059.48,42.27Zm6.49-.2c2.08,0,6.92,0,11.24-.12l5.7-.16a14.15,14.15,0,0,0,2.48-.18C1074,41.9,1068.71,41.7,1066,42.07Zm544.25-3.26c18.8.08,25.23,0,38.9.33C1652.59,38.77,1611,38.48,1610.22,38.81ZM677.4,56.35c4.43-.26,7.1-.37,9.69-.47,5.08-.43,3.59-.6-6.5,0A13.86,13.86,0,0,1,677.4,56.35Zm126.24-5.71a28.48,28.48,0,0,1,2.94-.23c1.52-.09,3.13-.18,3.54-.24-13.92.69-3.52-.39-19.45.46A128.85,128.85,0,0,0,803.64,50.64Zm382.22-10.43-28.45.46c-8,.22-14,.5-16.9.88,6.26-.18,11-.25,15.06-.32s7.4-.09,10.84-.27c-1,.24,12.56-.08,9.71.24-12.08.14-9.23.2-19.41.22,6.94.38,3.36.23-6.48.73,10-.2,9.24.14,22.66-.13,3.1-.2-9.71-.18,0-.35a93.06,93.06,0,0,0,9.7.15c.07-.29,4-.42,10-.51L1215,41.1c7.11-.27-4.19-.21-3.29-.49,20.75-.25,7.11-.13,0-.18,9.67,0,26.56-.39,16.2-.44-1.84.2-20.93.35-19.42.13l19.42-.22v-.35l-72.61.75c-25.1.44-49.21.92-66.69,1.43l56.82-1.06c8.63-.17,16.57-.25,23.43-.31ZM719.49,54.64c20.15-1,34.11-1.52,48.54-2.08-3.87-.08-.88-.26,3.22-.68-11.35.67-10,.64-29.13,1.53-6.79.1,5.1-.69-6.47-.14C735.77,53.62,723.08,54.22,719.49,54.64ZM399.35,75.7c2.25,0,24.67-1.77,25.84-2.16-7.45.64-3.59,0-9.7.54C416.08,74.28,394.36,75.74,399.35,75.7ZM596.51,61.29c.89.41,21.65-1.33,25.91-1.32-2.35-.13,3.27-.51,3.18-.71-4.83.29-11.93.65-12.93.83C628.17,59.24,608.48,60.74,596.51,61.29ZM1684.73,39.91c4.48,0,7.15.09,9.75.16,1.87-.17,6.78-.24,9.71-.38-7.55,0-12.42-.1-16.21-.2C1689,39.71,1687.44,39.83,1684.73,39.91Zm-6.45-.31c-11.26,0-12.49-.22-22.7-.24-.22.35,10.57.48,6.49.92,9.78,0,14.59-.11,17-.28s2.36-.37,2.45-.46A15.81,15.81,0,0,1,1678.28,39.6ZM667.73,57.35l-4.17.26a22.46,22.46,0,0,0-2.32.2c2.89-.05,21.48-1.22,12.93-.92,3.82-.24,9.19-.52,9.69-.65-3.82.12-11.43.56-19.39,1A14.06,14.06,0,0,0,667.73,57.35ZM713,54.94c4.13-.48-16.43.39-19.41.74C697.71,55.59,708.88,55,713,54.94ZM1723.63,40.18c4.22.19,35.51.29,19.42-.11C1744.6,40.38,1725.48,40,1723.63,40.18Zm-949.12,12c9.48-.57,12-.46,16.18-.93-7.78.4-7.07.17-16.19.67Zm55-2.44c-25.84.61-22.64,1.18-32.37,1.65,2.21.09,11.91-.17,3.27.46l11.69-.53c4.09-.15,7.53-.27,7.75-.18-5.34.19-1.83.31-6.45.5l-9.74.32c-1,.23,4.37,0,6.5,0-9.33.41-16.47.78-19.42,1.07,5.66-.21,19-1,19.44-.81-15.39,1-37.83,1.65-48.55,2.52,10.17-.31,34.46-1.66,35.59-1.31,3.17-.26,10.92-.62,13-.86-.17.16,2.46.14,6.47,0-.39-.23,7-.54,16.48-.87L862,50.75c-7.55-.08,3.85-.39,16.21-.85-3.25-.16,17.19-1,6.44-.76-1.33.15-4.18.33-9.69.52a15,15,0,0,0-3.22-.14c16.84-.54.56-.28,12.9-.82-3.75.12-3.51,0-3.22-.15-6,.15-13.1.36-16.21.32-2.8.36-4.86.28-12.94.56-1.31-.18-5-.35-19.47.09-1,.43-19.28,1.18-22.64,1.17C813.41,50.24,825.07,50,829.54,49.73ZM1111.35,42c4.29,0,14.4,0,19.41-.28.72-.18-3.64-.13-3.25-.29C1121.88,41.63,1110.12,41.76,1111.35,42Zm12.92,0c-7.79.21-15.66.36-22.66.33.29-.14,8.26-.22,6.49-.38-6.21,0-5.88.16-16.2.3C1090,42.69,1117.46,42.59,1124.27,42Zm-84.18,1.75c7.72-.21,23.49-.33,25.91-.58-10.11,0,7.53-.45,9.7-.62l-35.62.68C1043,43.45,1043,43.46,1040.09,43.78ZM910.54,47.5c4.29-.22-1.63-.18,3.2-.56l-19.41.62C900.4,47.49,902.49,47.68,910.54,47.5ZM425.27,74.58c0-.17,8.84-.85,6.45-.89-7.48.66-12.41,1-16.16,1.27C416.66,75.07,418.93,75.05,425.27,74.58ZM625.66,60.31c-10,.46-23,1.19-35.57,1.88C592.93,62.43,612.05,61.14,625.66,60.31ZM447.88,72.52l4.13-.33a21.55,21.55,0,0,1,2.32-.13c3.1-.09-9.65,1.11,0,.35,4.84-.49,7.89-1,16.13-1.52.9.21-1.85.58-6.26,1S453.73,73,448,73.56c10.17-.87,7.31-.38,19.36-1.39,4.81-.56,13.34-1.28,22.62-2-6.53.34-11,.48-13,.38,4.1-.28,4.47-.2,9.69-.59C484.51,69.57,460.63,71.13,447.88,72.52ZM661.3,58.86c7.42-.52,9-.86,16.16-1.37a49.32,49.32,0,0,0,5.66-.11c3.29-.14,7.6-.38,11.81-.62,8.42-.41,16.4-.9,14.85-1.06l-14.39.6-15.81.88-31.26,1.73C651.37,59,658.44,58.75,661.3,58.86Zm560.15-17.92c9.32-.23,16.5.05,19.46-.23-8.59-.12,14.39,0,13-.32C1243.14,40.46,1227.62,40.54,1221.45,40.94ZM506.08,68.57c8.19-.41,33.17-2.24,12.92-1,8.23-.73,11.31-.69,16.13-1.22l-19.39,1.19c-.74.2,3.31.2-6.42.8.32-.14,6-.91,0-.26C509.13,68.2,505.17,68.49,506.08,68.57ZM800.44,52c-6.35.11-12.09.19-22.69.61.3.14-.67.31-3.19.5,7.31-.35,14.26-.24,19.4-.72C778.84,52.79,800,52.15,800.44,52ZM645.12,59.8c-4.29.24-3,0-6.46.2-4.89.47-10.25,1-19.4,1.55,7.57-.41,1.9.28,0,.44,14.88-1,16-.66,32.31-2-3.75.2-3.5.06-3.22-.08-8.11.36-10.16.63-12.94.66C639.25,60.27,642.75,60,645.12,59.8ZM1930.89,45.36c6.14-.13,12.16-.2,13-.31,6.2.1,5.88.31,16.2.34-4.47-.32,8-.45,0-.61-5.3.19-15.87-.72-12.94-.66,4.07.08,6.6.18,6.49.33,22.8-.15,30.2-.58,55.07-.49-30.31-.3-39.19-.3-51.85-.62-4.44.16,8.33.42,0,.35-12.34,0-.61-.4-13-.39-1.81.19-4,.35-13,0-11.8.14-28.47.11-38.87.31.36.26,17,.75,3.25.73-.58-.14,1.15-.31-3.25-.38-.9.17-12,0-13,.13,5.7.08,7.36.22,6.49.41-17.29,0-27.39-.15-48.6-.38,2.55.71,32.47.45,48.59.65v.35c-10,0-6.24,0-16.2-.17-.44.47,19.81.4,22.66.23.25.16-.72.27-3.25.32,15.84.28,36.51.27,55.06.64,1.41-.15,7-.15,6.5-.37C1934.64,45.4,1948.28,45.57,1930.89,45.36Zm-897.28-.79c1.65-.36-29,.58-32.4.79C1012.58,45.25,1020.69,44.77,1033.61,44.57Zm35.61-.72c2.08,0,6.92,0,11.26-.12l5.71-.16a14.15,14.15,0,0,0,2.48-.18C1080.59,43.48,1075.35,43.56,1069.22,43.85ZM415.65,76c-1.89.48,9.59-.53,19.4-1.36,1.36-.28,6.93-.8,6.44-1C422,75.22,437.78,74.27,415.65,76Zm909.49-35.32c-.87.36,24.68.25,19.48-.19C1334.7,40.48,1332.79,40.64,1325.14,40.68ZM959.13,47c2.16,0-9.19.57-3.2.52,0-.21,8.8-.2,6.46,0,9.8-.49,35-1,32.38-1.48-25.57.89-31,.68-48.61.95C940.15,47.57,957.82,46.85,959.13,47ZM1309,41.12c.54-.11,5.09-.12,9.67-.14,2.27-.25-6.68-.13-9.67-.21C1308,40.83,1300.89,41.15,1309,41.12ZM515.83,68.76c-2.4-.13,11.87-1,12.9-1.26C519.57,67.93,500.44,69.68,515.83,68.76Zm485.39-23.05c-2.34.33,5.6.1,3.26.44,10.9-.32,12.91-.65,16.15-1C1016.51,45.18,1005.37,45.48,1001.22,45.71Zm832.52-2.37-32.4-.81c3.25,0,3.86,0,6.49,0,4.84.18,18.44.29,16.17,0-22.23-.07-38.35-.55-48.57-.18,8.26.17,17.68.33,22.66.56-3.82,0-7.33,0-9.71.08,15.77.17,15.15.41,25.91.33,4-.25-10.47-.16-6.46-.41C1816.63,43,1825.87,43.72,1833.74,43.34ZM891.1,49.17c7.79-.32-1.76.46,9.78-.1-.77-.49,4.62-.14,16.15-.67,1.22-.31-11.8.28-12.95.12C903.76,48.86,891.45,49,891.1,49.17ZM1503.33,41c9.41.25,21.1.45,35.61.58,5.6-.44-12.41-.59,0-1-8.8,0-25.69-.21-29.12,0C1525.12,40.82,1507.69,40.91,1503.33,41Zm-1149,40.47c7.55-.61,13.93-1,16.14-1.44C366.31,80.28,354.62,81.24,354.32,81.49ZM586.94,63.86l-4.15.26c-1.28.09-2.26.16-2.3.2,9.6-.43,11.67-.23,25.9-1-3.66-.15-7.19.08,0-.62-10,.7-18,.78-22.66,1.31A16.18,16.18,0,0,1,586.94,63.86ZM1066,45.13c13.34-.35,22-.75,32.35-1.13-14.61.38-7.26-.25-22.66.16C1075.7,44.61,1071.48,44.64,1066,45.13ZM406,77.43c4.18-.23,14-1.09,22.6-1.81C427,75.47,408.67,77,406,77.43Zm880.26-35.66c8.08.24,24.57-.4,9.7-.41C1295,41.55,1289.49,41.63,1286.28,41.77Zm103.67.77c2.78-.29-5.09-.27-6.46-.42,7.18-.11,12.6-.2,22.66-.2-4.83-.2,1.12-.38-3.24-.44-.62.13-7.84.08-13,.09a14.41,14.41,0,0,1,3.21-.26c-9.64-.06-9.6-.35-22.66-.26,2.35.26-3.32.34-3.21.55,7.87-.13,10.72.33,6.5.31-10.22-.08-20,.08-22.7.39,10.14-.19,17.86-.07,22.7.14-4.33.11-9.82.19-13,.33,30.45.27,47.92-.3,90.71-.07-.07-.42-8.52-.39-20.43-.28S1403.83,42.69,1390,42.54Zm16.2-1.32c8.26-.1,11.33.37,16.17.08-8.56,0,3.07-.49-9.68-.35C1413.58,41.13,1408.24,41.13,1406.15,41.22ZM1224.72,42.3c-.51.23,5,.22,9.75.24,2.92-.19,11.9-.28,13-.5C1237.35,42.19,1231.93,42,1224.72,42.3Zm29.2,1.07c2.27-.22-2.58-.16-8-.09l-7.75.1h-2.66a5,5,0,0,1-1-.06c11.84-.08,12.41-.33,22.66-.44-2.89-.22-2.89-.23,0-.52-15.77.13-15.12.52-25.87.73-.4-.3-12.89-.14-19.49-.21,7,.39-10.27.92,6.51,1.15-2.6-.18-5.56-.44,6.45-.6-2.7.25-4.22.52-3.24.83l30.8-.52c8.4-.11,17.33-.26,34-.23.47-.22.61-.43-6.5-.4-12.84.4-26.37.39-35.61.54C1245,43.52,1251.29,43.48,1253.92,43.37ZM541.75,68c-9.07.63-25.18,1.54-35.54,2.4,11.35-.73,3.73,0,0,.44l22.61-1.59c1-.24-4.37.13-6.46.19,3.24-.23,3.81-.34,6.44-.54C526.53,69.21,544.06,68,541.75,68ZM972.12,48.07c9.37-.24,14.76,0,16.19-.52C978.14,47.86,975.07,47.7,972.12,48.07ZM774.66,55.5c10-.16,14.08-.93,22.64-1,2.91-.3,7.84-.63,9.71-.89C802.84,54.07,780.42,55,774.66,55.5Zm142.42-5.69c13-.43-2.15.42,13,0,6.57-.29,7.71-.59,12.9-.88-10.17.23-8.54.47-16.15.7,4-.25,2.46-.33-.51-.3S918.91,49.58,917.08,49.81Zm589.46-7.38c9.45-.15,18.65.24,22.69-.08C1520.07,42.33,1507,42.19,1506.54,42.43Zm-955,25.76c13-.81,28.36-2,45.22-2.87-2.78,0-11.21.39-20,.94s-17.89,1.21-22,1.35C553.71,67.8,550.11,68.1,551.53,68.19ZM826.44,53.61c2.53-.07,3.76-.06,3.26.06,7.92-.34,11.81-.63,16.17-.94C836.57,53.05,829.43,53.35,826.44,53.61Zm200.74-6.32c3.45.06,7.76.06,12.55,0s10-.1,15.4-.21c10.72-.2,21.84-.52,30.35-.82-10.32.1-18.47.45-22.66.16.54.21-5,.37-9.7.53-.76-.05-2.74-.05-6.5,0,1.23-.15,3.9-.22,0-.27C1036.7,46.83,1037.1,47.11,1027.18,47.29ZM470.74,74.21c14.71-1.23,32.63-2.06,35.55-2.76-12,.9-18.74,1.46-25.85,1.73C481.39,73.34,467.88,74.13,470.74,74.21Zm456.1-24c7.75-.25-1.79.44,9.67,0v-.35c-12.8.39-19.73.61-25.85.92,7.1-.29,8.09.23,13-.21C917,50.8,924.24,50.25,926.84,50.17ZM797.33,55.23c7.64-.31,6.07,0,16.23-.45,6.2-.37-2.82-.23-6.51-.17a10,10,0,0,1-1.44.13l-3.17.18C800.1,55,797.69,55.15,797.33,55.23ZM739.09,58c23.07-1.1,30.37-.89,42.11-1.61-7.64.33.28-.34,3.19-.5.73,0,2.75,0,6.5-.21,1.53-.43-15.8.61-16.18.75C771.7,56.26,747.51,57.42,739.09,58ZM606.52,65.45c6.34-.34,6.41-.49,9.68-.73,4.36-.23,6.2-.24,12.94-.66C627,63.89,602.93,65.21,606.52,65.45Zm857.94-21.79c4,0,7.65,0,6.46.17h16.2c1.52-.36-8.73.09-9.74-.26,0-.09,2.63-.11,3.29-.18-4.48,0-7.11,0-9.75-.08C1474.64,43.58,1465.83,43.52,1464.46,43.66ZM655,63.09c2.91-.33,11.92-.84,13-1.1-10.87.74-17.17.65-22.66,1.22C663.91,62.2,649.65,63.18,655,63.09ZM981.87,49.65c6.13-.19,7.18-.1,13-.26.93-.2-4.37-.06-6.5-.09,4.68-.18,16.73-.35,16.19-.53-6.86.07-9.56.31-19.44.44C985.83,49.36,981.47,49.5,981.87,49.65ZM1111.44,47c.89-.26,4.5-.32,9.69-.71-13.27.26-26.55.52-35.64.58C1087.55,47.22,1105.81,46.82,1111.44,47Zm803.23-.31c3.86.31-1.91.25-6.46.55-10.32,0-12.3-.21-16.2-.34a16.35,16.35,0,0,1-3.24.05c0,.09-2.61.08-3.22.14,14.83.4,43.37.35,42.1.87-6.45-.57,31.18,0,25.91-.18-15.44,0-20.89-.42-13-.57-9.85-.17-16.49-.17-19.41-.28-.54-.2,11.47.07,16.2.07.58-.18-2.67-.3-9.7-.36C1930,47.11,1915.72,46.41,1914.67,46.69Zm61.55.8c8.13.09,7.84-.12,13-.14-4.36-.07-6.17-.18-13-.22C1976.52,47.38,1970.85,47.26,1976.22,47.49ZM888,52.52c-2.32-.31-48.47,1.54-58.27,2.11C855.17,54.06,864.49,53.27,888,52.52Zm119.8-3.75c2.6.26-5.47.91-9.68,1.06,7.46-.23,12.4-.32,16.16-.35-3.29-.18,7.2-.35,12.94-.53C1017.19,49.08,1025.59,48.65,1007.8,48.77Zm29.14-.69c-8.26.13-17.72.21-22.68.61C1018.08,48.73,1034.75,48.46,1036.94,48.08ZM923.62,51.15c11.23.06,5.77,0,0,.43l19.4-.53a125.29,125.29,0,0,1,13-.62C957.59,50,931.62,50.84,923.62,51.15Zm123-2.41,32.41-.17c8.11-.3,10.34-.59,32.38-1-2.38-.19,6.42-.29,6.45-.47-20.31.3-32.25.67-42.09,1-5.17-.22-9.18-.43,0-.78-6.46-.1-5.12,0-16.2.12C1075.15,47.72,1055.83,48.51,1046.66,48.74Zm855.05-1c-6.93.08-21.18-.23-13,.22-8.59-.09-19.09-.15-19.41-.38,12.55,0-7.14-.68,0-.61,7.47,0,3.57.29,9.71.36,5.88-.17-1.41-.28,3.21-.49-10.35,0-4.4-.33-12.91-.39-3.15.45-33-.2-35.65.09-5-.5-24.93-.64-38.86-.53-7.72-.24-17.79-.43-29.19-.61-.47.1.58.25-3.21.23-.36-.22-10.86-.27-19.45-.35,5.27.35-.39.26-6.49.38,8.07.55,26.44.21,35.64.41a8.37,8.37,0,0,1-1.43.06h-3.16c-2.34,0-4.75,0-5.11,0,25.72.36,41,.21,55.06.15,5.59.48,23.56.25,29.14.79-12.12-.12-22.4-.17-29.15-.09a43.72,43.72,0,0,1,6.45.49c-10.2-.23-19.52.2-35.61,0,13.67.27,28.18.3,38.86.09a14.69,14.69,0,0,1-3.25.24c13.39,0,16.63.28,29.15.35,2.93-.35-18.25-.26-16.16-.59l16.17.15c.82.63,30.73.77,42.13,1.22-4.11.08-17.1-.17-13,.21,15,.23,3.39-.1,9.74-.07l9.71.1c2.42-.25-8.91-.26-6.46-.51,9.89.17,11.8,0,19.41.11v.26c22.84-.12,45.46.37,64.8.4-2.52-.05-6.38-.07-6.49-.16,5.63.07,10.07.09,13,.05-.18.11-4.15.08-3.21.23,12.52.11,15.19-.14,22.66-.21-9.16-.19-13.74-.16-22.66-.14-4.61-.3-18.32-.45-38.89-.66-5.55,0,.25.42-6.46.37-4.72-.09-16.74-.06-16.2-.25,4.73,0,10.25,0,9.71-.25-13.1-.22-35-.66-38.86-.31C1886.05,47.69,1909,47.89,1901.71,47.7Zm58.31,0c14.22,0,30.35.54,32.4.24C1980.3,47.67,1966.92,47.55,1960,47.67Zm-1308.21,16c-15.39.7-27.7,1.56-42,2.34C619,65.64,646.41,64.66,651.81,63.63Zm213.57-9.5c-6.09.2-21.49.55-25.88.94,2.49-.07,6.34-.23,6.46-.15-9.59.53,4.63.29,9.71.18,3.45-.46-8,0-6.47-.29,3.21,0,17.63-.61,22.67-.91-13.74.35-1.53-.42-16.24.06C855.5,54.23,862.49,54.05,865.38,54.13Zm-90.62,3.56c-3.93.16-2,0,0-.18-5.76.32-13.45.37-16.18.75C763.44,58.06,772.21,58,774.76,57.69Zm184.49-6.38c-2.49.09-6.38.17-6.49.26,3.83-.07,12.27,0,16.23-.35-7.29.13-7.32,0-13-.17-17.85.42-24.63.72-29.15.52-.07.15-8.87.42-6.48.57C935.34,51.83,946.51,51.26,959.25,51.31Zm171.61-3.71c-12.41.22-10.53.56-16.19.83,21.93-.6,37.29-1.44,32.38-1.83-1.34.32-17.75.2-16.2.39C1147.7,46.92,1120.29,47.51,1130.86,47.6Zm-103.64,1.62c-3.82.11-9.19.23-9.7.35,9.39-.14,18.62-.43,22.68-.79-2.27,0-18.1.29-19.47.52l4.17-.09A17.54,17.54,0,0,1,1027.22,49.22ZM823.31,56.44c10.27-.24,25.48-.87,29.16-1-8,.11-14.9.15-19.43.7-1.53-.37-2.18-.25,3.22-.73-13.23.45-17.75.3-29.14.91C818.77,55.91,832.91,55.67,823.31,56.44ZM888,53.49a18.24,18.24,0,0,1-3.25,0c4.47-.17,7.11-.22,9.74-.27a15.33,15.33,0,0,1,3.24-.38c-12.22.54-14.75.45-19.43.88C883,53.54,886.2,53.81,888,53.49Zm835.55-7c17.79.1,5.3.23,0,.27,16.88.35,44.59.93,58.3.68-4.83-.15-13.27-.23-16.23-.41-1-.22,9.38,0,9.74-.18-3.82-.05-9.16-.07-9.74-.17l16.24-.21-32.4-.38C1741.66,46.41,1732.67,46.34,1723.58,46.49ZM1037,50.18c15-.3,20.59-.38,29.15-.23,3.27-.41,14.93-.22,19.4-.62-3.39.06-2.57-.07,3.24-.15,1-.19-4.36-.09-6.46-.14,9.85-.22,16.45-.08,19.4-.45-8.29.14-15.4.23-19.4.18-1.31-.18,14.75-.22,9.69-.44-10.85.2-13.38.47-19.39.71,2.48,0,6.34-.11,6.45,0l-9.73.44c3.89-.44-14.25,0-16.17-.39-4.87.11-12,.18-13,.33C1055,49.13,1033.3,49.94,1037,50.18ZM736,60.72c15.32-.69,18.22-.47,35.59-1.31,1.06-.52,13.39-.72,12.9-1.21C773.69,58.79,737.56,60,736,60.72Zm106.79-4.45-4.19.17-1.62.08a2.94,2.94,0,0,0-.67.07c4.87,0,13.59-.5,16.18-.76-2,0-12.48.23-12.94.47A15.79,15.79,0,0,1,842.79,56.27Zm252.46-7c-12.66.31-50.57,1.13-29.1,1.16a10.24,10.24,0,0,1,3.21-.15c0,.18-8.84.28-6.45.47,7.18,0,18.58.2,29.14-.28-3.85,0-7.35,0-9.7,0,3.25-.06,3.82-.15,6.46-.21,9.23,0,7.57,0,13,.28.87-.19,14.36-.29,12.94-.5-7.1,0-17.42.15-22.65.07,9.15-.68,5.76-.66,6.44-1.17C1086.08,49.21,1097.33,49.09,1095.25,49.32ZM1743,47.52c8.12.3,15,.1,19.45,0C1754.14,47.46,1747,47.43,1743,47.52ZM784.53,59.16c-3.21,0-5.34,0-9.7.1-1.37.21-10.16.55-6.47.66,16.43-.81,20.87-.64,16.2-.14,14.16-.75,16.65-.79,29.15-1.41.86-.18-2-.15-4.88-.07s-5.73.16-4.87,0c6.19-.35,13.91-.59,12.93-.79-12.15.6-7,.2-16.19.5C798.58,58.31,791,58.75,784.53,59.16Zm667-12.08h19.41c-.54-.13,1.19-.33-3.21-.35-.58.46-11.73,0-16.2.09,0-.24,10.24-.19,9.71-.44-8,0-15.63,0-19.41.09C1441,46.79,1451.51,46.79,1451.51,47.08Zm-58.34-.51c-1.08.21-3.28.36-9.66.46-.58-.1-5.13-.07-9.71,0,1.48.14,6.81.15,12.75.15s12.47,0,16.37.12c-.58-.4,20-.22,16.19-.71C1396.42,46.36,1411.93,46.93,1393.17,46.57ZM1037,51.06c8.12,0,15-.34,19.4-.57a16.54,16.54,0,0,1-3.21,0l-6.5.12C1051.76,50.79,1035.71,50.85,1037,51.06ZM982,52.63c7.75-.26,23.48-.52,25.93-.79-3.94.09-2,0,0-.17C993.81,52,987.82,52.31,982,52.63Zm832.28-3.24c7.76.13,14.79.26,25.94.33-8.8-.31-9.81-.76-22.69-1C1813.15,49,1819.14,49.19,1814.23,49.39ZM1419.11,47.7c11.48,0,20.53-.09,22.7-.35-19,.17-8.63-.47-22.7-.44C1412.94,47.21,1440,47.42,1419.11,47.7ZM998.18,52.37c-.75.18,3.65.09,3.22.26l45.32-1.26c-3.1-.11,9.7-.48,0-.35-3.78.34-8.47.17-12.94.56-.62-.39-17.41.63-16.19.18C1009.57,52,1002,52.16,998.18,52.37Zm-168.32,5.5c-2.23.32,6.71-.07,9.75-.09,1-.15,4.6-.33,3.22-.46C837.17,57.52,832.74,57.7,829.86,57.87Zm858.06-9.35c0-.17,8.84-.05,6.5-.3-12.74,0-33.85.12-29.16.67-8.3,0-22.33-.13-32.4-.31,4,.68-7.07.3-13,.61,11,.24,31.71.22,38.89.27-3.82-.07-7.32-.14-9.7-.24,8,.07,10.06-.07,16.2-.07,10.21.34,12.7.29,29.15.47,1.37-.16,9.23-.09,6.46-.39-8.12-.13-27.89,0-25.91-.36,14.51.12,23.42.08,42.11.12.83-.17-12.55-.49-13-.35C1707.4,48.67,1692.72,48.82,1687.92,48.52Zm-336.81-.88v.18c.73.06,2.71.09,6.46,0,3,0,8.62-.43,3.25-.37C1360.28,47.61,1355.69,47.63,1351.11,47.64ZM995,53.33c-9.91.58-10.17.19-22.68.7,5.17.29,19-.4,32.39-.52,5-.35,17.84-.7,19.42-1a4,4,0,0,0,.9,0l2,0c1.51,0,3.13,0,3.53,0-7.07.2-6.95.41-6.45.61,7.54-.18,15.11-.45,22.65-.56a68.22,68.22,0,0,0-9.72-.31c7.47-.18,3.57-.34,9.7-.48-.61.26,23-.42,9.7-.27l-16.73.28-15.65.44c-10.13.29-19.72.56-29.1.72C994.27,53.21,984.24,53.44,995,53.33Zm612-4.54c.72.15-3.25.42,6.45.37-4.79-.29-.1-.36,6.46-.5l-19.41-.07C1599.56,48.84,1601.26,48.89,1607,48.79Zm126.3.84c-14.79,0-18.36-.28-29.15-.38C1702.74,49.81,1725.4,49.82,1733.26,49.63Zm553.89,6.13c8,.1,10,0,16.16,0a11.5,11.5,0,0,0,3.21.21c1.05-.1,4.62-.12,3.29-.31-12.27-.08-15.23,0-22.66-.32C2283,55.4,2283,55.61,2287.15,55.76ZM1296,49.43c-.54.19,11.51,0,16.2,0-3.68-.25,5.08-.24,6.45-.38l-15.4.1C1298.92,49.2,1295.91,49.28,1296,49.43Zm1052.63,6.88-9.71-.1c.15-.11,4.15-.08,3.21-.23-6.71,0-21.25-.33-22.69-.15C2329.18,55.94,2337.55,56.52,2348.67,56.31Zm-1033.15-6.9c8.73,0,36.72-.16,45.3-.42C1343.84,49.08,1322.3,48.94,1315.52,49.41Zm1062.3,7.2c4.83.19,13.24.2,16.2.08C2389.91,56.52,2378.14,56.39,2377.82,56.61Zm631.61,6.75c4.15.16,15.3.28,19.41.2.4.11,1,.22,6.5.24v-.26C3025.31,63.45,3015.25,63.12,3009.43,63.36ZM2306.51,57.1c1.52-.26-6.89-.35-16.19-.43C2286.74,57,2300.27,57.21,2306.51,57.1Zm68.08.79c.58-.12,7.8,0,12.92,0,3.86-.23-13.63-.52-16.2-.35C2381.45,57.67,2363.08,57.76,2374.59,57.89Zm48.57.41c-5.45-.45-18.87-.28-29.15-.56C2402.19,58.28,2411,58.09,2423.16,58.3Zm-9.71.25c15.26.13,27.6.16,32.37-.1C2432,58.37,2422.58,58.46,2413.45,58.55Zm-68-.35c-10.22-.06-7.36-.34-19.45-.37,0,.18,3.14.31,7.12.38S2341.93,58.28,2345.44,58.2Zm51.8.89c12.56.17,7.58-.3,16.21-.27-2.27-.1-18.08-.39-19.45-.2C2408.68,58.88,2388.37,58.81,2397.24,59.09Zm-93.95-.88c6.53.31,29.4.25,13,0C2318.55,58.43,2301,58,2303.29,58.21Zm366,4.64c-10.62.49-33.89,0-51.82.25,27.42,0,95.18.66,87.46-.06C2701.57,63.34,2677.9,63.25,2669.28,62.85Zm9.93-18.49a12.32,12.32,0,0,0-3.25.14l-19.45-.37c5.67-.08,17.29.06,25.91.09-2,.06-3.9.12,0,.17a15.66,15.66,0,0,1-1.84,0A9,9,0,0,1,2679.21,44.36Zm-427.59-4.13,51.84,1c-1.41.18-5.7.26-13,.22-.9-.15,3.11-.12,3.29-.23-18.44.09-37.53-.19-55.1-.21,2.24,0,5.05-.19,0-.27,6.79-.23,15.48.15,26,.09C2258.15,40.65,2257.21,40.4,2251.62,40.23Zm774.13,8.66c1.55.29-8.7.14-9.71.34,13.89.11,38.35.26,48.6.84-8.74.19-18.19-.16-35.65-.27-2.46-.26-7.87-.46-16.16-.61C3016.4,49.05,3011.21,48.77,3025.75,48.89Zm81,1.53c4.8-.32,21.54.3,19.44.64C3118.46,50.87,3118.68,50.54,3106.74,50.42ZM651.35,55.49c6.08-.57,25.84-1.56,29.13-1.6C673.35,54.36,662.78,54.85,651.35,55.49ZM1321.9,36.75c9.24-.18,9.93.31,25.88.3,4.59-.17-1.59-.39,3.28-.72,17.47.06,33.93-.27,58.3,0,2.23.23-6.68.17-9.71.26,11.69.32,18.66.75,35.65.7-1,.32-17.17.24-16.2.61-6.17,0-5.85-.25-16.2-.17-6.28,0,7.94.49-9.75.36-1.33.21,5.92.18,3.25.43-14.9-.12-30.24,0-51.79.24,8.63.16,14.66-.14,25.88-.05-1.8.13-5,.24-9.71.31-21.22,0-12.63-.18-38.86,0,.64-.34-16-.12-22.67-.22,3-.26,10.1.06,19.38-.11-5.31-.22-27.43-.1,0-.26-2.06-.08-7.4,0-6.46-.23,6.13.14,15.3,0,22.66-.12,5.34.11-1.08.34-3.21.54,10.21,0,12.67-.19,19.45-.28.94-.23-12.59,0-9.75-.3,12.46,0,30.21-.36,48.62-.33-1.44-.33-14-.12-16.17-.19,12.38-.3.14-.66,3.17-.81-4.87-.1-14.18-.06-22.63,0-.57.22,7.22.17,9.68.3-2.67.11-4.26.25-3.21.45-6.5,0-10.14.07-9.71.23-19.24,0-12.6-.3-29.16-.28,3.17-.26,8.62.08,12.92-.16C1332.55,37,1324.28,37,1321.9,36.75ZM247.46,87.5c4.23-.21,33.87-2.49,38.73-3.63,7.76-.8,7.06-.53,16.14-1.5-3.32.58-3.31.69.06.61l-22.6,2.22c.88-.27,12-1.26,12.91-1.53-7.5.53-30.4,3-38.76,3.63C258.58,86.51,245,88,247.46,87.5Zm526.94-38c4.46-.41,22.54-1.08,32.38-1.59,1.88,0-27.33,1.4-32.37,1.85-.93.31,10.36-.14,3.23.38C759.78,50.77,775.08,49.6,774.4,49.54Zm29.15-1c6.49-.33,13-.52,19.41-.77a59.5,59.5,0,0,0-6.44.1l-13,.58c.35-.14,4.38-.41,9.54-.59l16.35-.59c3.23.24-9.65.62-6.47.85-3.72-.07-13.58.08-19.41.68C798.76,49,804.82,48.63,803.55,48.54Zm-468.95,31c-10.82,1-5,.76-6.39,1.06-7.76.8-7,.53-16.15,1.5-4.29.2,12.74-1.52,3.21-.66,9.34-.88,14-1.53,19.31-2.17-2.61.51,4.58-.22,3.27.12C335.39,79.82,334.4,79.7,334.6,79.56Zm51.72-4.18c9.49-.92-7.74.16,9.64-1.25,1.39.1-5.85.68-3.2.71,10.55-.86,9.33-1,16.13-1.7,7.25-.41,16.34-1.27,19.39-1.71,4.59-.28,11.11-.76,18.47-1.35s15.56-1.32,23.54-1.81c1.57.12-3.54.46-9.7,1s-13.4,1.11-16.11,1.44c5.12-.25,22.59-1.9,29.09-2.13,2.63-.2,3.2-.31,6.48-.54-1.42-.07-7,.27-6.52,0,4.64,0,23.89-1.58,12.92-1.08,6-.56,16.53-.8,25.89-1.38,4.36-.37,6-.61,6.46-.81,2.6-.13,5.23-.27,9.7-.59,2.36.22-6.42.38-6.44.63,9.81-.46,21.33-1.48,29.11-1.87-3.43.59-9.79.66-19.41,1.36-12.85,1-4.15.61-12.89,1.43l-34,2.23-21,1.39-22.19,1.77c-29.86,2.4-59.86,4.88-77.94,6.59,5.95-.75,10.35-1.42,9.67-1.69l12.88-1.08C384.45,75.15,378.76,76,386.32,75.38ZM2028.11,41.09c.76-.22,5.55.18,13,.14-2.32.24-2.32.14,0,.43-5.34,0-21.54.21-19.44-.28C2031.71,41.71,2036.44,41.22,2028.11,41.09ZM1169.6,38.82c2.67.16,12.23,0,13,.29-11.84.21-17.25,0-22.67.26C1150.62,39.33,1176.42,39.11,1169.6,38.82Zm-947.79,53a18.43,18.43,0,0,1,1.85-.26,9.51,9.51,0,0,1,1.38-.1l9.66-1.35c4.75-.4,3.19-.11-.39.33S225.14,91.55,221.81,91.78ZM267,87.17c4.18-.64,29.89-3,19.38-1.73,11.85-1.23,25.39-2.67,32.28-3.08-12.24,1.41-35.51,3.46-48.41,4.66,1-.21,8.07-.86,12.89-1.35C283.62,85.43,271.67,86.75,267,87.17ZM1820.81,40.6c12.73.24-13.86.24-3.26.41-8.76,0-8.18-.16-19.44,0C1800.67,40.69,1814.93,40.79,1820.81,40.6Zm-1573,50.21c5.57-.86,23.73-2.11,25.79-2.53C276.9,88.25,261.82,89.48,247.81,90.81Zm58.11-4.74,0-.35c-10.17,1-7.23,1-19.3,2.07,3.57-.52,17.26-2.21-.06-.52,4.34-.93,13.84-1.28,22.55-2.39,7.63-.51-3.92.73-9.63,1.3-.52.24,11.46-1.09,16.13-1.5,1.81-.05-3.72.83,3.28.12C318.08,85.11,313.3,85.23,305.92,86.07ZM823.08,50.75c17.23-.88,28.43-.76,45.33-1.73,2.29.19,2.28.09,0,.44-9.88.42-9.49.19-19.41.61,5.63-.09,8.49,0,19.41-.43-8.1.45-13.61.88-16.13,1.28-8.33.29-4.66-.17-13,.12-4,.18-6.66.35-6.48.5-12.26.5-21.21.56-13,0,15.41-.29,8.51-.29,12.93-.82.93-.19-12.59.45-9.73.53C810.69,51.53,840.25,50.22,823.08,50.75Zm2601,8.72c19.13,0,21,1.34-9.71.86,6.17-.27,6.17-.31,0-.7C3420,59.71,3433.53,59.66,3424.11,59.47ZM260.88,91.29c-4.51.57-16.67,1.88-22.58,2.3C240.94,93.15,255.3,91.68,260.88,91.29Zm48.45-3.7c.48-.27,10.95-1.1,12.92-1.27-.6.13-3.22.4-3.21.49,3.73-.35,5.74-.58,6.42-.72,9.34-.87-4.91.62-3.17.58C316.57,87.15,316.94,86.87,309.33,87.59ZM516,71.21c-.34.25-1.42.41,6.52.16-8.06.58-10,.56-16.17,1C502.87,72.24,513.13,71.57,516,71.21Zm-71,5.6c15.68-1.33,42.06-3.62,51.67-3.8-10.67.48-16.79,1.3-22.58,1.85-3.72.1-8.22.33-13.18.75S450.51,76.47,445,76.81ZM3385.23,61.7c8,.07,10,.24,16.16.34,2.31.26-15.26-.22-12.95,0C3383.56,62,3389.3,62,3385.23,61.7ZM496.66,73.44c-3,.12-11.88.81-9.7.42,12-.79,29.41-2.1,32.34-2C511.17,72.48,497.1,73,496.66,73.44Zm-322,33.85c13-1.17,32.63-3.79,38.63-4C196.2,105.2,181.32,106.83,174.66,107.29Zm953-56.38,16.65-.52c6.15-.17,13.22-.35,22.22-.4-5.51.39,1.92.11,3.22.4-6.1,0-34.33.45-38.84.81C1126,51.21,1131.82,51.05,1127.67,50.91ZM765.23,61.82c4-.4,9.41-.18,16.19-.49s-16.82.8-19.42.9c-1.2-.09,2.51-.28,6.44-.48A16.48,16.48,0,0,0,765.23,61.82ZM2164,56.34c12.81.25,23,0,45.36.47,3.89-.06,2.24-.25,0-.53-3.61,0-16.81.12-9.74.25-3.76,0-30.09-.43-32.36-.77,9.16.19,13.49.23,22.66.23-4.12-.15-4.12-.36,0-.44,9.34.19,10.71.38,6.49.6,22.63-.09,26.85-.08,55,.39-14.76.06,9.63.74-9.67.51,3.31.16,13.09.55-3.29.32,5.41.75,36.65.82,32.43,1.56-5.56,0-6.14-.13-6.5-.24-14.5-.1-20.92-.25-35.64-.54-4.37,0-2.67.19-3.22.31,8.48.19,13.9-.12,12.92.22-4.69,0-16.74-.27-16.2-.08-4.26-.18-13.85-.46-6.42-.59-9.92,0-11.83-.21-19.45-.28,12.85-.1,39.76.58,51.81.53a50.58,50.58,0,0,0-6.89-.31c-3.65,0-7.7,0-9.31,0-6.24-.1-2.55-.36-12.95-.39.51-.16,11,.06,13,0-3.28-.5-14.11-.34-25.9-.7-12.52-.08,4.15.38-13,.13,5.38.23-.28.11,0,.35-10.17-.06-13.24-.34-16.2-.08-3-.18-13.2-.31-6.49-.41-2.6,0-8.88,0-9.71.07C2145.47,56.51,2174.81,56.58,2164,56.34Zm-64.79-1.28c-1.41.09-4.11.14-9.71.08a17.28,17.28,0,0,0,3.25.12c-4.87.32-9.7-.52-12.95-.22C2074.55,54.76,2087,54.86,2099.23,55.06ZM674.8,68.62c.63.21,5.64,0,16.19-.59-15.76,1.16-26.39,1.48-51.69,3,5.69-.8,35.28-1.86,38.73-2.85,2-.09,12.43-.5,12.92-.75C697.87,67.1,684.85,68.13,674.8,68.62Zm708.72-18.08c2.92-.11,9.52,0,19.4-.12-6.24.17,2.78.3,6.46.44-1.81.09-15.19,0-16.19.36-8,0-15.69.08-16.2-.12-5.88.16-11.11.34-19.4.45a14,14,0,0,0,3.24-.28c-8.83,0-6.49.19-13,.07-8.51.07-6.82.56-16.16.35-1.15-.14,2.52-.18,6.49-.21-8.8-.07-27.16,0-35.63.37.54-.33.25-.27-16.2,0,8.64-.21,2.06-.2-8.24-.14l-30.56.32c.21-.09,15.86-.34,3.17-.56,9.12-.12,9.38.11,9.74.33,9.57-.45,30.81-.46,49.57-.54l24.5-.14c6.36-.08,10.33-.19,10.14-.37,13.1.38,22.15,0,45.3-.06C1388.57,50.61,1387.12,50.54,1383.52,50.54Zm132.74.26a16.12,16.12,0,0,1,1.88,0,11.92,11.92,0,0,1,1.36.06c8.59-.18,15.08.08,19.41-.27,5.38.23,18.9.26,32.4.3-.65.48-24.31-.16-19.41.36C1542.16,51.06,1525.71,51.13,1516.26,50.8Zm-446.82,3.39c3-.14-10.63.39,3.29.37-12.38-.15-22.69.27-35.62.79C1037.71,54.83,1056.75,54.56,1069.44,54.19Zm1195,3.09c4.76.26,8.59-.25,22.69.06-2.46.42,13.14,0,9.67.37-13.53-.12-15.26-.31-25.87-.27-.58.24,21.18.11,16.2.43-6.06-.18-24.29,0-32.4-.42a3.77,3.77,0,0,1,.74-.06l1.89,0,5.2-.08C2266,57.24,2268.41,57.23,2264.44,57.28Zm-336.85-2.66c5.3-.14,14.46.39,16.15.6C1929.82,55.17,1938.09,54.73,1927.59,54.62ZM3148.66,69.17c2.49-.29,21.75.54,32.39.69C3170.41,70,3160.71,69.33,3148.66,69.17Zm-583-4.67ZM1315.49,44.33c17.35.07,26.66.23,38.86.05,7.25.69-26.12.48-38.86.83C1318.34,44.82,1307,44.63,1315.49,44.33Z"/><g class="cls-2"><path class="cls-3" d="M3100.72,34.73l-33.81,0c5.68.07,11.29.17,17.05.33C3091.34,35.15,3095.19,34.93,3100.72,34.73Z"/><path class="cls-3" d="M3035.64,34.69h-6l-5.13.09Z"/><path class="cls-3" d="M2976.79,35c10.4,0,20.36,0,30-.07C2998.27,34.86,2988.4,34.86,2976.79,35Z"/><path class="cls-3" d="M3023.68,35.18c-3.61-.14-5.39-.29.58-.4h.25l-17.75.14C3013.11,35,3018.8,35.06,3023.68,35.18Z"/><path class="cls-3" d="M3023.68,35.18l11,.34C3031.45,35.39,3027.77,35.28,3023.68,35.18Z"/><path class="cls-3" d="M3008.84,38.59c-5.94.11-4.54-.85-16.28-.63-27.55.3-51.11.75-76.9.77-11.74.23-30.27-.82-42-.6-27.63.3-98.12,1.65-56.58,1.56L2976.38,39l136-1.31c13.07-.06,25.26,0,37.55.06l-50.66-.4C3075.29,37.08,3046.35,38.33,3008.84,38.59Z"/><path class="cls-3" d="M3349.74,35.09l-17.64.34c-26.23-.66-53.79-.37-81.35-.08l12.23.47c15.76-.07,17.59-.34,3.59-.53,32.08.55,62.4.61,93.46.49C3358.09,35.52,3358.49,35.22,3349.74,35.09Z"/><path class="cls-3" d="M3378.25,35.68l-18.22.1c.14,0,.43,0,.66.08l18.21-.15Z"/><path class="cls-3" d="M2851.93,36,2628,36.07c-5.53.2-9.41.42-16.84.31-5.62-.16-11.28-.26-16.89-.33l-31.43,0-11.08.08h-.3c-5.9.11-4.15.26-.5.4,4.07.1,7.81.21,11,.34l-11-.34c-5-.12-10.47-.21-16.93-.26-9.57.07-19.59.11-29.94.07,11.51-.13,21.42-.14,29.94-.07l17.73-.15,5.11-.09L2485.16,36l-15,.09c-17.3.14-34.54.29-45.22-.17l-12.82,0,2.47.09-4.81-.09-54.25-.07-35.92.57-12.18-.47c-4.92.25-11.95.41-20.19.5l27,.78c12.18.47,27.19-1,41.55-.1-14.36-.89-29.37.57-41.55.1l-27-.78c-17.13.19-39.3,0-57.15-.42,22.17-.42,40.83-.05,57.15.42,8.24-.09,15.27-.25,20.19-.5l12.18.47,35.92-.57-107.79-.16-344.91-.23c-114.17,0-229.46-.06-351.52.27l-49.36.09L1453,36c-32.45.18-64.63.2-96.57.53l-95.13.78-94,1.15c-124.26,1.84-243,5.34-362.1,10.11-119,5.12-238.35,11.61-363.69,19.9-24,1.75-53.22,4-84.91,6.5l-12,1L332.49,77l-24.87,2.33-50.84,4.82L231.3,86.61c-8.45.87-16.85,1.84-25.16,2.74l-48.47,5.37-44.38,4.94L75,104.5c-123.39,17-58.76,13.11-52.94,12.61,19.09-1.5,37.1-3.21,55.79-5.2s38.08-4.39,60-6.55l74.79-7.86,10.92-1.13c3.7-.39,7.48-.78,11.33-1.09l24-2.09,54-4.51c-52.88,4.43-33.45,2,11.72-2.39l18-1.73c6.36-.59,13-1.08,19.94-1.63l43.29-3.32c14.83-1.1,29.8-2.17,44.2-3.14l10.68-.7,10.4-.55,19.67-.94c18.12-.79,37.19-1.75,57.05-2.85l30.34-1.71,31.41-1.57,65.44-3.56,16.81-1,17-.8,34.31-1.67,34.7-1.72,17.47-.87c5.83-.29,11.66-.59,17.51-.81l70.25-2.84,35-1.38c11.63-.42,23.23-.72,34.75-1.07l68.21-1.85L1038,50.2l17.2-.35,35.46-.78,37.11-.85c12.67-.29,25.67-.61,39-.78l103.15-1.35,101.94-1c67.7-.56,135-1.11,202.77-1.43,135.52-.7,272.84-1,418.65-1,77.29-.08,145.18-1,210.26-1.58,47.53-.2,98.32.22,137,.19,60.76-.06,113.07-.45,163.15-.91L2344.37,41c-41.62.1,28.94-1.25,56.5-1.55,11.8-.22,30.32.83,42.13.6,25.65,0,49.21-.47,76.75-.77,11.81-.22,10.44.74,16.34.63,37.54-.26,66.48-1.51,90.47-1.27l50.65.39c10.14.05,20.2.08,30.9,0l20.42-.25a57,57,0,0,1-9.25-1l33.82.29-33.82-.29a57,57,0,0,0,9.25,1c49.42-.61,106.42-1.17,159.41-1.63l-.71-.08c-31,.12-61.21.06-93.39-.5,13.92.2,12.21.47-3.66.54L2778,36.69c27.62-.29,55.19-.59,81.34.08l17.67-.34c8.75.13,8.35.43,10.19.69l18.29-.1C2892.62,36.56,2851.93,36,2851.93,36Z"/><path class="cls-3" d="M2533.33,36.23l14.92-.09L2488,36.07C2498.69,36.52,2516,36.38,2533.33,36.23Z"/></g><g class="cls-4"><path class="cls-3" d="M300.16,40.28c8.23-.48-3.2.73,9.34-.2-3.29.53-16.2,1.88-27.51,2.77l-9.85.57C282,42.33,287.1,41.41,300.16,40.28Z"/><path class="cls-3" d="M38.14,79.91c4.13-.41,3.14-.1,2.75.07-3.85.47-8,.88-10.68,1.07C29,81,34.33,80.37,38.14,79.91Z"/><path class="cls-3" d="M232.1,57.05c6.8-.49,15.5-1.34,23.22-1.9,4.11.19-11.67,2.27-29,4.25-5.25.6-11.95,1.13-14,1.19-3.8-.13-10,0,3-1.69C218.53,58.08,233.52,57.4,232.1,57.05Z"/><path class="cls-3" d="M91.51,78.26l1.68-.42c4.13-.41,2.15.21,8.68-.45l10.68-1.61c6.52-.66,2.23,0,1.8.16,12-1.44,20.06-2.29,28.35-3.17s16.81-1.53,29.69-2.86L165,71.07c6.8-.49,17.64-1.63,22.87-2-17,2,7.41-.09,7.85.28-3.38.52-8.36,1.46-18.87,2.66,7.43-.62,15.38-1.11,21.64-1.47l-9.54.91c-2.39.49,2,.21,9.11-.48-8.66.85-3.52.75-6.37,1.13,15.37-1.38,30-3.2,46.9-4.46a115.33,115.33,0,0,1,12.26-.26c-14.07,1.42-22.7,2.8-31.4,3.65-8.09.45-29.86,2.7-30.71,2.22-5.43.58-12,1.41-16.07,2,4-.11,16.79-1.57,20.8-1.68C176,75.55,168,76.3,150.22,78.17l3.15,0c-2.31.18-4.82.39-7.46.64l-8.26.91-17.39,2c-11.47,1.38-22,2.68-27.49,3.18C73.17,86.62,54.42,88,50,87.81c16.58-2.13-.77-.69.78-1.14C56,86,64.55,85.23,62.86,85.11c-9.13.63-16.79,2.11-20.35,1.84,16.72-2.37,6.87-2.17,12.39-3.33,4.52-1.11,27.56-3.14,24.68-3.51-12.46,1.45-.58-.13-3.42,0C80.29,79.47,84.26,79,91.51,78.26Z"/><path class="cls-3" d="M380.07,50.82c7.29-.46,4.82,0,6.83,0,3.56.16-13.79,1.33-21.65,2.08-8.26.57-9.14.36-8.27,0C359,52.36,372.78,51.25,380.07,50.82Z"/><path class="cls-3" d="M278.19,64.6c6.54-.47,14.48-1.1,17.49-1.14.15.3.31.6-7.12,1.39-11.67,1-19.74,1.88-28.74,2.31-4.92.29-4.53,0-.81-.6S269.79,65.28,278.19,64.6Z"/><path class="cls-3" d="M620.5,30.6c21.28-1,15-.18,20.15,0-24.31,1.49,12.41.14-8.74,1.48-5.43.29-12.43.66-17,.67,5.36-.57-3.2-.37-11.45-.08s-16.21.64-9.62-.06c1.07-.24,5.28-.6,10.45-1S615.58,30.91,620.5,30.6Z"/><path class="cls-3" d="M502.26,41.73c7.43-.33,11.57-.24,8.12.14-2.39.39-13.54,1-20,1.36-7.41.42-11.55.38-6.56-.15,2.43-.28,5.28-.55,8.4-.74Z"/><path class="cls-3" d="M451.64,47.81c4.28-.19,1.42.12,3.43.11-3.29.47-11.55.92-16.27,1.27l-5.83,0C438.81,48.65,443.66,48.34,451.64,47.81Z"/><path class="cls-3" d="M526.4,41.26c3.69,0,5.8,0,4.11.36-8.4.58-17.28,1.32-24.52,1.42-6,.19-1.73-.22-2.45-.42C510.25,42.1,518.93,41.59,526.4,41.26Z"/><path class="cls-3" d="M474.88,47.09c3.77-.19,7.4-.42,11-.67l5.29-.38,5.23-.33c1,.28,15.71-.42,20.29-.48-13.29.83-4.71.82-8.58,1.35-14.11,1-41.77,3.06-54.59,3.33,2.7-.61-14.24-.08,7.69-1.67C466.64,47.81,473,47.4,474.88,47.09Z"/><path class="cls-3" d="M365.59,59.9c9.4-.78,18.81-1.34,28.23-1.93,8.54-.12-2.87,1.37,1.85,1.3l-21.25,1.55c-7.26.62-13.16,1.18-13.06,1.47-12.1,1.19-27.35,2.39-37.72,2.94-11.12.11,38-4.21,20-3.44C349.81,61.48,357.61,60.81,365.59,59.9Z"/><path class="cls-3" d="M551.18,40.47c6.71-.26,12.85-.41,16.57-.45-6,.47-9.29.88-15.17,1.39-7.52.28-19.81.85-20.77.57a44.77,44.77,0,0,1,6.31-.7C541.85,41,546.7,40.68,551.18,40.47Z"/><path class="cls-3" d="M612.26,37.32c1.49.18-1.8.42-6.46.71s-10.69.72-14.67,1.07c-5.59.31-10.54.51-15,.61-2.28-.11-1.25-.36,5.28-.93,6.14-.42,10.88-.63,15.57-.82Z"/><path class="cls-3" d="M740.28,28.25c10.54-.28,5,.17,5.57.35-5.19.32-12.16.61-18.88.73C715.81,29.45,725.56,28.63,740.28,28.25Z"/><path class="cls-3" d="M689.54,37.14c5.85-.16,2.29.4-6.58.76h-8.27C680.12,37.61,683.66,37.31,689.54,37.14Z"/><path class="cls-3" d="M1539.16,0a6.1,6.1,0,0,1,1.86.1L1536.89,0C1536.74,0,1538.42,0,1539.16,0Z"/><path class="cls-3" d="M1121.05,18.78c6.72.32,3.06,1.29,23,.81,21.33-.8,39.27-.35,61.69-.6-2.39.27,4,.53,16.6.43,4,0,8.42-.14,9.68-.25,2.32.22-1.89,1,10.23,1.28-6.32.58-17.65,1.38-18.22,1.72,2.82.15,6-.14,9,0-13.7,0-30.88.44-46.34.67l2.88.14c-12.45.43-29.75.46-41.19.46-7.15.08-5.42.37-8.42.46-3.32,0-5.42-.7-21-.43l-10.72.52c0-.27,12.16-.59,3.46-.76h-15.57c7.34-.57-19.25-.68-9.62-1.3,16.29-.31,7-.66,3.91-.88l10.26.14c-3-.44,5.76-.81,13.49-1.23l6,.08C1133.32,19.58,1116.6,19.21,1121.05,18.78Z"/><path class="cls-3" d="M1112.34,19.68l-.78,0-4.08-.28A33.85,33.85,0,0,1,1112.34,19.68Z"/><path class="cls-3" d="M1078.19,22.23c.13.05,2.69.08.55.19C1076.15,22.38,1073.59,22.34,1078.19,22.23Z"/><path class="cls-3" d="M515.54,56.19c-3.72.57-10.23.6-15.09.85C504.73,56.63,513.29,56.09,515.54,56.19Z"/><path class="cls-3" d="M1090.29,23l1.7,0-4.72.07C1087.13,23,1088.72,23,1090.29,23Z"/><path class="cls-3" d="M1220.67,18.58c-2.29,0-3.33.25-5.32.12C1215.79,18.57,1219.07,18.6,1220.67,18.58Z"/><path class="cls-3" d="M1271.26,18c.86,0,2.59.06,1.84.09l-4.14,0A18.14,18.14,0,0,1,1271.26,18Z"/><path class="cls-3" d="M1262.55,20.23l1.68,0-6.26.05C1259.38,20.26,1260.12,20.23,1262.55,20.23Z"/><path class="cls-3" d="M1342.36,21.05c5-.46,22.4.08,34.3-.2-2.42,0-8.9.48,2.24.5,9.7.07,5.45-.31,12.44-.08-10.29,0-15.3.45-14,.62l9.56,0c-16.77.24-35.49.62-51.6.25-12.85-.33,1.59-.54-7.36-.9C1337.31,21.5,1335.62,20.92,1342.36,21.05Z"/><path class="cls-3" d="M1195.54,27.26c5.54,0,7.85.2,3.39.33C1188.91,27.75,1184,27.42,1195.54,27.26Z"/><path class="cls-3" d="M1414.38,19.09c3.23,0,9.67.1,7.13.29-5.88.13-11,0-12.31-.16C1411.51,19.19,1413.8,19.16,1414.38,19.09Z"/><path class="cls-3" d="M1626.07,25.18c2.56-.46,31.16-.22,33.89-.87-5,.14.14.58-8.72.45,11.15-.14,22.25.78,40.66.75.68.51,0,.8,5.65,1.44-9.29,0-18.17.13-20.52.4l4.15.1c-16.45-.08-24.71-.27-32.77.16l1.87.11c-6.83-.24.19-.22-2.94-.5-4.47.07-12.3-.23-14,0-9.55-.35-15.52-.82-30.07-1C1627.53,26.26,1604.19,24.87,1626.07,25.18Z"/><path class="cls-3" d="M1588.43,27a58.72,58.72,0,0,1-8.15.13c-3.41-.11-3.84-.26-1-.34C1582.45,26.79,1586.57,26.88,1588.43,27Z"/><polygon class="cls-3" points="1697.93 25.45 1694.65 25.38 1697.52 25.3 1697.93 25.45"/><polygon class="cls-3" points="1698.77 27.66 1694.75 27.61 1697.04 27.6 1698.77 27.66"/><path class="cls-3" d="M1764.58,27.45c6.54.14-3.07.29-1.25.4C1762.25,27.72,1764.94,27.6,1764.58,27.45Z"/><path class="cls-3" d="M1746.7,28.79c2.87-.08,0-.27-2.66-.41,14.28.41,14.73-.24,20.45-.4,19,.46,39.32.29,61.6.55a18.58,18.58,0,0,0-2.7-.14c6.25.58,25.12.72,38.5,1.11-13.12,0,1.86.38,6.11.53,6.33-.22,20.61-.06,27.74,0l-13.72,0c-.88.23-8.19.37-2.76.66,3,0,7.73,0,10.41.15-2.17.05-5.28,0-8.41,0,.26.36,7.78.59,16.63.73-17.45.09-22.88.6-30.92,1l6.8.24c-3.81-.27-15-.13-20.7-.25-3.76.58-34.41-.2-41.62.26-11.67-.6-25.25-.51-41.54-.82l.13,0c-29.29-.54-30.62-1.56-51.71-2.2,13.45-.16,1.76-.75,17.5-.91l-5.94-.48C1736.73,28.53,1738,29,1746.7,28.79Z"/><path class="cls-3" d="M1820.4,28.15l4.44-.06Z"/><path class="cls-3" d="M1838,28.11l6.45-.17Z"/><polygon class="cls-3" points="1458.1 40.66 1458.83 40.64 1466.5 40.87 1465.79 40.89 1458.1 40.66"/><path class="cls-3" d="M1516.09,39c1,.07-1,.19-4,.24C1507.07,39.17,1513,39,1516.09,39Z"/><path class="cls-3" d="M1914.56,28.8l5.3,0Z"/><path class="cls-3" d="M1926.21,30.2c-4.33.12-14.44-.2-19.6-.12C1913.79,30.16,1919.32,30,1926.21,30.2Z"/><polygon class="cls-3" points="1906.99 30.76 1902.26 30.72 1904.4 30.67 1906.99 30.76"/><path class="cls-3" d="M1985.5,29.12c6.13.27-.89.24-5.72.15C1979.47,29.17,1980.49,29,1985.5,29.12Z"/><polygon class="cls-3" points="1955.67 30.28 1946.37 30.26 1949.35 30.23 1955.67 30.28"/><path class="cls-3" d="M2019.3,35.69c10.13.05,14.1.37,17.93.64,1.44.23-10.74.29-2.33.54-7.14-.07-27.15-.08-34.82-.62S2005.72,35.51,2019.3,35.69Z"/><path class="cls-3" d="M2081.53,35.11c-5.66-.38,13,0,3.44-.41,10.9-.23,26,.22,40.49-.1-1.5.14,2.53.28,6.94.34,2.21,0,4.51.05,6.25,0a19.31,19.31,0,0,0,2.95-.12c7.12.62,18,.92,21.09,1.47-6.49.17-23.36.19-13.54.68-9.56-.12-26-.22-24.29.11-17.45-.45-28-.65-43.41-1.21-3.68-.22,8.07-.69-7.9-.91C2076.68,35,2078.54,35.14,2081.53,35.11Z"/><path class="cls-3" d="M1757.05,46.45l15.11.72c.24.36-11.9.15-11.65.52-16.57-.13-25.14-.16-33.53-.68-2.11-.2,2.17-.32,2.48-.49C1734.63,46.17,1748.77,46.52,1757.05,46.45Z"/><polygon class="cls-3" points="2165.34 35.09 2160.03 35.13 2163.61 35.03 2165.34 35.09"/><path class="cls-3" d="M1957.44,43.55l8.87.4c-2.18.32-3.63.63-20.23.48-5-.13-14.27-.16-17.4-.45.29-.16-2.82-.46,1.6-.52C1939.45,43.43,1948.32,43.31,1957.44,43.55Z"/><path class="cls-3" d="M2050,42c3.88-.26,15.74-.15,23.16-.24,10.1.32,16.42.37,21.38.77,9.71.71-21.73.2-26.78.6-7.95-.37-16.27-.85-19.49-1.19Z"/><path class="cls-3" d="M2420,32.33c.13.05.26.1-.45.12l-3.57-.17C2418.23,32.27,2419.08,32.3,2420,32.33Z"/><path class="cls-3" d="M1903.91,48c9,.19,17.07.62,9.08.78-4,.21-12.88.07-19.87,0-9.87-.22-11.71-.6-9.23-.82C1889.89,48,1896.31,47.82,1903.91,48Z"/><path class="cls-3" d="M2362.65,37.14l4.54.25Z"/><path class="cls-3" d="M2320.56,39.42c-3.58.09-8.16.37-17.33.14-9.7-.17-3.52-.44-4.8-.62C2305.83,39.11,2318,39.06,2320.56,39.42Z"/><path class="cls-3" d="M827.94,33.93l9.07-.62c2.88-.18,5.31-.36,6.39-.56,4.26,0,2.7.31,9.53,0,17.58-.69,40.56-1.3,49.75-2.2-1.75.27-11.43.73-8.18,1,8.27-.1,17.14-.29,28-.66-9.1.36,4.84.17,5.13.26,9.14-.09,19.24-.47,29-.75s19.19-.53,27-.59c-11.4.37-35.55.67-39.7,1.32,1.48.21,7,.15,13,.15s12.56-.07,16.06,0c.07,0-1.53,0-3.55.07l-6,.08c2.7.33-7.64,1.06,10.23.88-2.52.41-12.32.93-24.34,1.57l-37.6,2-60.06,1.37c-.58.09-1.88.23-1.58.32-10.41-.4-37.1.21-52.93.75-8,0,10.59-.56,4-.67.67-.32-9.14-.08-13.71-.12,6.59-1,8.6-1.43,10.5-2.21C809.2,35.51,817.67,34,827.94,33.93Z"/><path class="cls-3" d="M2524.35,33.89c-.58.07,1,.08,1.86.12l21.17-.67.58.2,49.22,0c29.71.45,45.76,1.51,71.77,2,6.8.51-7.76,0-14.2.16,2,.16-4.05.48,6.54.41-8,.16-8,.43-14.47.6l8.41.26c-10.45.11-19.17,0-22.65.43,7.59.23,12.32,0,19.32.29-19.71-.43-34.6,0-55.78-.39l3.28.34c-10.4-.15-16.53-.69-28.39-.53l1.28.18c-18.18-.43-29.85-1-47.36-1.53C2504.93,34.94,2519.88,34.49,2524.35,33.89Z"/><path class="cls-3" d="M2281.52,41.41a32.68,32.68,0,0,1,5.54.33c-3.32.19-10.46.11-15.6-.07C2267.63,41.4,2275.91,41.34,2281.52,41.41Z"/><path class="cls-3" d="M2318.33,40.54c4,.06,1.14.13,1.24.18-2.84.08-9.42-.07-7.54-.22C2313.34,40.41,2315.89,40.5,2318.33,40.54Z"/><path class="cls-5" d="M2483.52,38.54l2.87-.08Z"/><path class="cls-3" d="M2514.69,38.41c2.27.26-6.43.17-11.46,0C2506.1,38.37,2509.86,38.32,2514.69,38.41Z"/><polygon class="cls-5" points="2653.65 35.28 2654.35 35.27 2660.33 35.48 2659.62 35.5 2653.65 35.28"/><polygon class="cls-3" points="2587.21 37.94 2576.53 37.42 2585.97 37.76 2587.21 37.94"/><path class="cls-3" d="M2685.08,35.25c1.73.07,1.31.18-1.73.21C2680.81,35.37,2682,35.23,2685.08,35.25Z"/><path class="cls-3" d="M2686.15,36.19l10.44.15Z"/><path class="cls-3" d="M2684.23,37.14c-1.72.21,6.45.1,8.85.14-7.57.31-13.82-.27-25-.14C2672.49,37.08,2678.36,37,2684.23,37.14Z"/><path class="cls-3" d="M3132.56,35.68c17.47.53,40,.23,53.61.68-1.16,0-5.62,0-4,.11,24.24.08,10.6.91,34.68,1l-9.59.08c1.39.26,7.76.35,13.7.49-3.09,0-7.2-.15-10.75-.1,3.51.38-1.2.67-4.86.9-.11,0-.81-.07-2.17-.12-6.67.26-9.42.38-22.93.39a74.73,74.73,0,0,0,7.51.27c-15.34-.66-48.56-.21-66-1.16-12,.11-14.11-.43-21.53-.66-9.37-.27-9.34-.48-8.3-.76C3099.58,36.21,3110.49,35.71,3132.56,35.68Z"/><path class="cls-3" d="M2410.77,45c6.58.15,5.56.33,4.41.47-6.73.07-12.72-.15-15.56-.34C2399.91,45,2406.91,45,2410.77,45Z"/><path class="cls-3" d="M2804.89,35.72l7.57,0Z"/><path class="cls-3" d="M2573.88,42.23l1.7.06-5.59-.06C2570.56,42.16,2572.29,42.22,2573.88,42.23Z"/><path class="cls-3" d="M2594.4,42.7l.18,0-5.14-.18C2591.73,42.56,2593.57,42.67,2594.4,42.7Z"/><path class="cls-3" d="M2587.2,43.69l14.55.26c-12.59.17-7.44.35-17.5.62-6-.22-17.27-.13-24.67-.58-2.74-.14-2.09-.47,3-.56C2571.21,43.47,2589,43.22,2587.2,43.69Z"/><polygon class="cls-3" points="3210.9 35.97 3207.92 36 3209.62 35.95 3210.9 35.97"/><polygon class="cls-3" points="2588.36 43.55 2587.53 43.52 2589.66 43.47 2588.36 43.55"/><polygon class="cls-3" points="3391.53 22.68 3385.47 22.73 3389.93 22.67 3391.53 22.68"/><path class="cls-3" d="M2570,44.68l4.85.08Z"/><path class="cls-3" d="M3208.54,36.88l11.29.08Z"/><polygon class="cls-3" points="3235.12 36.69 3229.51 36.67 3231.31 36.66 3235.12 36.69"/><path class="cls-3" d="M3253.61,36.71c2.61.06.26.08-.89.11C3251.91,36.76,3250.54,36.71,3253.61,36.71Z"/><path class="cls-3" d="M3216.3,38.55a30.83,30.83,0,0,1-4-.11C3214.13,38.44,3214.35,38.51,3216.3,38.55Z"/><path class="cls-3" d="M3207.3,39.3c-5.34-.16-12.34,0-14-.15C3198.31,39.15,3205.74,39,3207.3,39.3Z"/><path class="cls-3" d="M3247.93,37.76l9,.15Z"/><polygon class="cls-3" points="3224.31 38.55 3220.4 38.7 3217.66 38.6 3222.25 38.48 3224.31 38.55"/><path class="cls-3" d="M2649.52,45.88c7.28.4-11.6.26-10.74,0C2640.8,45.79,2645.37,45.78,2649.52,45.88Z"/><path class="cls-3" d="M2667.25,45.63c.71.25-10.58.07-9.56-.12C2661.55,45.51,2664.57,45.49,2667.25,45.63Z"/><path class="cls-3" d="M2658,46.73c-.15.21-4.55,0-7.86-.06C2653.3,46.69,2653.61,46.52,2658,46.73Z"/><path class="cls-3" d="M2654.39,49.27c-10,0-10.19.48-21.89.15C2638.07,49.22,2645,49.2,2654.39,49.27Z"/><path class="cls-3" d="M2650.19,49.7c-1-.08-1.74.21-4.55,0Z"/><polygon class="cls-3" points="2659.08 49.57 2654.52 49.59 2657.52 49.56 2659.08 49.57"/><polygon class="cls-3" points="2662.93 49.84 2656.92 49.9 2662.03 49.81 2662.93 49.84"/><path class="cls-3" d="M2722.22,50.15c2,.16-3.29.19-5.31,0C2717.5,50.11,2720,50.15,2722.22,50.15Z"/><path class="cls-3" d="M3402.3,41.62l8,.38c-5.27.29-22.3,0-27.42-.19C3379.45,41.42,3395.17,41.54,3402.3,41.62Z"/><path class="cls-3" d="M3238.06,47.81c-.45.11-5.27,0-9.3,0C3222.77,47.57,3237.07,47.46,3238.06,47.81Z"/><polygon class="cls-3" points="3352.59 46.39 3344.29 46.18 3353.03 46.27 3352.59 46.39"/></g><g class="cls-4"><path class="cls-3" d="M3467.43,86.1c-98.27-1.43-186.84-2.38-277.76-3-141.11-1.26-268.38-4.14-416.89-6.15-73.59-1.07-141.61-1.87-213.31-2.69-144.34-2.44-303-4.75-466.88-6.45-17.62-.31-69.47-1.22-64.57.18-158.91-2.5-313.24-5.12-467-4.89-32.29-.12-65.26-.25-98.24-.52l-49.39-.3q-24.62,0-48.89.17L1208,63.54l-19.42.12c-6.47,0-12.93.16-19.39.23l-38.72.55-38.64.62-19.3.34c-6.43.12-12.85.33-19.28.51-14.27.59-45.12,2.12-57.1,2.35C854.59,70.93,723.87,79,590.55,88.47l-72.33,5.44L501,95.19l-8.63.64-8.69.75-36.08,3c-4.49,1-16.5,1.88-30.7,3.28l-21.69,1.76-15.6,1.23-18,1.65-86,7.85-11.21,1-11.07,1.15-21.52,2.26-38.64,4c-23.1,2.38-39.92,4.06-44.78,4.42-2.41.18,22.32-2.73,60.66-7.19l31.1-3.61c11.08-1.26,22.78-2.72,34.95-3.86l76.42-7.66c26-2.77,52.17-4.81,76.59-7l66.56-5.73c38.79-2.86,64-4.78,62.2-4.82-2.44.07-21,1.33-47.82,3.2l-10.43.73-5.48.39-5.64.46-23.9,2-52,4.37L385,101.84l-6.59.55-6.53.64L359,104.31,311.62,109l-36.31,3.57-12.17,1.18-7.2.79c7.78-1,15.49-1.71,23.1-2.53l22.58-2.38L345.19,105l21-2.2,10.31-1.09,10.19-.94,39.49-3.58,37.48-3.4,18-1.64c5.92-.53,11.75-1.09,17.52-1.5l65.31-5.05,29.84-2.32,14.23-1.09,13.79-.9L673.1,78,717,75.13c6.75-.48,13.25-.77,19.47-1.13l17.88-1,89.88-4.92c15.44-.73,17.42-.89,9.17-.6-4.12.16-10.79.35-19.62.79l-32.51,1.64-43,2.22-24.65,1.28c-4.26.23-8.6.42-13,.71L707.29,75,650.7,78.62l-29.63,1.9-15,1L591,82.68,530.5,87.36l-29.75,2.31-7.34.57-7.28.66-14.39,1.32C448,94.15,419.22,96.78,384.9,99.9l-6.5.59-6.62.69-13.65,1.43-28.9,3-64.46,6.53c27.32-2.94,68.72-7.68,106.58-12l7.06-.79,6.95-.7,13.47-1.34,24.51-2.43c15-1.48,26.84-2.63,33.4-3.21,15.15-1.36,28.1-2.64,39.46-3.6l29.86-2.43,44.72-3.71,21.83-1.74c7.79-.62,16.3-1.29,26.12-1.85,19.64-1.22,44.46-2.69,79.13-4.67l22.24-1.29c7.7-.43,15.69-.77,23.9-1.18l51.69-2.59L823,67.21l13.87-.72,14-.6,56.48-2.39,28.08-1.2c9.3-.39,18.52-.83,27.62-1.1l52.83-1.78,47.83-1.59c14.88-.46,28.57-.72,40.73-1-50.58,1.84-168.64,7.48-243,10.2,20.24-.58,38.28-1.16,54.69-1.75L961,63.55c27.43-.94,50.59-1.94,74-3L1070.7,59l39.47-1.28c14.14-.43,29.47-.84,46.53-1.23l27-.58,30-.35c15.71-.19,33.93-.53,53.61-1l28.09-.12c9.56,0,19.57,0,30.69,0,138.88-.9,260.65-1.36,397.22,0-11.75,0-19.19-.77-31.15-.94l-43.4-.64-42.25-.3c-27.89-.13-55.34-.23-83-.18l-173.79.68c-11.94,0-26.22.26-40.68.56s-29.08.78-41.73.91c-25.68.32-49.92.45-73.74.52-6,0-11.88,0-17.8.12l-17.73.16-35.66.36c95.37-2.89,208-3.44,310.93-3.93,21.36-.09,47.13-.77,63.75-1.14l-71.42-.06c-23.86,0-47.78.21-71.76.33l-32,.26c-10.83.1-21.83.17-32.95.39l-68,1.17-34.59.63-34.69.87L1082.84,56,953.52,60C913.43,61.43,877.14,62.6,847,63.24c-3.59.2-7.14.32-14.35.78-1.81,0-4.3.09-7.07.19-23.43,1.12-51.46,2.33-76.86,3.09l64.72-2.89,15.87-.92c5.31-.32,10.65-.62,16-.85l32.41-1.46,66.21-2.81c11.17-.5,22.41-.77,33.7-1.13l34-1,34.3-1c11.47-.31,23-.69,34.51-.88l69.5-1.34,34.88-.67,34.89-.43,69.64-.9c11.57-.2,23.12-.24,34.64-.35l34.46-.32c10.14-.13,22-.18,34.62-.2s26.15,0,39.65.13c27,.2,54,.39,74.3.23,119.5-.51,244.17.69,364.12,2.76,433.07,7,864,14.4,1286.54,22.7l29.44.25-12.63-.53,27.61.67c54.32.54,107.7,1.28,160.56,2.58,21.65.7-38.29-.36-54.91,0l24,.43-4.56.54c9.23,0,14.66.38,21.15.66L2992.7,76.89c13.63.94,49,1.16,65.69,1.46,39.48.23,78.89.46,114.9,1.1,100.25.87,204,3.38,300.73,4.78l52.87,1.37C3548.54,86.29,3503.37,86.74,3467.43,86.1ZM1987.7,58.37l98.15,2.44,35.16.55c14.54.25,30.15.39,46.32.45l187.78,3.47c-62.66-1.82-127.89-3.54-206.92-4.69,204.17,2.36,379.13,7.07,567.43,10.9l173.68,2.44c41.58.47,82.26.8,122.44,1.08-253.07-4.28-503.81-9.13-755.94-13.7q-189.11-3.42-379.71-6.51c-127.23-2-255.29-3.47-384.64-3.79C1658.65,52.55,1820,55.11,1987.7,58.37Zm-61,.21L1827,57.46q-49.59-.48-98.58-.83l-67.22-.57-67.65-.38-66.94-.25-65.13.08c-42.56,0-83.15.44-120.29.88l-27.18.35-13.06.19-12.68.27c-16.65.37-32.25.76-46.61,1.17q234.89-3.79,486.76-1.74c-79.78-.69-90.86-.74-55.21-.42l85.75.74,139.33,1.41C1903.16,58.34,1913.72,58.44,1926.72,58.58Z"/><path class="cls-3" d="M2907.48,70.32l222.2,5.14c-28-1.19-52.72-2.28-85.7-3.34-89.06-2.52-189.61-3.68-283.21-5.65-269-5.7-549.42-10.07-836.78-13.58-14.14-.25-45.45-.7-69-.67C2217.43,57.65,2558.81,63,2907.48,70.32Z"/><path class="cls-3" d="M1392,48.5l-78.64.73-76.9.9,37,0c13.06,0,26.71-.15,40.5-.13l80.86-.22c17.67-.15,35.34-.17,53-.19l52.93-.07c35.24-.11,70.36.12,105.26.23-34.9-.38-70-.88-105.61-1l-53.75-.22-27.19-.08Z"/><path class="cls-3" d="M1855,52.22l-43.57-.62-50.59-.67-51.17-.5L1658,50,1606,49.72c36.82.39,73.42,1,110,1.57l110.2,1.81C1826.08,52.45,1838.53,52.23,1855,52.22Z"/></g></g></g></svg>