<svg xmlns="http://www.w3.org/2000/svg" viewBox="0 0 236.66 699.99"><defs><style>.cls-1{fill:none;}.cls-1,.cls-4{stroke:#fff;stroke-miterlimit:10;}.cls-2,.cls-4{fill:#fff;}.cls-3{fill:#b92900;}.cls-4{stroke-width:0.5px;}</style></defs><g id="レイヤー_2" data-name="レイヤー 2"><g id="top_nav" data-name="top nav"><rect class="cls-1" x="56.9" y="25.91" width="121.7" height="121.7" transform="translate(95.84 -57.85) rotate(45)"/><rect class="cls-1" x="56.9" y="201.47" width="121.7" height="121.7" transform="translate(219.98 -6.43) rotate(45)"/><rect class="cls-1" x="56.9" y="377.12" width="121.7" height="121.7" transform="translate(344.18 45.02) rotate(45)"/><rect class="cls-1" x="56.9" y="552.38" width="121.7" height="121.7" transform="translate(468.11 96.35) rotate(45)"/><path class="cls-2" d="M8.24,253.68v-.58c2.56,0,2.68-1.7,2.58-3.28V249H6.2c-1.62,0-2,.22-2,2,0,3.26.82,3.84,3.34,5.84l-.2.48-3.8-1.48V245.16h.66c0,1.58.52,1.86,2.74,1.86h7.84c2.2,0,2.74-.28,2.74-1.86h.66v10.46L14.74,257l-.3-.5c2.34-1.76,3.06-2.42,3.06-5.36,0-2-.32-2.16-2.28-2.16H11.48v.82c0,1.88.34,3.16,2.5,3.3v.56Z"/><path class="cls-2" d="M6.1,265.68c-.78.6-2,1.5-2,2.6H3.52v-4.64H4.1c0,.3,0,1,.44,1s.78-.48,1-.64l1.88-1.52L6,261.34c-.32-.22-.74-.7-1.16-.7-.66,0-.72.86-.72,1.34H3.52v-4.4H4.1c.16,1.34,1.38,2.18,2.34,3l1.7,1.34,3-2.42c.56-.46,1.52-1.16,1.54-2h.58v4.78h-.58c0-.48,0-1.2-.52-1.2s-1,.54-1.28.78L9.52,263l1.3,1c.32.24.84.72,1.26.72.64,0,.64-.68.64-1.16h.58v4.22h-.58c.08-1.2-.8-1.78-1.64-2.44l-2.32-1.78Z"/><path class="cls-2" d="M2.76,271.6c-1.88,0-2,0-2.18,1.34H0v-4.46H.58c.18,1.36.3,1.36,2.18,1.36h7.8c1.06,0,1.44-.12,1.44-1.32h.48l1.18,3.08H12.24a4.34,4.34,0,0,1,1.28,2.84c0,2.5-2.68,3.82-4.86,3.8-2.48,0-5.36-1.22-5.36-4.08a3.71,3.71,0,0,1,1.22-2.56Zm2.56,0a3.41,3.41,0,0,0-1.16,2.14c0,2.18,2.74,2.6,4.44,2.6s4.06-.52,4.06-2.64a3.47,3.47,0,0,0-1.2-2.1Z"/><path class="cls-2" d="M15.38,280.66c1.74,0,1.66-.28,1.76-1.7h.58l1.14,3.46H6.26c-1.88,0-2,0-2.16,1.38H3.52v-4.48H4.1c.16,1.34.28,1.34,2.16,1.34Z"/><path class="cls-2" d="M8.24,284.74c2.6,0,5.28,1.72,5.28,4.54s-2.72,4.44-5.26,4.44a4.79,4.79,0,0,1-5-4.56C3.3,286.6,5.78,284.74,8.24,284.74Zm.4,7c1.46,0,4.22-.46,4.22-2.42s-2.64-2.52-4.18-2.52S4,287.22,4,289.16,7.1,291.7,8.64,291.7Z"/><path class="cls-2" d="M6.26,298c-1.88,0-2,0-2.16,1.34H3.52V295H4.1c.16,1.32.28,1.32,2.16,1.32h4.3c1.06-.06,1.44-.08,1.44-1.3h.48L13.66,298H11.3c.94.76,2.36,2,2.36,3.28a1.18,1.18,0,0,1-1.16,1.24,1.06,1.06,0,0,1-1.12-1.08c0-.7.52-1,.52-1.6s-.92-1.5-1.48-1.84Z"/><path class="cls-2" d="M6.26,306c-1.88,0-2,0-2.16,1.36H3.52v-4.48h.6c.16,1.36.3,1.36,2.16,1.36h4.28c1.06-.06,1.44-.08,1.44-1.3h.48L13.66,306Zm9.46-1.14a1.33,1.33,0,0,1,2.66,0,1.33,1.33,0,1,1-2.66,0Z"/><path class="cls-2" d="M6.26,311.26c-1.88,0-2,0-2.16,1.34H3.52v-4.46H4.1c.16,1.36.28,1.36,2.16,1.36h4.3c1.06-.06,1.44-.08,1.44-1.3h.48l1.18,3.06H12a4.75,4.75,0,0,1,1.56,3.14,2.71,2.71,0,0,1-.78,1.9,3.62,3.62,0,0,1-2.6.68H6.26c-1.88,0-2,0-2.16,1.34H3.52v-4.48H4.1c.16,1.38.28,1.38,2.16,1.38h3.5c1.2,0,2.7-.08,2.7-1.66a3.68,3.68,0,0,0-1.32-2.3Z"/><path class="cls-2" d="M4.94,324.9c-.34,1.34-.66,3.72-2.48,3.72-2.2,0-2.46-3.06-2.46-4.74,0-1.3.18-5,2-5,1.42,0,1.76,2,2.1,3,.22-.58.56-2.08,1.42-2.08s1.3,1.08,1.46,1.78a3.46,3.46,0,0,1,3-1.7c2.18,0,3.5,2,3.5,4a3.92,3.92,0,0,1-1,2.68,3.14,3.14,0,0,1,1.06,2.06,1,1,0,0,1-1.08,1,.91.91,0,0,1-1-.82c0-.74.8-.82.8-1.52a.61.61,0,0,0-.18-.38,3.4,3.4,0,0,1-2.3.8,3.75,3.75,0,0,1-3.5-3.92,4.69,4.69,0,0,1,.3-1.66c-.08-.22-.2-.58-.5-.58-.54,0-.78,1.32-.88,1.68ZM3.86,323c-.26-.82-.7-2.28-1.78-2.28-1.32,0-1.42,2.4-1.42,3.42s.12,3,1.26,3c.74,0,1-.9,1.18-1.46Zm9,1c0-1.52-1.72-2.08-3-2.08s-2.82.6-2.82,2.12,1.52,1.94,2.76,1.94S12.86,325.38,12.86,323.92Z"/><path class="cls-2" d="M14.56,347.7l-.24-.5c1.42-1.08,3.24-3,3.24-4.9C17.56,339,14,338,11.3,338c-2.88,0-6.78,1.48-6.78,4.9,0,2.14,1.48,3.56,3.2,4.58l-.24.42c-2.36-1.08-4.18-3.08-4.18-5.76,0-3.94,3.26-6.44,7-6.44a9.37,9.37,0,0,1,5.16,1.62,5.79,5.79,0,0,1,2.92,4.7,4.61,4.61,0,0,1-.32,1.66,4,4,0,0,0-.3,1.28,2.93,2.93,0,0,0,.42,1.36Z"/><path class="cls-2" d="M15.38,350.44c1.74,0,1.66-.28,1.76-1.7h.58l1.14,3.46H6.26c-1.88,0-2,0-2.16,1.38H3.52V349.1H4.1c.16,1.34.28,1.34,2.16,1.34Z"/><path class="cls-2" d="M8.24,354.52c2.6,0,5.28,1.72,5.28,4.54s-2.72,4.44-5.26,4.44a4.79,4.79,0,0,1-5-4.56C3.3,356.38,5.78,354.52,8.24,354.52Zm.4,7c1.46,0,4.22-.46,4.22-2.42s-2.64-2.52-4.18-2.52S4,357,4,358.94,7.1,361.48,8.64,361.48Z"/><path class="cls-2" d="M10.4,372.44l-.26-.48c1.26-1,2.72-2.18,2.72-3.8a1.49,1.49,0,0,0-1.36-1.58c-2.44,0-1.52,6.28-5.18,6.28a3.24,3.24,0,0,1-3-3.26,4.21,4.21,0,0,1,.28-1.32,2.36,2.36,0,0,0,.18-.74,1.85,1.85,0,0,0-.46-1.16l3.4-1.24.22.44c-1.26.76-3,2.64-3,4.14a1.71,1.71,0,0,0,1.64,1.76c2.58,0,1.46-6.22,5.08-6.22a3,3,0,0,1,2.84,3.14c0,.72-.32,1.42-.32,2a1.15,1.15,0,0,0,.46.9Z"/><path class="cls-2" d="M9,375.94c-2,0-4.86.58-4.86,3.08A4.08,4.08,0,0,0,6,382.3l-.32.34a4.61,4.61,0,0,1-2.36-3.88,4.87,4.87,0,0,1,5-4.84c2.56,0,5.2,1.78,5.2,4.58A4.33,4.33,0,0,1,9,382.72Zm.76,4.76c1.38.12,3.08-.48,3.08-2.22s-1.72-2.4-3.08-2.44Z"/><path class="cls-2" d="M15.38,390.72c1.74,0,1.66-.28,1.76-1.7h.58l1.14,3.46H6.26c-1.88,0-2,0-2.16,1.36H3.52v-3.12H4.66A4.07,4.07,0,0,1,3.3,388c0-2.68,2.76-3.88,5.06-3.88,3.9,0,5.16,2.32,5.16,3.74a4.47,4.47,0,0,1-1.3,2.88Zm-4,0a3.5,3.5,0,0,0,1.26-2.22c0-2-2.76-2.5-4.26-2.5s-4.24.5-4.24,2.5a3.47,3.47,0,0,0,1.24,2.22Z"/><path class="cls-2" d="M14.66,409.54l-.28-.58c1.58-1,3.34-2.5,3.34-4.5a2.62,2.62,0,0,0-2.66-2.66c-1.74,0-2.44,1.84-2.86,3.24-.78,2.52-1.46,5.1-4.64,5.1a4.24,4.24,0,0,1-4.26-4.48c0-1.26.58-2.34.58-3.14a1.9,1.9,0,0,0-.58-1.22l3.9-1.46.28.6c-1.62,1.22-3.52,3-3.52,5.1a2.79,2.79,0,0,0,2.7,3c4.64,0,2.28-8.18,7.64-8.18a3.93,3.93,0,0,1,4.08,4.24,4,4,0,0,1-.34,1.6,3.1,3.1,0,0,0-.24,1.08,1.29,1.29,0,0,0,.38,1Z"/><path class="cls-2" d="M5.9,419.66a5.15,5.15,0,0,1-2.6-4.22A4.71,4.71,0,0,1,8.16,411a5.07,5.07,0,0,1,5.36,5.1c0,1.14-.7,3.28-2.1,3.28a1,1,0,0,1-1-1.08c0-1.48,2.44-.9,2.44-2.82S10.14,413,8.6,413c-1.9,0-4.24,1.06-4.24,3.28,0,1.36.88,2.24,1.82,3.1Z"/><path class="cls-2" d="M6.26,423.56c-1.88,0-2,0-2.16,1.36H3.52v-4.46H4.1c.16,1.34.28,1.34,2.16,1.34h9.12c1.74,0,1.66-.28,1.76-1.7h.58l1.14,3.46H12a5.84,5.84,0,0,1,1.56,3.54c0,2.1-1.52,2.52-3.6,2.52H6.26c-1.88,0-2,0-2.16,1.34H3.52v-4.44H4.1c.16,1.34.28,1.34,2.16,1.34H9.92c1.4,0,2.54-.28,2.54-1.62a4.32,4.32,0,0,0-1.34-2.68Z"/><path class="cls-2" d="M8.24,432.2c2.6,0,5.28,1.72,5.28,4.54s-2.72,4.44-5.26,4.44a4.79,4.79,0,0,1-5-4.56C3.3,434.06,5.78,432.2,8.24,432.2Zm.4,7c1.46,0,4.22-.46,4.22-2.42s-2.64-2.52-4.18-2.52S4,434.68,4,436.62,7.1,439.16,8.64,439.16Z"/><path class="cls-2" d="M8.24,442.74c2.6,0,5.28,1.72,5.28,4.54s-2.72,4.44-5.26,4.44a4.79,4.79,0,0,1-5-4.56C3.3,444.6,5.78,442.74,8.24,442.74Zm.4,7c1.46,0,4.22-.46,4.22-2.42s-2.64-2.52-4.18-2.52S4,445.22,4,447.16,7.1,449.7,8.64,449.7Z"/><path class="cls-2" d="M15.38,454.46c1.74,0,1.66-.28,1.76-1.7h.58l1.14,3.46H6.26c-1.88,0-2,0-2.16,1.38H3.52v-4.48H4.1c.16,1.34.28,1.34,2.16,1.34Z"/><path class="cls-2" d="M10.4,465.92l-.26-.48c1.26-1,2.72-2.18,2.72-3.8a1.49,1.49,0,0,0-1.36-1.58c-2.44,0-1.52,6.28-5.18,6.28a3.24,3.24,0,0,1-3-3.26,4.21,4.21,0,0,1,.28-1.32,2.36,2.36,0,0,0,.18-.74,1.85,1.85,0,0,0-.46-1.16l3.4-1.24.22.44c-1.26.76-3,2.64-3,4.14A1.71,1.71,0,0,0,5.6,465c2.58,0,1.46-6.22,5.08-6.22a3,3,0,0,1,2.84,3.14c0,.72-.32,1.42-.32,2a1.15,1.15,0,0,0,.46.9Z"/><path class="cls-2" d="M146.53,92.26l-.63.53-3.17-.11v8.65h3.91l17-.31.73.74V112.1l-.73.74-17-.32h-3.91v8.12c0,2.22,0,2.22,4.12,2.22,5.49,0,6.75-.21,7.28-8.34l10.45,4.54a1.92,1.92,0,0,1,1.47,2.11c-.42,4.85-1.16,7.81-3.48,10.13-2.95,3.06-6,3.8-19.2,3.8-12.45,0-14.56-2.32-14.56-11.19l.31-11.39h-7.7c-2.32,13.4-10.87,20.47-25.11,24.37a5.21,5.21,0,0,1-1.16.21,2.54,2.54,0,0,1-2-1.16l-7.81-9.39c12.46-3.06,19.42-6.54,22-14h-.84l-17,.32-.74-.74V101.55l1-.53,16.78.31h1.9V92.79h-1.69l-.74-.64V90.89a71.12,71.12,0,0,1-11.29,6.75,3.2,3.2,0,0,1-1.58.42,2.15,2.15,0,0,1-1.69-1l-4.43-5.69c-.64,20.15-3.91,32.92-10,43.89a1.28,1.28,0,0,1-1.16.84,1.42,1.42,0,0,1-1-.52l-9.5-9.39c5.59-12.24,7.7-22.9,7.7-42.95V62.61L72.57,45l.74-.74,17.51.32h21V36.76l.74-.74H126.7l.73.74v7.81h20.79l16.67-.32.74.74V55l-.74.74-16.67-.31H136.61a51,51,0,0,0,3.49,7.8,65.14,65.14,0,0,0,5.48-6.85l.95-.11,8.55,6.44v1.05a107.39,107.39,0,0,1-8.76,7.92c1,1,2,2,3,3a69.86,69.86,0,0,0,7.07-8.23l.94-.11,8.45,6.12v1.06a85.92,85.92,0,0,1-7.6,7.49,64.5,64.5,0,0,0,10.13,4.75l-7.81,9.71a2.56,2.56,0,0,1-2,1.26,3.65,3.65,0,0,1-1.9-.63,72,72,0,0,1-10-6.54ZM138.2,81.71a63.11,63.11,0,0,1-13.09-21.95l.43-1,8.75-3.27H87V87.3a64.36,64.36,0,0,0,9.81-4.85,72.66,72.66,0,0,0-6.54-5.28l.11-1,8-6.12h1.16a72,72,0,0,1,6.33,5.17,30.15,30.15,0,0,0,4.43-5.7H101.9l-10.34.32-.63-.84V59.13l.63-.63,10.34.31h10.55l6.75-.53,6,5.7c.63.63,1,1.06,1,1.69a4.89,4.89,0,0,1-.53,1.69,59,59,0,0,1-9.5,14.45h18.47ZM122,92.47v8.86h7.17V92.47Z"/><path class="cls-3" d="M67.71,243.22l-.74-.64v-11.5l.64-.63,12.24.32V211l.53-.63H92.83l.63.63v19.63l9.18-.21.53.53v11.71l-.53.53L93.46,243v13.51l3.37-2.32H98a66.55,66.55,0,0,1,9.7,11.71l-.31.74L99,273.39l-.74-.31c-1.38-2.43-3-5-4.75-7.5v6.34l.74,39.14h-15L80,273.5a74.3,74.3,0,0,1-5.7,12.77,1.54,1.54,0,0,1-1.26,1,2,2,0,0,1-1.58-1.17L65,275.5c5.91-8.54,10.66-18.57,14.24-32.6Zm94,66.15c-.43.64-.74.95-1.27.95a5.92,5.92,0,0,1-1.58-.42c-9.6-3.59-17.41-7.81-23.85-13a81,81,0,0,1-25.74,14,6.65,6.65,0,0,1-1.69.42,1.82,1.82,0,0,1-1.48-.85L97.89,300.4c10.66-3.58,19.94-7.7,27.43-13.61-4.64-6.33-8.12-13.82-10.76-22.89l.64-1.06,11.18-4.54.84.74a50.85,50.85,0,0,0,7.92,17.2,49.17,49.17,0,0,0,7.17-17.41l.85-.42,12.66,4.64.1,1.06a63.62,63.62,0,0,1-10.86,22.26c6.54,4.86,14.56,8.44,24.16,11.19Zm-29.55-63.2-.1,1.06c-7.6,6.85-13.61,11-20.89,14.56a2,2,0,0,1-1,.31c-.53,0-.95-.31-1.59-1.16l-7.7-9.07c8-3.69,15.3-8.13,20.68-13.72h1.06Zm-4.53-35.24.73-.74h13.4l.64.74v14.24h10.87l13.29-.31.84.74-.1,11.29-.74.73-13.29-.31h-34l-13.4.31-.63-.73V225.6l.63-.74,13.4.31h8.34Zm32.6,50.12-.84.1a100.85,100.85,0,0,0-20.58-13.5l-.11-1.06,6.86-8.23.95-.21a85.18,85.18,0,0,1,21.32,11.5l.1,1.06Z"/><path class="cls-2" d="M142.84,453c7.07,6.43,16.14,11.82,25.85,15.93l-7.81,10.55a2.18,2.18,0,0,1-1.79,1.16,2.72,2.72,0,0,1-1.58-.53,79.14,79.14,0,0,1-19.95-16.77l.95,24.06h-15.3l.85-23.53a81.58,81.58,0,0,1-20.15,17.3,3.38,3.38,0,0,1-1.69.53c-.74,0-1.27-.42-2-1.27l-7.7-8.86A80.53,80.53,0,0,0,118.36,453h-5.49l-13.82.31-.74-.73v-9a7,7,0,0,1-1.26.63c-2.11.84-4.22,1.69-6.55,2.53v2L91,472.31c0,12.24-4.75,15.4-17.62,15.4-1.27,0-1.58-.21-2-1.26l-5.28-13.19a59.57,59.57,0,0,0,7.81-.43c2.21-.21,2.85-.84,2.85-3.37v-18c-1.9.63-3.91,1.16-6,1.68l-1-.52L65.6,440.23l.53-1c3.8-.74,7.39-1.58,10.66-2.32v-17.2l-8.65.21-.74-.63v-11.5l.63-.64,8.76.22V387.37l.84-.85H89.55l1,.74v20.16l8.34-.22.63.53v11.71l-.63.53-8.34-.21v13.4c3-1,5.81-1.9,8.76-2.85v10.55l13.61.32h11v-9.81l.53-.53h11.71c-1.59-1.37-2-3.69-2-7.91v-17l.85-.63h11.92l.84.73v13.4c0,1.27.32,1.48,2,1.48,2.32,0,3.16-.42,3.48-5.91l10.45,3.91c1.05.42,1.16.73,1.05,1.69-.42,4.32-1.05,6.54-3.48,8.65-3.17,2.85-5.59,3.27-14.56,3.27-4.12,0-7-.11-8.86-.74v9.39h14l13.93-.32.63.53v11.29l-.63.63L151.81,453ZM99.37,425.35c14.45-3.27,17-8,17.72-19.2l.85-.63,12.55,2.11.95.95c-2.21,15.82-8.65,23.53-21.42,26.8a7.51,7.51,0,0,1-1.37.21,1.83,1.83,0,0,1-1.58-.64Zm1.79-25.64-.32-7.7.85-.74,12.24.32H151.7l13-.32.74.74-.32,7.6v3.27l.53,9.71H151.07V403h-36.4v9.61h-14l.53-9.71Z"/><path class="cls-2" d="M105.59,641.73A105.16,105.16,0,0,1,78.9,656a3.65,3.65,0,0,1-1.37.31c-.64,0-1.06-.31-1.69-1.16l-7.6-9.49A93.68,93.68,0,0,0,94.73,633.4h1l9.81,7.28Zm13.51-44.1c-3.38,4.32-6.86,8.23-10.45,12.13,1.69,1.16,3.27,2.32,5,3.48,4.75-5.48,9.29-11.18,13.19-16.56l1.06-.21,11,6.33L139,604c-4.75,5.7-9.81,11.18-15,16.25,4.64-.21,9.18-.32,13.82-.64-1.48-1.37-3.06-2.63-4.64-3.9l.1-1,8.23-5.7,1.27-.11A111.59,111.59,0,0,1,163,627.38v1.27l-9.81,7.81-1.16-.11c-2-2.53-3.69-4.75-5.49-6.86-7.49.64-14.87,1.16-22.37,1.8v9.92l.53,17.51H108.76l.53-17.51v-9c-10.77.63-22.06,1.16-34.51,1.9l-1-.53-4.11-11.82.74-1c11.5.1,21.94.1,31.86,0a176.55,176.55,0,0,0-18.57-11.29v-1.06L91.56,600l1.06-.32c2,1.16,4,2.32,6,3.59,2.43-3.16,4.64-6.54,6.75-9.92H83.75v12.56H68.66l.53-12.24v-1.9l-.32-9.6.74-.74,17.52.31H109V577H91.14l-15.93.31-.74-.63V565.45l.63-.64,16,.32H109v-6.75l.74-.85h13.71l.85.74v6.86h18.78l16-.32.63.53v11.4l-.63.52-16-.31H124.27v4.74H147l17.51-.31.74.74-.32,8.65v2.85l.53,12H149.91V593.3h-37l6.12,3.17Zm36.3,58.14-1.06.31a138.79,138.79,0,0,0-26.27-14l-.21-1.06,7.7-8.54,1.16-.21a142.3,142.3,0,0,1,26.59,12.87l.21,1.16Z"/><path class="cls-4" d="M223.59,272.85a7.28,7.28,0,0,1-.62,1.94c-.21.49-.39.91-.55,1.26s-.28.62-.37.81a3.63,3.63,0,0,0-.28,1.59l0,.57a.34.34,0,0,1-.11.25.33.33,0,0,1-.25.1c-.32,0-.68-.41-1.07-1.25a9.27,9.27,0,0,1-.58-3.83,40.49,40.49,0,0,1,.94-7.36,4,4,0,0,0,.06-.61,2.2,2.2,0,0,0-.63-1.31.46.46,0,0,1-.12-.26c0-.06,0-.1.12-.1a3.27,3.27,0,0,1,1.07.57c.57.37.86.75.86,1.12a2.16,2.16,0,0,1-.32.9,14.94,14.94,0,0,0-.75,3.08,25.65,25.65,0,0,0-.44,4.33,5.86,5.86,0,0,0,.17,1.61q.16.54.33.54c.12,0,.23-.08.36-.25a3.65,3.65,0,0,0,.27-.49l.44-.89q.27-.57.51-1.14c.16-.38.32-.78.47-1.18.07-.2.16-.29.28-.29S223.59,272.65,223.59,272.85Zm8.75,2.32a11,11,0,0,1,2.4,1.05,4.4,4.4,0,0,1,1.34,1,1.61,1.61,0,0,1,.33.64.33.33,0,0,1-.27.32.44.44,0,0,1-.5-.13,8.31,8.31,0,0,0-3.24-2.24,2.52,2.52,0,0,1-1,2.07,3.47,3.47,0,0,1-2.35.84,5.15,5.15,0,0,1-2.38-.53,1.68,1.68,0,0,1-1-1.59,1.88,1.88,0,0,1,.86-1.59,3.61,3.61,0,0,1,2-.58,12.6,12.6,0,0,1,2.85.42c-.14-1.28-.24-2.48-.32-3.58s-.12-2.12-.14-3.07a15.42,15.42,0,0,1-3,.37,2.78,2.78,0,0,1-1.73-.46,2.44,2.44,0,0,1-.42-.37,1.24,1.24,0,0,1-.16-.22.1.1,0,0,1,0-.11.2.2,0,0,1,.11,0,1.82,1.82,0,0,1,.44.19,3.54,3.54,0,0,0,.81.29,5.89,5.89,0,0,0,1.17.09,10.21,10.21,0,0,0,1.05-.07c.46,0,1-.11,1.69-.2a19,19,0,0,1,.12-1.93,8.11,8.11,0,0,0,.09-.92.79.79,0,0,0-.21-.52,3.08,3.08,0,0,0-.75-.59.3.3,0,0,1-.19-.29c0-.18.1-.27.29-.27a2.62,2.62,0,0,1,1.28.37,1.11,1.11,0,0,1,.65,1,1.64,1.64,0,0,1-.23.77,5.63,5.63,0,0,0-.19,2.16,6.92,6.92,0,0,0,2.11-1,1.14,1.14,0,0,1,.67-.27,3.05,3.05,0,0,1,.82.15c.35.09.52.21.52.34s-.14.24-.42.31l-3.7,1C231.84,270.14,232,272.49,232.34,275.17Zm-.92.38a8.24,8.24,0,0,0-2.41-.4,4.49,4.49,0,0,0-1.92.4,1.2,1.2,0,0,0-.88,1.13,1,1,0,0,0,.21.63,1.61,1.61,0,0,0,.57.44,3,3,0,0,0,.83.26,5,5,0,0,0,1,.09,2.67,2.67,0,0,0,1.8-.69A2.5,2.5,0,0,0,231.42,275.55Z"/><path class="cls-4" d="M226.12,293.34a1.35,1.35,0,0,1-.23.55c-.12.22-.4.83-.83,1.84-.21.49-.39.9-.52,1.23s-.25.6-.32.8a3.23,3.23,0,0,0-.19.77,1,1,0,0,0,.07.4,1,1,0,0,1,.06.33.44.44,0,0,1-.14.31.45.45,0,0,1-.34.13,2.33,2.33,0,0,1-1.47-.81,6.49,6.49,0,0,1-1.48-2.68,14.8,14.8,0,0,1-.61-4.46c0-.55,0-1.11.06-1.66s.12-1.09.21-1.62a2.83,2.83,0,0,0,.07-.63,2.21,2.21,0,0,0-.46-1.38.41.41,0,0,1-.13-.3c0-.1.08-.16.23-.16a2.05,2.05,0,0,1,1,.48c.45.33.67.63.67.92a2,2,0,0,1-.25.82,5.58,5.58,0,0,0-.39,1.53,16,16,0,0,0-.15,2.34,15.61,15.61,0,0,0,.21,2.59,9.9,9.9,0,0,0,.54,2.07c.13.27.24.47.33.62a1.4,1.4,0,0,0,.25.33.38.38,0,0,0,.23.14.9.9,0,0,0,.24,0,.65.65,0,0,0,.63-.35l1.15-2.24c.64-1.24,1-1.91,1.08-2a.48.48,0,0,1,.31-.1C226.06,293.18,226.12,293.23,226.12,293.34Zm9.46.86a7.82,7.82,0,0,1-.13,1.45c-.08.47-.21.76-.39.86a.89.89,0,0,1-.49.16.3.3,0,0,1-.27-.13.8.8,0,0,1-.08-.4q0-.28,0-.75c0-.3,0-.69.05-1.15a10.18,10.18,0,0,0-.88-4.41,3.94,3.94,0,0,0-2.8-2.32c-.31-.06-.46-.17-.46-.36s.13-.27.39-.27a4.91,4.91,0,0,1,1.45.44,4,4,0,0,1,1.48,1,6.78,6.78,0,0,1,1.12,1.61,8.64,8.64,0,0,1,.73,2A10.72,10.72,0,0,1,235.58,294.2Z"/><path class="cls-4" d="M234.76,317.61a1.12,1.12,0,0,1,.55.12.84.84,0,0,1,.3.29.56.56,0,0,1,.07.36.51.51,0,0,1-.17.33,2.85,2.85,0,0,1-1.21.42,16.65,16.65,0,0,1-2.26.34c-.83.07-1.67.1-2.51.1-2.95,0-4.91-.33-5.85-1a2.9,2.9,0,0,1-1.43-2.39,3.86,3.86,0,0,1,.63-1.9c.43-.72.73-1.09.9-1.09s.19.06.19.17a.3.3,0,0,1,0,.13,4.16,4.16,0,0,0-.88,2.4,2.41,2.41,0,0,0,.92,1.88c.61.53,1.93.8,3.95.8.63,0,1.25,0,1.85-.07s1.21-.09,1.81-.16a7.81,7.81,0,0,0,2.28-.48A1.79,1.79,0,0,1,234.76,317.61Zm-3.41-11.4a2.16,2.16,0,0,1,1.09.35c.4.24.61.48.61.73s-.3.46-.88.46a5.93,5.93,0,0,0-1.91.72,11.41,11.41,0,0,0-2.23,1.31.35.35,0,0,1-.22.09c-.08,0-.12,0-.12-.11a1.23,1.23,0,0,1,0-.21,1,1,0,0,1,.22-.23l.52-.41.71-.54.83-.62c.12-.07.17-.14.17-.23s-.1-.12-.29-.12l-.59,0-1.17.13-1.18.13a6.13,6.13,0,0,0-.62.1,2.74,2.74,0,0,1-.56.06,1.67,1.67,0,0,1-1.28-.61c-.35-.4-.52-.67-.52-.81s.05-.21.16-.21a.69.69,0,0,1,.41.23,1.6,1.6,0,0,0,.54.33,4.78,4.78,0,0,0,1.27.11c.34,0,.73,0,1.16,0s.94-.07,1.48-.13a6.14,6.14,0,0,0,1.84-.36A.87.87,0,0,1,231.35,306.21Z"/><path class="cls-4" d="M233.65,335.11a8.07,8.07,0,0,1-.83,3.33,7.12,7.12,0,0,1-2.24,2.86,8.36,8.36,0,0,1-3.18,1.44,12.35,12.35,0,0,1-2.61.4c-.39,0-.59-.09-.59-.27s.08-.27.23-.27a12.29,12.29,0,0,0,2.07-.4,8.6,8.6,0,0,0,3.12-1.51,6.39,6.39,0,0,0,2.09-2.86,9.48,9.48,0,0,0,.67-3.25,3.36,3.36,0,0,0-.9-2.42,3.24,3.24,0,0,0-2.49-.94q-1.59,0-5.67,3.14a1.35,1.35,0,0,1-.77.33,1.26,1.26,0,0,1-.73-.29.82.82,0,0,1-.38-.69,1.69,1.69,0,0,1,.48-1c.33-.38.56-.57.67-.57s.19,0,.19.13a.72.72,0,0,1-.11.31.5.5,0,0,0,0,.49c.09.12.3.08.63-.11a16.62,16.62,0,0,1,4.29-2.16,9.08,9.08,0,0,1,2.05-.33,3.52,3.52,0,0,1,2.9,1.34A4.92,4.92,0,0,1,233.65,335.11Zm-4-9a1,1,0,0,1,.7.3.86.86,0,0,1,.3.6c0,.34-.27.57-.81.67a2.85,2.85,0,0,0-.63.14c-.21.07-.42.15-.65.25l-1,.49-1.69.89a.64.64,0,0,1-.34.09c-.18,0-.27-.05-.27-.13a.46.46,0,0,1,0-.21l.33-.22.82-.51,1.26-.75c.11-.07.16-.13.16-.17a.12.12,0,0,0-.09-.13,4.5,4.5,0,0,0-.53,0,4.6,4.6,0,0,1-2.39-.58c-.65-.41-1-.76-1-1.05s.06-.23.18-.23a.44.44,0,0,1,.32.15,4.23,4.23,0,0,0,2.78.77,5.79,5.79,0,0,0,1.57-.18A4.22,4.22,0,0,1,229.7,326.12Z"/><path class="cls-4" d="M224.79,351a8.55,8.55,0,0,0,1.37-.37,1.79,1.79,0,0,0,.67-.47.94.94,0,0,1,.74-.31,1,1,0,0,1,.68.21.66.66,0,0,1,.22.43.55.55,0,0,1-.25.4,4.35,4.35,0,0,1-1.28.46l-1.11.24c-.39.08-.8.15-1.23.22-.28,1-.6,2.05-1,3.17s-.77,2.33-1.22,3.63c-.9,2.58-1.41,3.94-1.52,4.1a.52.52,0,0,1-.4.27c-.14,0-.25-.11-.34-.31a2.72,2.72,0,0,1-.1-.83,1.73,1.73,0,0,1,.33-1,16,16,0,0,0,1.24-2.91c.3-.81.62-1.71.93-2.7s.64-2.08,1-3.26a16.26,16.26,0,0,1-2.51.25,1.53,1.53,0,0,1-1.34-.57,1.85,1.85,0,0,1-.37-.76c0-.13,0-.2.12-.2a.88.88,0,0,1,.42.25,1.94,1.94,0,0,0,.69.38,3.69,3.69,0,0,0,1.05.13c.22,0,.51,0,.88-.07s.79-.11,1.29-.21a13,13,0,0,0,.59-2.61,1.91,1.91,0,0,0-.3-1.23.32.32,0,0,1-.1-.23.2.2,0,0,1,.23-.23,2.16,2.16,0,0,1,.9.52c.44.36.67.65.67.88a1,1,0,0,1-.27.65A7.85,7.85,0,0,0,224.79,351Zm9.49,10.39a1.32,1.32,0,0,1,.77.24c.24.16.36.32.36.49a.46.46,0,0,1-.31.42,4.77,4.77,0,0,1-1,.29,8.71,8.71,0,0,1-1.69.15,9.82,9.82,0,0,1-3.85-.73,2.33,2.33,0,0,1-1.68-2.14,1.81,1.81,0,0,1,.09-.58,1.56,1.56,0,0,1,.21-.47,1.17,1.17,0,0,1,.25-.31.33.33,0,0,1,.21-.1c.11,0,.17,0,.19.08a.5.5,0,0,1,0,.23,3.49,3.49,0,0,0-.12.38,2,2,0,0,0-.06.5,1.67,1.67,0,0,0,1,1.49,6.18,6.18,0,0,0,2.78.52,5.44,5.44,0,0,0,2.37-.34A1.17,1.17,0,0,1,234.28,361.4Zm.92-9.39c0,.22-.16.37-.48.44a4.69,4.69,0,0,0-1,.33A9.93,9.93,0,0,0,232,354l-.95.75-.43.35a.41.41,0,0,1-.27.15c-.1,0-.16,0-.18-.08s0-.16.11-.31a5.4,5.4,0,0,1,.49-.58,11.88,11.88,0,0,1,.94-.93,5.09,5.09,0,0,1,1.11-.92c.2-.11.31-.21.31-.29s-.11-.11-.34-.11l-.9,0-.94.06-1.56.17c-.19,0-.28-.06-.28-.17s.38-.45,1.13-.69a9.42,9.42,0,0,1,2.66-.35,3.32,3.32,0,0,1,1.92.35C235.07,351.63,235.2,351.83,235.2,352Z"/><path class="cls-4" d="M236.33,379.07a4.77,4.77,0,0,1-1,1.76,8.77,8.77,0,0,1-1,1.21,8.2,8.2,0,0,1-1.19,1,4.18,4.18,0,0,1-2.32.84,2.07,2.07,0,0,1-1.63-.63,2.25,2.25,0,0,1-.57-1.57c0-.32,0-.81.1-1.47s.16-1.51.3-2.54a1.37,1.37,0,0,0,0-.19v-.17a1.32,1.32,0,0,0-.44-1.06,1.92,1.92,0,0,0-1.4-.4,3,3,0,0,0-1.9.73,15.84,15.84,0,0,0-1.82,1.7,9.53,9.53,0,0,0-.89,1.07,12.68,12.68,0,0,0-.83,1.33c-.26.49-.49,1-.69,1.42s-.35.91-.48,1.34-.31.67-.56.67-.31-.16-.38-.48a3.72,3.72,0,0,1-.1-.82,1.9,1.9,0,0,1,.23-.83,7.74,7.74,0,0,1,.92-1.38,60.2,60.2,0,0,0,3.3-6.07q2.61-5.19,2.61-6.1a1,1,0,0,0-.39-.9.49.49,0,0,1-.25-.4c0-.15.1-.23.31-.23a2.15,2.15,0,0,1,1,.54,1.47,1.47,0,0,1,.72,1.17,1.33,1.33,0,0,1-.4.92,23.08,23.08,0,0,0-1.65,3c-.42.84-.8,1.58-1.13,2.21s-.63,1.17-.88,1.6a14.21,14.21,0,0,0-.73,1.36c0,.06,0,.08,0,.08s.12-.07.25-.23a6.15,6.15,0,0,1,.68-.7,13.08,13.08,0,0,1,1-.84,3.78,3.78,0,0,1,2.26-.95,2.78,2.78,0,0,1,1.84.65,2,2,0,0,1,.78,1.63c0,.07,0,.14,0,.19a1.62,1.62,0,0,1,0,.19,24.08,24.08,0,0,0-.41,3.35,2.4,2.4,0,0,0,.3,1.37,1.05,1.05,0,0,0,.91.4,4.14,4.14,0,0,0,2.25-.84,12.8,12.8,0,0,0,2.75-2.88.45.45,0,0,1,.34-.21C236.27,378.84,236.33,378.92,236.33,379.07Z"/><path class="cls-4" d="M229.24,393.4c.32.53.68,1.07,1.09,1.64s.84,1.16,1.32,1.79l.78,1.06c.22.31.39.58.53.8a2.39,2.39,0,0,1,.42,1.27c0,.42-.15.63-.44.63a1.38,1.38,0,0,1-.83-.52,5.18,5.18,0,0,0-2.24-.92,14.17,14.17,0,0,0-3.39-.4,4,4,0,0,0-2.93.84,2.56,2.56,0,0,0-.79,1.8,2.07,2.07,0,0,0,1.36,2,7,7,0,0,0,3,.63,4.74,4.74,0,0,0,2.26-.37,2.09,2.09,0,0,1,1-.36,1.5,1.5,0,0,1,.45.07,1.89,1.89,0,0,1,.43.2,1.7,1.7,0,0,1,.31.26.38.38,0,0,1,.13.26.49.49,0,0,1-.23.4,5,5,0,0,1-1.42.36,12.58,12.58,0,0,1-2.22.21,9.14,9.14,0,0,1-4.2-1,2.92,2.92,0,0,1-1.93-2.59,3,3,0,0,1,1.42-2.4,6,6,0,0,1,3.66-1,14.84,14.84,0,0,1,4.75.84.66.66,0,0,0,.45.06c.08,0,0-.16-.13-.35-.53-.63-1.09-1.35-1.66-2.17s-1.18-1.74-1.82-2.77c-.62.19-1.29.38-2,.56l-1.17.3a3.52,3.52,0,0,1-.51,0,6.37,6.37,0,0,1-2-.34,4.48,4.48,0,0,1-1.49-.71,1.39,1.39,0,0,1-.38-.48c0-.12-.06-.21,0-.27a.16.16,0,0,1,.19-.06.38.38,0,0,1,.24.14,4.71,4.71,0,0,0,2.89.78,10.72,10.72,0,0,0,3.72-.69q-1-1.72-1.38-2.43a3.34,3.34,0,0,0-.32-.53,1,1,0,0,0-.35-.29.93.93,0,0,0-.41-.12l-.55,0c-.42,0-.63-.1-.63-.29s.2-.37.59-.51a3.28,3.28,0,0,1,1.07-.23,1.27,1.27,0,0,1,1.36,1.09,7.76,7.76,0,0,0,.49,1.29c.23.49.54,1.07.93,1.72a13.67,13.67,0,0,0,2.32-1.29,1.32,1.32,0,0,1,.82-.27,2.55,2.55,0,0,1,.86.15c.29.11.43.21.43.33s-.12.24-.35.39-.29.16-.53.28-.53.24-.9.39-.72.3-1.07.43S229.6,393.29,229.24,393.4Z"/><path class="cls-4" d="M232,425.54q0,.69-.42.69a.5.5,0,0,1-.44-.29,11.54,11.54,0,0,0-2.74-2.84c-1.42-1.18-3.36-2.58-5.81-4.23a1.15,1.15,0,0,1-.54-1,1.11,1.11,0,0,1,.33-.8c.11-.11.55-.47,1.33-1.07s1.88-1.46,3.31-2.54c.21-.16.46-.35.74-.58s.59-.51.94-.83l.83-.78c.21-.2.35-.35.42-.43a.85.85,0,0,0,.21-.38c0-.18-.26-.34-.77-.48-.16,0-.24-.1-.27-.17a.28.28,0,0,1,0-.23.49.49,0,0,1,.23-.19.77.77,0,0,1,.34-.08,2.48,2.48,0,0,1,1.36.57c.52.35.78.65.78.92s-.26.52-.76.81a17.64,17.64,0,0,0-1.71,1.2l-1.25.95-1.83,1.35-2.69,1.94-.46.34a.81.81,0,0,0-.23.21.59.59,0,0,0-.11.36c0,.15.15.32.46.51q4.66,3,6,4a19.07,19.07,0,0,1,2,1.67A1.94,1.94,0,0,1,232,425.54Z"/></g></g></svg>