<svg xmlns="http://www.w3.org/2000/svg" viewBox="0 0 342.38 114.64"><defs><style>.cls-1,.cls-3{fill:#fff;}.cls-2{fill:none;}.cls-2,.cls-3{stroke:#fff;stroke-miterlimit:10;}.cls-3{stroke-width:0.5px;}</style></defs><g id="レイヤー_2" data-name="レイヤー 2"><g id="footer"><path class="cls-1" d="M121.43,110.62h-.28c0-1.25-.83-1.31-1.6-1.26h-.4v2.26c0,.79.11,1,1,1,1.6,0,1.88-.4,2.86-1.63l.23.1-.72,1.86h-5.24v-.33c.77,0,.91-.25.91-1.33v-3.83c0-1.08-.14-1.34-.91-1.34v-.32h5.11l.68,1.67-.24.14c-.86-1.14-1.18-1.49-2.62-1.49-1,0-1,.16-1,1.11V109h.4c.92,0,1.54-.17,1.61-1.22h.27Z"/><path class="cls-1" d="M127.29,111.67c.29.38.73,1,1.27,1v.29h-2.27v-.29c.15,0,.47,0,.47-.21s-.23-.38-.31-.48l-.74-.92-.54.69c-.11.16-.34.37-.34.57s.42.35.65.35v.29h-2.15v-.29c.66-.08,1.07-.67,1.45-1.14l.65-.83-1.18-1.48c-.22-.28-.56-.75-1-.76v-.28h2.33v.28c-.24,0-.59,0-.59.26s.27.48.38.62l.55.69.49-.64c.12-.15.35-.41.35-.61s-.33-.32-.57-.32v-.28h2.06v.28c-.58,0-.86.39-1.19.8l-.87,1.14Z"/><path class="cls-1" d="M130.18,113.3c0,.91,0,1,.65,1.06v.28h-2.18v-.28c.67-.09.67-.15.67-1.06v-3.81c0-.52-.06-.7-.65-.7v-.24l1.51-.58v.7a2.13,2.13,0,0,1,1.38-.63c1.23,0,1.87,1.31,1.86,2.38s-.6,2.61-2,2.61a1.81,1.81,0,0,1-1.25-.59Zm0-1.25a1.66,1.66,0,0,0,1,.56c1.07,0,1.27-1.33,1.27-2.16s-.25-2-1.29-2a1.65,1.65,0,0,0-1,.59Z"/><path class="cls-1" d="M134.6,107.13c0-.84-.14-.81-.83-.85V106l1.69-.55v6.15c0,.92,0,1,.67,1v.29H134v-.29c.65-.08.65-.13.65-1Z"/><path class="cls-1" d="M136.59,110.62a2.22,2.22,0,1,1,4.39,0,2.21,2.21,0,1,1-4.39,0Zm3.4-.19c0-.72-.23-2.06-1.18-2.06s-1.23,1.28-1.23,2,.22,2.3,1.17,2.3S140,111.18,140,110.43Z"/><path class="cls-1" d="M143.08,111.59c0,.92,0,1,.66,1v.29h-2.16v-.29c.64-.08.64-.13.64-1v-2.1c0-.52,0-.7-.63-.7v-.24l1.49-.58v1.16c.37-.46,1-1.16,1.6-1.16a.58.58,0,0,1,.61.57.52.52,0,0,1-.53.55c-.34,0-.47-.26-.78-.26s-.73.45-.9.73Z"/><path class="cls-1" d="M147,111.59c0,.92,0,1,.66,1v.29h-2.19v-.3c.67-.08.67-.14.67-1v-2.09c0-.52,0-.7-.64-.7v-.24L147,108Zm-.56-4.62a.65.65,0,0,1,0-1.3.65.65,0,1,1,0,1.3Z"/><path class="cls-1" d="M149.54,111.59c0,.92,0,1,.65,1v.29H148v-.29c.67-.08.67-.13.67-1v-2.1c0-.52,0-.7-.64-.7v-.24l1.5-.58v.83a2.3,2.3,0,0,1,1.53-.76,1.36,1.36,0,0,1,.93.38,1.79,1.79,0,0,1,.33,1.27v1.9c0,.92,0,1,.65,1v.29H150.8v-.29c.67-.08.67-.13.67-1v-1.71c0-.59,0-1.32-.81-1.32a1.76,1.76,0,0,0-1.12.65Z"/><path class="cls-1" d="M156.19,112.23c.66.17,1.82.32,1.82,1.21,0,1.08-1.49,1.2-2.31,1.2-.64,0-2.43-.08-2.43-1,0-.7,1-.86,1.48-1-.28-.1-1-.27-1-.69s.53-.64.87-.71a1.69,1.69,0,0,1-.83-1.49,1.83,1.83,0,0,1,2-1.71,1.92,1.92,0,0,1,1.31.47,1.58,1.58,0,0,1,1-.52.51.51,0,0,1,.5.53.45.45,0,0,1-.4.47c-.36,0-.4-.39-.75-.39a.31.31,0,0,0-.18.09,1.66,1.66,0,0,1,.39,1.12,1.83,1.83,0,0,1-1.91,1.71,2.29,2.29,0,0,1-.82-.15c-.1,0-.28.1-.28.25s.65.38.82.43Zm-.94.53c-.4.13-1.12.34-1.12.87s1.17.69,1.67.69,1.48-.06,1.48-.61c0-.36-.44-.49-.72-.58Zm.47-4.39c-.75,0-1,.84-1,1.45s.29,1.38,1,1.38,1-.74,1-1.35S156.43,108.37,155.72,108.37Z"/><path class="cls-1" d="M167.32,107.54l-.24.11a3.63,3.63,0,0,0-2.39-1.58c-1.62,0-2.08,1.75-2.08,3.06s.72,3.31,2.39,3.31a2.69,2.69,0,0,0,2.24-1.56l.2.11a3.15,3.15,0,0,1-2.81,2,3.21,3.21,0,0,1-3.15-3.41,4.63,4.63,0,0,1,.79-2.52,2.82,2.82,0,0,1,2.3-1.43,2.19,2.19,0,0,1,.81.16,2.11,2.11,0,0,0,.63.14,1.41,1.41,0,0,0,.66-.2Z"/><path class="cls-1" d="M168.66,107.13c0-.84-.14-.81-.83-.85V106l1.69-.55v6.15c0,.92,0,1,.67,1v.29H168v-.29c.66-.08.66-.13.66-1Z"/><path class="cls-1" d="M170.65,110.62a2.22,2.22,0,1,1,4.38,0,2.2,2.2,0,1,1-4.38,0Zm3.4-.19c0-.72-.23-2.06-1.18-2.06s-1.23,1.28-1.23,2,.22,2.3,1.17,2.3S174.05,111.18,174.05,110.43Z"/><path class="cls-1" d="M179.4,109.57l-.24.12c-.48-.61-1.06-1.32-1.85-1.32a.73.73,0,0,0-.77.66c0,1.19,3.06.74,3.06,2.53A1.58,1.58,0,0,1,178,113a2.28,2.28,0,0,1-.64-.13,1.19,1.19,0,0,0-.36-.09.92.92,0,0,0-.57.22l-.61-1.66.22-.1a3,3,0,0,0,2,1.44.84.84,0,0,0,.86-.8c0-1.26-3-.71-3-2.48a1.47,1.47,0,0,1,1.53-1.39c.36,0,.7.16,1,.16a.55.55,0,0,0,.44-.23Z"/><path class="cls-1" d="M181.1,110.24c0,1,.29,2.37,1.51,2.37a2,2,0,0,0,1.6-.89l.17.16a2.27,2.27,0,0,1-1.9,1.15,2.37,2.37,0,0,1-2.36-2.45,2.41,2.41,0,0,1,2.23-2.54,2.12,2.12,0,0,1,2.07,2.2Zm2.33-.37c.06-.67-.24-1.5-1.09-1.5s-1.17.84-1.19,1.5Z"/><path class="cls-1" d="M188.32,107.13c0-.84-.14-.81-.83-.85V106l1.69-.55v6.15c0,.92,0,1,.66,1v.29h-1.52v-.56A2,2,0,0,1,187,113c-1.31,0-1.89-1.34-1.89-2.47,0-1.9,1.13-2.52,1.82-2.52a2.2,2.2,0,0,1,1.41.64Zm0,2a1.67,1.67,0,0,0-1.08-.62c-1,0-1.23,1.35-1.23,2.08s.25,2.07,1.23,2.07a1.69,1.69,0,0,0,1.08-.6Z"/><path class="cls-1" d="M197.51,107.49l-.29.13A2.9,2.9,0,0,0,195,106a1.28,1.28,0,0,0-1.3,1.3c0,.85.9,1.19,1.58,1.4,1.23.38,2.49.71,2.49,2.26a2.07,2.07,0,0,1-2.19,2.08c-.61,0-1.14-.28-1.53-.28a1,1,0,0,0-.6.28l-.71-1.9.29-.14a3.62,3.62,0,0,0,2.49,1.72,1.37,1.37,0,0,0,1.45-1.32c0-2.26-4-1.11-4-3.73a1.92,1.92,0,0,1,2.07-2,2,2,0,0,1,.79.17,1.67,1.67,0,0,0,.52.11.66.66,0,0,0,.48-.18Z"/><path class="cls-1" d="M202.45,111.76a2.52,2.52,0,0,1-2.07,1.27,2.3,2.3,0,0,1-2.18-2.37,2.47,2.47,0,0,1,2.49-2.62c.55,0,1.6.34,1.6,1a.51.51,0,0,1-.53.49c-.72,0-.44-1.19-1.38-1.19s-1.2,1.32-1.2,2.08c0,.92.52,2.07,1.61,2.07a2.07,2.07,0,0,0,1.51-.89Z"/><path class="cls-1" d="M204.35,111.59c0,.92,0,1,.66,1v.29h-2.18v-.29c.66-.08.66-.13.66-1v-4.46c0-.84-.14-.81-.83-.85V106l1.69-.55v3.36a2.84,2.84,0,0,1,1.73-.76c1,0,1.23.75,1.23,1.76v1.79c0,.92,0,1,.65,1v.29h-2.17v-.29c.66-.08.66-.13.66-1V109.8c0-.68-.14-1.24-.79-1.24a2.11,2.11,0,0,0-1.31.65Z"/><path class="cls-1" d="M208.56,110.62a2.22,2.22,0,1,1,4.39,0,2.21,2.21,0,1,1-4.39,0Zm3.4-.19c0-.72-.22-2.06-1.18-2.06s-1.23,1.28-1.23,2,.23,2.3,1.17,2.3S212,111.18,212,110.43Z"/><path class="cls-1" d="M213.71,110.62a2.22,2.22,0,1,1,4.38,0,2.2,2.2,0,1,1-4.38,0Zm3.4-.19c0-.72-.23-2.06-1.18-2.06s-1.23,1.28-1.23,2,.22,2.3,1.17,2.3S217.11,111.18,217.11,110.43Z"/><path class="cls-1" d="M219.43,107.13c0-.84-.14-.81-.83-.85V106l1.69-.55v6.15c0,.92,0,1,.67,1v.29h-2.18v-.29c.65-.08.65-.13.65-1Z"/><path class="cls-1" d="M225,109.57l-.23.12c-.48-.61-1.06-1.32-1.86-1.32a.73.73,0,0,0-.77.66c0,1.19,3.07.74,3.07,2.53a1.58,1.58,0,0,1-1.59,1.47,2.35,2.35,0,0,1-.65-.13,1.06,1.06,0,0,0-.36-.09.92.92,0,0,0-.56.22l-.61-1.66.21-.1a3.06,3.06,0,0,0,2,1.44.84.84,0,0,0,.86-.8c0-1.26-3-.71-3-2.48a1.47,1.47,0,0,1,1.53-1.39c.35,0,.7.16,1,.16a.57.57,0,0,0,.44-.23Z"/><rect class="cls-2" x="13.01" y="27.47" width="59.4" height="59.4" transform="translate(-27.92 46.95) rotate(-45)"/><rect class="cls-2" x="98.7" y="27.47" width="59.4" height="59.4" transform="translate(-2.82 107.54) rotate(-45)"/><rect class="cls-2" x="184.43" y="27.47" width="59.4" height="59.4" transform="translate(22.29 168.16) rotate(-45)"/><rect class="cls-2" x="269.97" y="27.47" width="59.4" height="59.4" transform="translate(47.34 228.65) rotate(-45)"/><path class="cls-1" d="M57.16,60.45l-.31.26-1.54-.05v4.22h1.9l8.29-.15.37.36v5l-.37.36-8.29-.16h-1.9v4c0,1.08,0,1.08,2,1.08,2.67,0,3.29-.1,3.55-4.07L66,73.54a.94.94,0,0,1,.72,1c-.21,2.36-.57,3.81-1.7,4.94-1.44,1.49-2.94,1.85-9.37,1.85-6.08,0-7.11-1.13-7.11-5.46l.15-5.56H44.9c-1.13,6.54-5.3,10-12.25,11.9a2.74,2.74,0,0,1-.57.1,1.24,1.24,0,0,1-1-.56l-3.81-4.59C33.37,75.7,36.77,74,38,70.34h-.41l-8.29.16-.36-.36V65l.46-.26,8.19.15h.93V60.71h-.83l-.36-.31v-.62a34.49,34.49,0,0,1-5.51,3.3,1.63,1.63,0,0,1-.77.21,1,1,0,0,1-.82-.47L28.06,60c-.31,9.84-1.9,16.07-4.89,21.43a.62.62,0,0,1-.57.41.69.69,0,0,1-.51-.26L17.45,77c2.73-6,3.76-11.18,3.76-21V46l-.15-8.6.36-.36,8.55.16H40.22V33.36l.36-.36h6.9l.36.36v3.82H58L66.12,37l.36.36v4.89l-.36.36L58,42.48H52.32A24.57,24.57,0,0,0,54,46.29a31.66,31.66,0,0,0,2.68-3.35l.46,0L61.33,46v.52a49.56,49.56,0,0,1-4.27,3.86c.46.52,1,1,1.44,1.44a32.7,32.7,0,0,0,3.45-4l.46-.06,4.12,3v.52a40.8,40.8,0,0,1-3.7,3.65,30.89,30.89,0,0,0,4.94,2.32L64,62a1.27,1.27,0,0,1-1,.62,1.86,1.86,0,0,1-.93-.31,35.72,35.72,0,0,1-4.89-3.19ZM53.09,55.3a30.62,30.62,0,0,1-6.38-10.71l.2-.51,4.28-1.6H28.12V58a31.73,31.73,0,0,0,4.78-2.37,37.77,37.77,0,0,0-3.19-2.57l.05-.46,3.92-3h.56a34.4,34.4,0,0,1,3.09,2.52,14.54,14.54,0,0,0,2.17-2.78H35.38l-5.05.16L30,49.12V44.28l.31-.31,5.05.16h5.15l3.29-.26,2.94,2.78a1.14,1.14,0,0,1,.46.83,2.32,2.32,0,0,1-.26.82,28.77,28.77,0,0,1-4.63,7.06h9Zm-7.93,5.26v4.32h3.5V60.56Z"/><path d="M132.8,33.16l.36-.36h6.54l.31.36v7h5.3L151.8,40l.41.36-.05,5.51-.36.36L145.31,46H128.73l-6.54.16-.31-.36V40.32l.31-.36,6.54.15h4.07ZM103.55,48.92l-.36-.31V43l.3-.31,6,.15V33.21l.26-.31h6.07l.31.31v9.58l4.48-.1.26.25v5.72l-.26.26-4.48-.11v6.6l1.65-1.14h.57A32.66,32.66,0,0,1,123.06,60l-.15.36-4.12,3.3-.36-.16a41.45,41.45,0,0,0-2.32-3.65v3.09l.36,19.1h-7.31l.36-18.33a36.54,36.54,0,0,1-2.78,6.23.75.75,0,0,1-.62.46,1,1,0,0,1-.77-.56l-3.14-5.15a47.76,47.76,0,0,0,7-15.92Zm45.16,8.7-.41.05a49.3,49.3,0,0,0-10-6.59l0-.51,3.34-4,.47-.1a41.41,41.41,0,0,1,10.4,5.61l.05.51ZM135,50.36l0,.51A42.07,42.07,0,0,1,124.76,58a1,1,0,0,1-.46.16c-.26,0-.46-.16-.77-.57l-3.76-4.43a33.07,33.07,0,0,0,10.09-6.69h.52Zm14.42,30.85c-.2.31-.36.46-.61.46a3,3,0,0,1-.78-.2,41.73,41.73,0,0,1-11.64-6.34A39.59,39.59,0,0,1,123.84,82a3.35,3.35,0,0,1-.83.21.93.93,0,0,1-.72-.41l-4-5c5.2-1.75,9.73-3.76,13.39-6.64A35.11,35.11,0,0,1,126.41,59l.31-.51,5.46-2.22.41.36a24.86,24.86,0,0,0,3.87,8.4,24.09,24.09,0,0,0,3.5-8.5l.41-.21,6.18,2.27,0,.51A30.89,30.89,0,0,1,141.3,70a36.15,36.15,0,0,0,11.79,5.46Z"/><path class="cls-1" d="M226.26,65.22A44.82,44.82,0,0,0,238.87,73l-3.81,5.15a1.06,1.06,0,0,1-.87.57,1.35,1.35,0,0,1-.78-.26,38.58,38.58,0,0,1-9.73-8.19L224.14,82h-7.46l.41-11.49A39.72,39.72,0,0,1,207.25,79a1.7,1.7,0,0,1-.82.26c-.36,0-.62-.21-1-.62l-3.76-4.33a39.39,39.39,0,0,0,12.62-9.06h-2.68l-6.75.15-.36-.36V60.63a2.86,2.86,0,0,1-.61.31c-1,.42-2.06.83-3.2,1.24v1L201,74.64c0,6-2.32,7.52-8.6,7.52-.62,0-.77-.1-1-.62l-2.57-6.43a30.57,30.57,0,0,0,3.81-.21c1.08-.1,1.39-.41,1.39-1.65v-8.8c-.93.3-1.91.56-2.94.82l-.46-.26-2.06-6,.26-.47c1.85-.36,3.6-.77,5.2-1.13V49l-4.23.1-.36-.31V43.18l.31-.31L194,43V33.18l.41-.41h5.82l.46.36V43l4.07-.1.31.25v5.72l-.31.26-4.07-.1v6.54l4.28-1.4V59.3l6.64.15H217V54.66l.25-.26H223c-.77-.67-1-1.8-1-3.86V42.25l.41-.31h5.82l.42.36v6.54c0,.62.15.72,1,.72,1.14,0,1.55-.2,1.7-2.88l5.1,1.9c.52.21.57.36.52.83-.21,2.11-.52,3.19-1.7,4.22-1.55,1.39-2.73,1.6-7.11,1.6a15.74,15.74,0,0,1-4.33-.36v4.58h6.85l6.8-.15.31.25v5.51l-.31.31-6.8-.15Zm-20.35-26-.15-3.76.41-.36,6,.15h18.43l6.34-.15.36.36-.16,3.71v1.59l.26,4.74h-7.11V40.81H212.51v4.68h-6.85l.25-4.74ZM205,51.72c7.05-1.59,8.29-3.91,8.65-9.37l.41-.31,6.13,1,.46.47c-1.08,7.72-4.22,11.48-10.45,13.08a3.63,3.63,0,0,1-.67.1.88.88,0,0,1-.77-.31Z"/><path class="cls-1" d="M301.71,52.5c-1.65,2.11-3.35,4-5.1,5.92l2.42,1.7c2.32-2.68,4.53-5.46,6.44-8.09l.51-.1L311.34,55l.1.57c-2.32,2.78-4.79,5.46-7.31,7.93,2.26-.11,4.48-.16,6.74-.31-.72-.67-1.49-1.29-2.26-1.91l.05-.51,4-2.78.62,0A54.64,54.64,0,0,1,323.13,67v.62l-4.79,3.81-.56,0c-1-1.24-1.81-2.32-2.68-3.35-3.66.31-7.26.57-10.92.88v4.84l.26,8.55h-7.78l.26-8.55V69.39c-5.26.31-10.77.57-16.84.93l-.47-.26-2-5.77.36-.51c5.61,0,10.71,0,15.55,0a85.89,85.89,0,0,0-9.06-5.51v-.52l3.81-4.12.51-.15c1,.56,2,1.13,2.94,1.75C292.9,53.68,294,52,295,50.39H284.46v6.12h-7.37l.26-6v-.93l-.16-4.68.36-.36,8.55.15h10.66V42.4h-8.7l-7.78.16-.36-.31V36.79l.31-.31,7.83.15h8.7V33.34l.36-.41h6.7l.41.36v3.34h9.17l7.83-.15.31.26V42.3l-.31.26-7.83-.16h-9.17v2.32H315.3l8.55-.15.36.36-.15,4.22v1.39l.26,5.87h-7.57v-6H298.67l3,1.54Zm17.71,28.37-.51.16a67.54,67.54,0,0,0-12.82-6.85l-.11-.52,3.76-4.17.57-.1a69.8,69.8,0,0,1,13,6.28l.1.57ZM295.12,74a51.55,51.55,0,0,1-13,7,1.86,1.86,0,0,1-.67.15c-.31,0-.52-.15-.83-.57l-3.71-4.63a45.69,45.69,0,0,0,12.93-6h.52l4.79,3.55Z"/><path class="cls-3" d="M133.65,5.41a3.33,3.33,0,0,1-.31.94l-.26.62-.19.4a1.78,1.78,0,0,0-.13.77l0,.28a.17.17,0,0,1-.17.17c-.16,0-.33-.2-.52-.61a4.35,4.35,0,0,1-.29-1.87,19.46,19.46,0,0,1,.46-3.59,2,2,0,0,0,0-.3,1,1,0,0,0-.31-.64.22.22,0,0,1-.06-.12A.05.05,0,0,1,132,1.4a1.75,1.75,0,0,1,.52.28c.28.18.42.37.42.55a1.07,1.07,0,0,1-.15.44,7.69,7.69,0,0,0-.37,1.5,12.59,12.59,0,0,0-.21,2.11,3.08,3.08,0,0,0,.08.79c0,.18.11.26.16.26a.24.24,0,0,0,.18-.12s.07-.13.13-.24l.21-.43c.09-.19.18-.37.25-.56s.16-.38.23-.57.08-.15.14-.15S133.65,5.31,133.65,5.41Zm4.26,1.13a4.72,4.72,0,0,1,1.18.51,2.13,2.13,0,0,1,.65.51.74.74,0,0,1,.16.32c0,.07,0,.12-.13.15a.22.22,0,0,1-.24-.06,3.94,3.94,0,0,0-1.59-1.09,1.23,1.23,0,0,1-.47,1,1.71,1.71,0,0,1-1.15.4A2.51,2.51,0,0,1,135.16,8a.82.82,0,0,1-.5-.78.89.89,0,0,1,.42-.77,1.71,1.71,0,0,1,1-.29,5.93,5.93,0,0,1,1.39.21c-.06-.63-.12-1.21-.15-1.75s-.06-1-.07-1.5a7.74,7.74,0,0,1-1.45.18,1.39,1.39,0,0,1-.85-.22,2,2,0,0,1-.2-.19l-.08-.1s0,0,0-.05l0,0,.21.09a1.93,1.93,0,0,0,.4.15,4,4,0,0,0,.57,0l.51,0c.23,0,.5-.06.83-.11a9.23,9.23,0,0,1,.06-.94,3.42,3.42,0,0,0,0-.44.39.39,0,0,0-.1-.26,1.4,1.4,0,0,0-.37-.28.16.16,0,0,1-.09-.15c0-.09.05-.13.14-.13a1.32,1.32,0,0,1,.63.18.53.53,0,0,1,.31.5.74.74,0,0,1-.11.38,3,3,0,0,0-.09,1.05,3.3,3.3,0,0,0,1-.49.53.53,0,0,1,.33-.13,1.34,1.34,0,0,1,.39.07c.17.05.26.11.26.17s-.07.11-.2.15l-1.81.51Q137.69,4.58,137.91,6.54Zm-.44.18a4.12,4.12,0,0,0-1.18-.19,2.26,2.26,0,0,0-.94.19.6.6,0,0,0-.43.55.45.45,0,0,0,.11.31.71.71,0,0,0,.28.22,1.45,1.45,0,0,0,.4.13,3.57,3.57,0,0,0,.47,0,1.28,1.28,0,0,0,.88-.34A1.23,1.23,0,0,0,137.47,6.72Z"/><path class="cls-3" d="M145.7,5.2a.61.61,0,0,1-.11.27c-.06.11-.2.41-.41.9l-.25.6c-.07.16-.12.29-.16.39a1.51,1.51,0,0,0-.09.37.6.6,0,0,0,0,.2.45.45,0,0,1,0,.16.24.24,0,0,1-.06.15.25.25,0,0,1-.17.06,1.15,1.15,0,0,1-.72-.39,3.11,3.11,0,0,1-.72-1.31,7.2,7.2,0,0,1-.3-2.17c0-.28,0-.55,0-.82a6.83,6.83,0,0,1,.11-.79,1.69,1.69,0,0,0,0-.3,1.07,1.07,0,0,0-.23-.68.22.22,0,0,1-.06-.15c0-.05,0-.07.11-.07a1,1,0,0,1,.49.23q.33.24.33.45a1,1,0,0,1-.12.4,2.82,2.82,0,0,0-.2.75,9.15,9.15,0,0,0-.07,1.14,8.57,8.57,0,0,0,.1,1.26,5,5,0,0,0,.27,1c.06.12.11.22.16.3a.74.74,0,0,0,.12.16.28.28,0,0,0,.11.07h.12a.32.32,0,0,0,.31-.18l.56-1.09a9.16,9.16,0,0,1,.53-1,.25.25,0,0,1,.15,0A.07.07,0,0,1,145.7,5.2Zm4.62.42a4,4,0,0,1-.06.7.63.63,0,0,1-.19.43.49.49,0,0,1-.24.07.17.17,0,0,1-.14-.06.43.43,0,0,1,0-.2c0-.09,0-.21,0-.36s0-.34,0-.56a5.06,5.06,0,0,0-.42-2.15,2,2,0,0,0-1.37-1.14c-.15,0-.23-.08-.23-.17s.07-.13.19-.13a2.39,2.39,0,0,1,.71.21,1.79,1.79,0,0,1,.72.48,3,3,0,0,1,.55.78,4.08,4.08,0,0,1,.35,1A4.53,4.53,0,0,1,150.32,5.62Z"/><path class="cls-3" d="M159.31,6.83a.45.45,0,0,1,.27.07.38.38,0,0,1,.14.14.25.25,0,0,1,0,.17.3.3,0,0,1-.08.17,1.69,1.69,0,0,1-.59.2,8.21,8.21,0,0,1-1.11.16c-.4,0-.81,0-1.22,0a5.64,5.64,0,0,1-2.86-.48,1.4,1.4,0,0,1-.69-1.16,1.93,1.93,0,0,1,.3-.93c.21-.35.36-.53.44-.53s.09,0,.09.08a.07.07,0,0,1,0,.06A2.12,2.12,0,0,0,153.59,6a1.19,1.19,0,0,0,.45.92,3.31,3.31,0,0,0,1.93.38c.31,0,.61,0,.91,0s.59,0,.88-.08A3.81,3.81,0,0,0,158.87,7,.87.87,0,0,1,159.31,6.83Zm-1.66-5.56a1.16,1.16,0,0,1,.53.17c.19.12.29.24.29.36S158.33,2,158,2a2.82,2.82,0,0,0-.92.34A5.8,5.8,0,0,0,156,3a.21.21,0,0,1-.1,0s-.06,0-.06-.05a.65.65,0,0,1,0-.11.51.51,0,0,1,.11-.11l.25-.2.35-.26L157,2c.06,0,.08-.07.08-.12s0-.06-.14-.06l-.28,0-.58.06L155.5,2a1.77,1.77,0,0,0-.3,0l-.28,0a.79.79,0,0,1-.62-.3c-.17-.2-.26-.33-.26-.4s0-.1.08-.1a.37.37,0,0,1,.2.11.72.72,0,0,0,.26.17,2.7,2.7,0,0,0,.63.05l.56,0,.72-.06a3,3,0,0,0,.9-.18A.47.47,0,0,1,157.65,1.27Z"/><path class="cls-3" d="M169,5.17a3.87,3.87,0,0,1-.41,1.62,3.41,3.41,0,0,1-1.09,1.4,4.18,4.18,0,0,1-1.56.71,6,6,0,0,1-1.27.19c-.19,0-.29,0-.29-.13s0-.13.12-.13a6,6,0,0,0,1-.2A4.19,4.19,0,0,0,167,7.9a3.15,3.15,0,0,0,1-1.4,4.49,4.49,0,0,0,.32-1.59,1.65,1.65,0,0,0-.43-1.18,1.59,1.59,0,0,0-1.22-.46,6.23,6.23,0,0,0-2.77,1.53.64.64,0,0,1-.37.17.61.61,0,0,1-.36-.15.39.39,0,0,1-.18-.33.8.8,0,0,1,.23-.48c.16-.19.27-.28.33-.28s.09,0,.09.06a.47.47,0,0,1,0,.16.23.23,0,0,0,0,.24s.14,0,.3-.06a8,8,0,0,1,2.1-1,4.26,4.26,0,0,1,1-.16,1.73,1.73,0,0,1,1.42.65A2.45,2.45,0,0,1,169,5.17ZM167.05.78a.46.46,0,0,1,.34.15.41.41,0,0,1,.15.29c0,.17-.13.28-.4.33a1.25,1.25,0,0,0-.31.07l-.31.12L166,2l-.83.43a.3.3,0,0,1-.16,0c-.09,0-.14,0-.14-.07a.3.3,0,0,1,0-.1l.16-.11.41-.25.61-.36s.08-.06.08-.08a.07.07,0,0,0-.05-.07h-.26a2.24,2.24,0,0,1-1.16-.28q-.48-.3-.48-.51c0-.08,0-.11.09-.11a.23.23,0,0,1,.16.07,2,2,0,0,0,1.35.38,2.8,2.8,0,0,0,.77-.09A1.76,1.76,0,0,1,167.05.78Z"/><path class="cls-3" d="M174.86,2.72a3.77,3.77,0,0,0,.67-.18.81.81,0,0,0,.33-.23.45.45,0,0,1,.36-.15.49.49,0,0,1,.33.11.29.29,0,0,1,.1.21.26.26,0,0,1-.12.19,2.19,2.19,0,0,1-.62.22l-.54.12-.6.11c-.14.48-.3,1-.47,1.55l-.6,1.77c-.44,1.26-.69,1.92-.74,2a.25.25,0,0,1-.2.13c-.06,0-.12-.05-.16-.15a1.53,1.53,0,0,1,0-.41.81.81,0,0,1,.16-.48,7.79,7.79,0,0,0,.61-1.42c.15-.4.3-.83.45-1.32s.32-1,.49-1.59a8.46,8.46,0,0,1-1.23.12.74.74,0,0,1-.65-.27.89.89,0,0,1-.19-.38q0-.09.06-.09c.05,0,.11,0,.21.12a.92.92,0,0,0,.34.18,1.64,1.64,0,0,0,.51.07l.42,0,.64-.11a6.15,6.15,0,0,0,.28-1.27,1,1,0,0,0-.14-.61.16.16,0,0,1,0-.11.1.1,0,0,1,.11-.11A1,1,0,0,1,175,1c.22.18.33.33.33.43a.45.45,0,0,1-.14.32A4.16,4.16,0,0,0,174.86,2.72Zm4.63,5.07a.66.66,0,0,1,.38.12c.11.08.17.16.17.24a.23.23,0,0,1-.15.21,3.28,3.28,0,0,1-.51.14,4.21,4.21,0,0,1-.83.07,4.74,4.74,0,0,1-1.88-.36,1.13,1.13,0,0,1-.81-1,.82.82,0,0,1,0-.28,1,1,0,0,1,.1-.23.49.49,0,0,1,.12-.15.15.15,0,0,1,.1,0c.06,0,.09,0,.1,0a.28.28,0,0,1,0,.11s0,.11-.05.18a.69.69,0,0,0,0,.25.79.79,0,0,0,.5.72,3,3,0,0,0,1.36.26,2.93,2.93,0,0,0,1.16-.16A.45.45,0,0,1,179.49,7.79Zm.45-4.58c0,.11-.08.18-.23.21a2.19,2.19,0,0,0-.49.17,4.52,4.52,0,0,0-.85.58l-.47.37-.21.17a.17.17,0,0,1-.13.07c-.05,0-.07,0-.08,0s0-.07.05-.15a3.4,3.4,0,0,1,.24-.28c.11-.12.26-.27.46-.46a2.42,2.42,0,0,1,.54-.45c.1,0,.15-.1.15-.13s0-.06-.16-.06h-.45l-.45,0-.77.08c-.09,0-.13,0-.13-.08s.18-.22.55-.33a4.3,4.3,0,0,1,1.3-.18,1.57,1.57,0,0,1,.94.18A.4.4,0,0,1,179.94,3.21Z"/><path class="cls-3" d="M190.7,6.21a2.28,2.28,0,0,1-.48.86,4.92,4.92,0,0,1-.51.59,4.26,4.26,0,0,1-.58.47,2.06,2.06,0,0,1-1.13.41,1,1,0,0,1-.8-.31,1.07,1.07,0,0,1-.28-.76c0-.16,0-.4.05-.72s.08-.74.15-1.24c0,0,0-.07,0-.09V5.33a.65.65,0,0,0-.22-.52.94.94,0,0,0-.68-.19,1.47,1.47,0,0,0-.93.36,7.45,7.45,0,0,0-.89.82,4.71,4.71,0,0,0-.43.53,5.6,5.6,0,0,0-.41.65c-.12.24-.24.47-.33.69a4.81,4.81,0,0,0-.24.66c-.06.21-.15.32-.27.32s-.15-.08-.19-.23a2.17,2.17,0,0,1,0-.4,1,1,0,0,1,.11-.41,4.78,4.78,0,0,1,.45-.67,27.56,27.56,0,0,0,1.62-3,13,13,0,0,0,1.27-3,.48.48,0,0,0-.19-.44.24.24,0,0,1-.12-.2c0-.07.05-.11.15-.11a1.06,1.06,0,0,1,.5.27.72.72,0,0,1,.35.57.66.66,0,0,1-.2.45,12.08,12.08,0,0,0-.8,1.45l-.55,1.07-.43.78c-.24.43-.36.65-.36.67s0,0,0,0,.06,0,.12-.11a2.56,2.56,0,0,1,.33-.35c.14-.12.31-.26.51-.41a1.81,1.81,0,0,1,1.1-.46,1.36,1.36,0,0,1,.9.32,1,1,0,0,1,.38.79.31.31,0,0,1,0,.1s0,.05,0,.09a10.88,10.88,0,0,0-.21,1.63,1.14,1.14,0,0,0,.15.67A.54.54,0,0,0,188,8a2,2,0,0,0,1.09-.41,6.13,6.13,0,0,0,1.34-1.41.22.22,0,0,1,.17-.1C190.67,6.1,190.7,6.14,190.7,6.21Z"/><path class="cls-3" d="M197.45,3c.15.25.33.52.53.8l.64.87c.15.2.28.37.38.52a3.74,3.74,0,0,1,.26.39,1.15,1.15,0,0,1,.21.62c0,.21-.07.31-.22.31s-.23-.09-.4-.26a2.66,2.66,0,0,0-1.1-.45,6.9,6.9,0,0,0-1.65-.19,2,2,0,0,0-1.43.41,1.24,1.24,0,0,0-.39.88,1,1,0,0,0,.67,1,3.45,3.45,0,0,0,1.47.3,2.34,2.34,0,0,0,1.1-.18,1,1,0,0,1,.5-.18.93.93,0,0,1,.22,0,.68.68,0,0,1,.21.1l.15.12a.22.22,0,0,1,.06.13.23.23,0,0,1-.11.2,2.47,2.47,0,0,1-.69.17,6.13,6.13,0,0,1-1.09.1,4.44,4.44,0,0,1-2.05-.47A1.44,1.44,0,0,1,193.78,7a1.44,1.44,0,0,1,.7-1.18,3,3,0,0,1,1.78-.5,7.33,7.33,0,0,1,2.32.41c.11,0,.18.05.22,0s0-.08-.07-.17c-.26-.31-.52-.66-.8-1.06s-.58-.85-.89-1.35c-.31.09-.63.19-1,.27l-.57.15-.25,0a3.24,3.24,0,0,1-1-.17,2,2,0,0,1-.72-.34.8.8,0,0,1-.19-.24c0-.06,0-.1,0-.13a.09.09,0,0,1,.1,0,.21.21,0,0,1,.12.07,2.3,2.3,0,0,0,1.41.38,5.08,5.08,0,0,0,1.81-.34c-.34-.56-.56-.95-.67-1.18a1.18,1.18,0,0,0-.16-.26.4.4,0,0,0-.17-.15.46.46,0,0,0-.2-.05h-.27c-.2,0-.3-.05-.3-.14s.09-.18.28-.25a1.73,1.73,0,0,1,.52-.11.61.61,0,0,1,.67.53,4.34,4.34,0,0,0,.24.63,9.18,9.18,0,0,0,.45.84A6.79,6.79,0,0,0,198.34,2a.6.6,0,0,1,.39-.14,1.26,1.26,0,0,1,.43.08c.14.05.21.1.21.16s-.06.12-.18.19a1.38,1.38,0,0,1-.25.13l-.44.2-.53.21Z"/><path class="cls-3" d="M207.17,8.48q0,.33-.21.33a.22.22,0,0,1-.21-.14,6.22,6.22,0,0,0-1.34-1.39c-.69-.57-1.64-1.26-2.84-2.06a.54.54,0,0,1-.26-.48.53.53,0,0,1,.16-.39c.05,0,.27-.23.65-.52s.91-.71,1.62-1.24l.35-.28c.14-.11.29-.25.46-.41l.41-.38.2-.21a.48.48,0,0,0,.11-.18c0-.09-.13-.17-.38-.24-.08,0-.12-.05-.13-.08a.17.17,0,0,1,0-.12.53.53,0,0,1,.11-.09.51.51,0,0,1,.17,0,1.24,1.24,0,0,1,.67.27c.25.17.37.32.37.45s-.12.26-.36.4a10.2,10.2,0,0,0-.84.58l-.61.47-.89.65-1.32.95-.22.17a.37.37,0,0,0-.11.1.28.28,0,0,0-.06.18c0,.07.08.15.23.25,1.52,1,2.5,1.62,2.94,2a10.8,10.8,0,0,1,1,.81A1,1,0,0,1,207.17,8.48Z"/></g></g></svg>